<svg width="50" height="50" viewBox="0 0 50 50" fill="none" xmlns="http://www.w3.org/2000/svg">
<path d="M25 3.125C12.9199 3.125 3.125 12.9199 3.125 25C3.125 37.0801 12.9199 46.875 25 46.875C37.0801 46.875 46.875 37.0801 46.875 25C46.875 12.9199 37.0801 3.125 25 3.125ZM25 43.1641C14.9707 43.1641 6.83594 35.0293 6.83594 25C6.83594 14.9707 14.9707 6.83594 25 6.83594C35.0293 6.83594 43.1641 14.9707 43.1641 25C43.1641 35.0293 35.0293 43.1641 25 43.1641Z" fill="#365179"/>
<path d="M25 6.83594C14.9707 6.83594 6.83594 14.9707 6.83594 25C6.83594 35.0293 14.9707 43.1641 25 43.1641C35.0293 43.1641 43.1641 35.0293 43.1641 25C43.1641 14.9707 35.0293 6.83594 25 6.83594ZM25 37.6953C23.9209 37.6953 23.0469 36.8213 23.0469 35.7422C23.0469 34.6631 23.9209 33.7891 25 33.7891C26.0791 33.7891 26.9531 34.6631 26.9531 35.7422C26.9531 36.8213 26.0791 37.6953 25 37.6953ZM28.0713 26.9775C27.6291 27.1483 27.2486 27.4483 26.9795 27.8386C26.7103 28.2288 26.565 28.691 26.5625 29.165V30.2734C26.5625 30.4883 26.3867 30.6641 26.1719 30.6641H23.8281C23.6133 30.6641 23.4375 30.4883 23.4375 30.2734V29.2236C23.4375 28.0957 23.7646 26.9824 24.4092 26.0547C25.0391 25.1465 25.918 24.4531 26.9531 24.0576C28.6133 23.418 29.6875 22.0264 29.6875 20.5078C29.6875 18.3545 27.583 16.6016 25 16.6016C22.417 16.6016 20.3125 18.3545 20.3125 20.5078V20.8789C20.3125 21.0938 20.1367 21.2695 19.9219 21.2695H17.5781C17.3633 21.2695 17.1875 21.0938 17.1875 20.8789V20.5078C17.1875 18.5889 18.0273 16.7969 19.5508 15.4639C21.0156 14.1797 22.9492 13.4766 25 13.4766C27.0508 13.4766 28.9844 14.1846 30.4492 15.4639C31.9727 16.7969 32.8125 18.5889 32.8125 20.5078C32.8125 23.3301 30.9522 25.8691 28.0713 26.9775Z" fill="white"/>
<path d="M23.0469 35.7422C23.0469 36.2602 23.2527 36.757 23.6189 37.1233C23.9852 37.4895 24.482 37.6953 25 37.6953C25.518 37.6953 26.0148 37.4895 26.3811 37.1233C26.7474 36.757 26.9531 36.2602 26.9531 35.7422C26.9531 35.2242 26.7474 34.7274 26.3811 34.3611C26.0148 33.9948 25.518 33.7891 25 33.7891C24.482 33.7891 23.9852 33.9948 23.6189 34.3611C23.2527 34.7274 23.0469 35.2242 23.0469 35.7422ZM30.4492 15.4639C28.9844 14.1846 27.0508 13.4766 25 13.4766C22.9492 13.4766 21.0156 14.1797 19.5508 15.4639C18.0273 16.7969 17.1875 18.5889 17.1875 20.5078V20.8789C17.1875 21.0938 17.3633 21.2695 17.5781 21.2695H19.9219C20.1367 21.2695 20.3125 21.0938 20.3125 20.8789V20.5078C20.3125 18.3545 22.417 16.6016 25 16.6016C27.583 16.6016 29.6875 18.3545 29.6875 20.5078C29.6875 22.0264 28.6133 23.418 26.9531 24.0576C25.918 24.4531 25.0391 25.1465 24.4092 26.0547C23.7646 26.9824 23.4375 28.0957 23.4375 29.2236V30.2734C23.4375 30.4883 23.6133 30.6641 23.8281 30.6641H26.1719C26.3867 30.6641 26.5625 30.4883 26.5625 30.2734V29.165C26.565 28.691 26.7103 28.2288 26.9795 27.8386C27.2486 27.4483 27.6291 27.1483 28.0713 26.9775C30.9521 25.8691 32.8125 23.3301 32.8125 20.5078C32.8125 18.5889 31.9727 16.7969 30.4492 15.4639Z" fill="#365179"/>
</svg>
