<svg width="155" height="40" viewBox="0 0 155 40" fill="none" xmlns="http://www.w3.org/2000/svg">
<rect width="155" height="40" fill="#365179"/>
<path d="M41.8782 21.5134H37.7083L36.7717 24.1111H35.4182L39.219 14.158H40.3674L44.175 24.1111H42.8284L41.8782 21.5134ZM38.1047 20.4333H41.4885L39.7932 15.7781L38.1047 20.4333ZM45.0159 20.3513C45.0159 19.1983 45.2825 18.2823 45.8157 17.6033C46.3489 16.9197 47.0553 16.5779 47.9348 16.5779C48.8372 16.5779 49.5413 16.8969 50.0471 17.5349L50.1086 16.7146H51.2639V23.9333C51.2639 24.8904 50.9791 25.6446 50.4094 26.196C49.8443 26.7475 49.0833 27.0232 48.1262 27.0232C47.593 27.0232 47.0712 26.9093 46.5608 26.6814C46.0504 26.4535 45.6607 26.1414 45.3918 25.7449L46.0481 24.9861C46.5904 25.656 47.2535 25.991 48.0374 25.991C48.6526 25.991 49.1311 25.8178 49.4729 25.4714C49.8193 25.1251 49.9924 24.6375 49.9924 24.0085V23.3728C49.4866 23.9561 48.7961 24.2478 47.9211 24.2478C47.0553 24.2478 46.3534 23.8992 45.8157 23.2019C45.2825 22.5046 45.0159 21.5544 45.0159 20.3513ZM46.2874 20.4949C46.2874 21.3289 46.4583 21.9851 46.8 22.4636C47.1418 22.9376 47.6204 23.1746 48.2356 23.1746C49.0331 23.1746 49.6187 22.8123 49.9924 22.0876V18.7107C49.6051 18.0043 49.024 17.6511 48.2493 17.6511C47.634 17.6511 47.1532 17.8904 46.8069 18.3689C46.4605 18.8474 46.2874 19.5561 46.2874 20.4949ZM56.7532 17.8494C56.5618 17.8175 56.3544 17.8015 56.1311 17.8015C55.3017 17.8015 54.7389 18.1547 54.4426 18.8611V24.1111H53.178V16.7146H54.4084L54.429 17.5691C54.8437 16.9083 55.4316 16.5779 56.1926 16.5779C56.4387 16.5779 56.6256 16.6098 56.7532 16.6736V17.8494ZM60.8547 24.2478C59.8521 24.2478 59.0364 23.9197 58.4075 23.2634C57.7786 22.6026 57.4641 21.7208 57.4641 20.6179V20.3855C57.4641 19.6518 57.6031 18.9978 57.8811 18.4236C58.1637 17.8448 58.5556 17.3936 59.0569 17.0701C59.5627 16.7419 60.1096 16.5779 60.6975 16.5779C61.6591 16.5779 62.4065 16.8946 62.9397 17.5281C63.4729 18.1615 63.7395 19.0684 63.7395 20.2488V20.7751H58.7288C58.747 21.5043 58.9589 22.0945 59.3645 22.5457C59.7747 22.9923 60.2942 23.2156 60.9231 23.2156C61.3697 23.2156 61.748 23.1244 62.0579 22.9421C62.3678 22.7598 62.6389 22.5183 62.8713 22.2175L63.6438 22.8191C63.024 23.7716 62.0943 24.2478 60.8547 24.2478ZM60.6975 17.6169C60.1871 17.6169 59.7587 17.8038 59.4124 18.1775C59.066 18.5466 58.8518 19.0662 58.7698 19.7361H62.4749V19.6404C62.4384 18.9978 62.2652 18.5011 61.9553 18.1501C61.6454 17.7947 61.2262 17.6169 60.6975 17.6169ZM64.9084 20.3513C64.9084 19.1983 65.175 18.2823 65.7083 17.6033C66.2415 16.9197 66.9478 16.5779 67.8274 16.5779C68.7297 16.5779 69.4338 16.8969 69.9397 17.5349L70.0012 16.7146H71.1565V23.9333C71.1565 24.8904 70.8717 25.6446 70.302 26.196C69.7369 26.7475 68.9758 27.0232 68.0188 27.0232C67.4856 27.0232 66.9638 26.9093 66.4534 26.6814C65.943 26.4535 65.5533 26.1414 65.2844 25.7449L65.9407 24.9861C66.483 25.656 67.1461 25.991 67.9299 25.991C68.5452 25.991 69.0237 25.8178 69.3655 25.4714C69.7118 25.1251 69.885 24.6375 69.885 24.0085V23.3728C69.3792 23.9561 68.6887 24.2478 67.8137 24.2478C66.9478 24.2478 66.246 23.8992 65.7083 23.2019C65.175 22.5046 64.9084 21.5544 64.9084 20.3513ZM66.1799 20.4949C66.1799 21.3289 66.3508 21.9851 66.6926 22.4636C67.0344 22.9376 67.5129 23.1746 68.1282 23.1746C68.9257 23.1746 69.5113 22.8123 69.885 22.0876V18.7107C69.4976 18.0043 68.9166 17.6511 68.1418 17.6511C67.5266 17.6511 67.0458 17.8904 66.6995 18.3689C66.3531 18.8474 66.1799 19.5561 66.1799 20.4949ZM77.637 24.1111C77.564 23.9653 77.5048 23.7055 77.4592 23.3318C76.8713 23.9425 76.1695 24.2478 75.3538 24.2478C74.6246 24.2478 74.0253 24.0427 73.5559 23.6326C73.0911 23.2179 72.8586 22.6938 72.8586 22.0603C72.8586 21.2901 73.1503 20.6931 73.7336 20.2693C74.3215 19.8409 75.1464 19.6267 76.2083 19.6267H77.4387V19.0457C77.4387 18.6036 77.3066 18.2527 77.0422 17.9929C76.7779 17.7286 76.3883 17.5964 75.8733 17.5964C75.4221 17.5964 75.0439 17.7104 74.7385 17.9382C74.4332 18.1661 74.2805 18.4418 74.2805 18.7654H73.009C73.009 18.3962 73.1389 18.0408 73.3987 17.699C73.663 17.3526 74.0185 17.0792 74.4651 16.8787C74.9163 16.6781 75.4107 16.5779 75.9485 16.5779C76.8007 16.5779 77.4683 16.7921 77.9514 17.2205C78.4345 17.6443 78.6851 18.2299 78.7034 18.9773V22.3816C78.7034 23.0606 78.79 23.6007 78.9631 24.0017V24.1111H77.637ZM75.5383 23.1472C75.9348 23.1472 76.3108 23.0447 76.6663 22.8396C77.0217 22.6345 77.2792 22.3679 77.4387 22.0398V20.5222H76.4475C74.898 20.5222 74.1233 20.9757 74.1233 21.8826C74.1233 22.2791 74.2555 22.5889 74.5198 22.8123C74.7841 23.0356 75.1236 23.1472 75.5383 23.1472ZM84.261 17.8494C84.0696 17.8175 83.8622 17.8015 83.6389 17.8015C82.8095 17.8015 82.2467 18.1547 81.9504 18.8611V24.1111H80.6858V16.7146H81.9163L81.9368 17.5691C82.3515 16.9083 82.9394 16.5779 83.7004 16.5779C83.9465 16.5779 84.1334 16.6098 84.261 16.6736V17.8494ZM91.8694 23.2156C92.3206 23.2156 92.7148 23.0789 93.052 22.8054C93.3892 22.532 93.5761 22.1902 93.6125 21.78H94.8088C94.7861 22.2039 94.6402 22.6072 94.3713 22.99C94.1025 23.3728 93.7424 23.6781 93.2913 23.906C92.8446 24.1339 92.3707 24.2478 91.8694 24.2478C90.8622 24.2478 90.0601 23.9128 89.4631 23.2429C88.8707 22.5684 88.5745 21.6479 88.5745 20.4812V20.2693C88.5745 19.5492 88.7066 18.9089 88.9709 18.3484C89.2353 17.7878 89.6135 17.3526 90.1057 17.0427C90.6025 16.7328 91.1881 16.5779 91.8625 16.5779C92.692 16.5779 93.3801 16.8263 93.927 17.323C94.4784 17.8197 94.7724 18.4646 94.8088 19.2576H93.6125C93.5761 18.7791 93.3938 18.3871 93.0657 18.0818C92.7421 17.7719 92.3411 17.6169 91.8625 17.6169C91.22 17.6169 90.7209 17.8494 90.3655 18.3142C90.0146 18.7745 89.8391 19.4421 89.8391 20.3171V20.5564C89.8391 21.4086 90.0146 22.0649 90.3655 22.5251C90.7164 22.9854 91.2177 23.2156 91.8694 23.2156ZM95.8958 20.3445C95.8958 19.6199 96.037 18.9682 96.3196 18.3894C96.6067 17.8106 97.0032 17.364 97.509 17.0496C98.0194 16.7351 98.6005 16.5779 99.2522 16.5779C100.259 16.5779 101.073 16.9265 101.693 17.6238C102.317 18.321 102.629 19.2485 102.629 20.406V20.4949C102.629 21.2149 102.49 21.8621 102.212 22.4363C101.939 23.0059 101.545 23.4503 101.03 23.7693C100.519 24.0883 99.9312 24.2478 99.2659 24.2478C98.2633 24.2478 97.4498 23.8992 96.8254 23.2019C96.2056 22.5046 95.8958 21.5818 95.8958 20.4333V20.3445ZM97.1672 20.4949C97.1672 21.3152 97.3564 21.9737 97.7346 22.4705C98.1174 22.9672 98.6278 23.2156 99.2659 23.2156C99.9084 23.2156 100.419 22.9649 100.797 22.4636C101.175 21.9578 101.365 21.2514 101.365 20.3445C101.365 19.5333 101.171 18.877 100.783 18.3757C100.401 17.8699 99.8902 17.6169 99.2522 17.6169C98.6278 17.6169 98.1243 17.8653 97.7415 18.3621C97.3586 18.8588 97.1672 19.5697 97.1672 20.4949ZM105.411 16.7146L105.452 17.6443C106.017 16.9333 106.756 16.5779 107.667 16.5779C109.23 16.5779 110.019 17.4597 110.032 19.2234V24.1111H108.768V19.2166C108.763 18.6833 108.64 18.2891 108.399 18.0339C108.162 17.7787 107.79 17.6511 107.284 17.6511C106.874 17.6511 106.514 17.7605 106.204 17.9792C105.894 18.198 105.653 18.4851 105.48 18.8406V24.1111H104.215V16.7146H105.411ZM114.906 23.2156C115.358 23.2156 115.752 23.0789 116.089 22.8054C116.426 22.532 116.613 22.1902 116.65 21.78H117.846C117.823 22.2039 117.677 22.6072 117.408 22.99C117.14 23.3728 116.78 23.6781 116.328 23.906C115.882 24.1339 115.408 24.2478 114.906 24.2478C113.899 24.2478 113.097 23.9128 112.5 23.2429C111.908 22.5684 111.612 21.6479 111.612 20.4812V20.2693C111.612 19.5492 111.744 18.9089 112.008 18.3484C112.272 17.7878 112.651 17.3526 113.143 17.0427C113.64 16.7328 114.225 16.5779 114.9 16.5779C115.729 16.5779 116.417 16.8263 116.964 17.323C117.516 17.8197 117.809 18.4646 117.846 19.2576H116.65C116.613 18.7791 116.431 18.3871 116.103 18.0818C115.779 17.7719 115.378 17.6169 114.9 17.6169C114.257 17.6169 113.758 17.8494 113.403 18.3142C113.052 18.7745 112.876 19.4421 112.876 20.3171V20.5564C112.876 21.4086 113.052 22.0649 113.403 22.5251C113.753 22.9854 114.255 23.2156 114.906 23.2156ZM122.337 24.2478C121.335 24.2478 120.519 23.9197 119.89 23.2634C119.261 22.6026 118.947 21.7208 118.947 20.6179V20.3855C118.947 19.6518 119.086 18.9978 119.364 18.4236C119.646 17.8448 120.038 17.3936 120.539 17.0701C121.045 16.7419 121.592 16.5779 122.18 16.5779C123.142 16.5779 123.889 16.8946 124.422 17.5281C124.955 18.1615 125.222 19.0684 125.222 20.2488V20.7751H120.211C120.229 21.5043 120.441 22.0945 120.847 22.5457C121.257 22.9923 121.777 23.2156 122.406 23.2156C122.852 23.2156 123.23 23.1244 123.54 22.9421C123.85 22.7598 124.121 22.5183 124.354 22.2175L125.126 22.8191C124.506 23.7716 123.577 24.2478 122.337 24.2478ZM122.18 17.6169C121.67 17.6169 121.241 17.8038 120.895 18.1775C120.548 18.5466 120.334 19.0662 120.252 19.7361H123.957V19.6404C123.921 18.9978 123.748 18.5011 123.438 18.1501C123.128 17.7947 122.709 17.6169 122.18 17.6169ZM132.94 20.4949C132.94 21.6205 132.682 22.5274 132.167 23.2156C131.652 23.9037 130.955 24.2478 130.075 24.2478C129.178 24.2478 128.471 23.963 127.956 23.3933V26.9548H126.692V16.7146H127.847L127.908 17.5349C128.423 16.8969 129.139 16.5779 130.055 16.5779C130.944 16.5779 131.645 16.9128 132.16 17.5828C132.68 18.2527 132.94 19.1847 132.94 20.3787V20.4949ZM131.675 20.3513C131.675 19.5173 131.497 18.8588 131.142 18.3757C130.786 17.8927 130.299 17.6511 129.679 17.6511C128.913 17.6511 128.339 17.9906 127.956 18.6697V22.2039C128.335 22.8783 128.913 23.2156 129.693 23.2156C130.299 23.2156 130.78 22.9763 131.135 22.4978C131.495 22.0147 131.675 21.2992 131.675 20.3513ZM136.269 14.9236V16.7146H137.65V17.6921H136.269V22.2791C136.269 22.5753 136.33 22.7986 136.453 22.949C136.576 23.0948 136.786 23.1677 137.082 23.1677C137.228 23.1677 137.429 23.1404 137.684 23.0857V24.1111C137.351 24.2022 137.028 24.2478 136.713 24.2478C136.148 24.2478 135.722 24.0769 135.435 23.7351C135.148 23.3933 135.004 22.908 135.004 22.2791V17.6921H133.657V16.7146H135.004V14.9236H136.269ZM138.661 20.3445C138.661 19.6199 138.803 18.9682 139.085 18.3894C139.372 17.8106 139.769 17.364 140.275 17.0496C140.785 16.7351 141.366 16.5779 142.018 16.5779C143.025 16.5779 143.838 16.9265 144.458 17.6238C145.083 18.321 145.395 19.2485 145.395 20.406V20.4949C145.395 21.2149 145.256 21.8621 144.978 22.4363C144.704 23.0059 144.31 23.4503 143.795 23.7693C143.285 24.0883 142.697 24.2478 142.031 24.2478C141.029 24.2478 140.215 23.8992 139.591 23.2019C138.971 22.5046 138.661 21.5818 138.661 20.4333V20.3445ZM139.933 20.4949C139.933 21.3152 140.122 21.9737 140.5 22.4705C140.883 22.9672 141.393 23.2156 142.031 23.2156C142.674 23.2156 143.184 22.9649 143.563 22.4636C143.941 21.9578 144.13 21.2514 144.13 20.3445C144.13 19.5333 143.936 18.877 143.549 18.3757C143.166 17.8699 142.656 17.6169 142.018 17.6169C141.393 17.6169 140.89 17.8653 140.507 18.3621C140.124 18.8588 139.933 19.5697 139.933 20.4949Z" fill="white"/>
<path d="M6.99353 12.2222C6.99353 11.9275 7.10269 11.6449 7.29699 11.4365C7.4913 11.2281 7.75483 11.1111 8.02961 11.1111H20.9806C21.2554 11.1111 21.519 11.2281 21.7133 11.4365C21.9076 11.6449 22.0167 11.9275 22.0167 12.2222V14.4444C22.0167 14.7391 21.9076 15.0217 21.7133 15.2301C21.519 15.4385 21.2554 15.5555 20.9806 15.5555C20.7059 15.5555 20.4423 15.4385 20.248 15.2301C20.0537 15.0217 19.9446 14.7391 19.9446 14.4444V13.3333H15.5412V22.26C14.8624 23.4124 14.5031 24.748 14.5051 26.1111C14.5051 27.0955 14.6885 28.0333 15.0211 28.8889H12.433C12.1582 28.8889 11.8946 28.7718 11.7003 28.5634C11.506 28.3551 11.3969 28.0724 11.3969 27.7778C11.3969 27.4831 11.506 27.2004 11.7003 26.9921C11.8946 26.7837 12.1582 26.6666 12.433 26.6666H13.469V13.3333H9.0657V14.4444C9.0657 14.7391 8.95654 15.0217 8.76223 15.2301C8.56793 15.4385 8.3044 15.5555 8.02961 15.5555C7.75483 15.5555 7.4913 15.4385 7.29699 15.2301C7.10269 15.0217 6.99353 14.7391 6.99353 14.4444V12.2222ZM26.9381 26.1111C26.9381 24.4903 26.3377 22.9359 25.2691 21.7899C24.2004 20.6438 22.751 20 21.2397 20C19.7283 20 18.2789 20.6438 17.2102 21.7899C16.1416 22.9359 15.5412 24.4903 15.5412 26.1111C15.5412 27.7318 16.1416 29.2862 17.2102 30.4323C18.2789 31.5783 19.7283 32.2222 21.2397 32.2222C22.751 32.2222 24.2004 31.5783 25.2691 30.4323C26.3377 29.2862 26.9381 27.7318 26.9381 26.1111ZM21.7577 26.6666L21.7587 29.4478C21.7587 29.5951 21.7042 29.7364 21.607 29.8406C21.5099 29.9448 21.3781 30.0033 21.2407 30.0033C21.1033 30.0033 20.9715 29.9448 20.8744 29.8406C20.7772 29.7364 20.7227 29.5951 20.7227 29.4478V26.6666H18.1273C17.9899 26.6666 17.8581 26.6081 17.761 26.5039C17.6638 26.3997 17.6092 26.2584 17.6092 26.1111C17.6092 25.9637 17.6638 25.8224 17.761 25.7182C17.8581 25.6141 17.9899 25.5555 18.1273 25.5555H20.7216V22.7778C20.7216 22.6304 20.7762 22.4891 20.8734 22.3849C20.9705 22.2807 21.1023 22.2222 21.2397 22.2222C21.3771 22.2222 21.5088 22.2807 21.606 22.3849C21.7031 22.4891 21.7577 22.6304 21.7577 22.7778V25.5555H24.3448C24.4822 25.5555 24.614 25.6141 24.7111 25.7182C24.8083 25.8224 24.8628 25.9637 24.8628 26.1111C24.8628 26.2584 24.8083 26.3997 24.7111 26.5039C24.614 26.6081 24.4822 26.6666 24.3448 26.6666H21.7577Z" fill="white"/>
</svg>
