<svg width="1175" height="136" viewBox="0 0 1175 136" fill="none" xmlns="http://www.w3.org/2000/svg">
<path d="M1122.57 136C1138.47 132.535 1145.88 127.613 1154.33 113.026L1175 29.9291C1174.8 11.7388 1167.7 6.89392 1149.29 5H1043.41C1026.85 9.17671 1021.43 14.7323 1014.67 29.9291L994 113.026C995.824 129.511 1001.99 134.819 1023.75 136H1122.57Z" fill="#365179"/>
<path d="M1115 30H1074C1065.56 32.0678 1063.62 35.4034 1061 42L1048 93C1046.5 102.767 1046.42 107.572 1055.5 110.5H1093C1102.71 109.618 1105.65 105.846 1109 93L1121.5 42C1122.44 35.7385 1121.78 32.9555 1115 30Z" fill="white"/>
<path d="M941 45H990L993.5 27C993.303 8.3931 987.262 3.4373 969 1.5H864C847.576 5.77236 842.204 11.4552 835.5 27L815 112C816.809 128.862 822.92 134.292 844.5 135.5H942.5C958.27 131.956 964.626 126.921 973 112L978.5 91H930L927 102C923.665 106.555 921.035 108.167 915.5 110H876C869.581 108.114 867.567 105.92 867.5 99.5L882 36C884.468 30.9128 887.153 28.9845 894 27H936C941.408 29.197 942.369 31.3799 942.5 36L941 45Z" fill="#365179"/>
<path d="M630 135.5H680L703 38.5C705.316 32.0929 707.65 29.3526 715.5 27.5H757C763.005 29.6504 764.273 32.0935 763 38.5L740.5 135.5H790L814.5 25.5C814.119 8.79129 808.94 3.40646 790 1.5H685C671.412 6.24343 664.436 10.1109 656.5 25.5L630 135.5Z" fill="#365179"/>
<path d="M639 2H592L559 135.5H608L639 2Z" fill="#365179"/>
<path d="M436.5 2H569.5L565 26.5L459 27C455.795 29.2555 450.715 37.4879 451 42.5C451.285 47.5121 451.889 52.6832 456 55L531.5 56C545.33 59.5435 550.579 65.9437 551.5 80.5L539.5 120C532.091 130.522 525.571 133.048 512.5 135.5H379L386 110.5H482C489.542 110.027 492.692 108.577 496.5 104L501 88.5C498.381 81.1864 495.511 79.4487 488 80.5H423C407.165 79.0352 401.275 74.7547 399.5 57C400.884 39.8358 403.684 30.9166 411.5 16C418.421 7.01596 423.879 3.93072 436.5 2Z" fill="#365179"/>
<path d="M368.5 0H346L322.5 134.5H345L368.5 0Z" fill="#3B3C3C"/>
<path d="M249 1H227L203 135.5H226.5L233.5 94.5L252 78.5L281.5 135.5H306L268.5 62.5L328.5 1H299L238.5 62.5L249 1Z" fill="#3B3C3C"/>
<path d="M197.5 1H175L151.5 135.5H174L197.5 1Z" fill="#3B3C3C"/>
<path d="M22 1H0L9 136H31.5L72 38.5L81.5 136H103L154.5 1H132.5L96 102L87 1H67.5L27 102L22 1Z" fill="#3B3C3C"/>
</svg>
