<svg width="28" height="28" viewBox="0 0 28 28" fill="none" xmlns="http://www.w3.org/2000/svg">
<path d="M11.6667 21C13.7375 20.9996 15.7486 20.3064 17.3799 19.0307L22.5085 24.1594L24.1582 22.5097L19.0295 17.381C20.3059 15.7496 20.9995 13.7381 21 11.6667C21 6.52054 16.8129 2.33337 11.6667 2.33337C6.52054 2.33337 2.33337 6.52054 2.33337 11.6667C2.33337 16.8129 6.52054 21 11.6667 21ZM11.6667 4.66671C15.5272 4.66671 18.6667 7.80621 18.6667 11.6667C18.6667 15.5272 15.5272 18.6667 11.6667 18.6667C7.80621 18.6667 4.66671 15.5272 4.66671 11.6667C4.66671 7.80621 7.80621 4.66671 11.6667 4.66671Z" fill="#365179"/>
</svg>
