<svg width="24" height="24" viewBox="0 0 24 24" fill="none" xmlns="http://www.w3.org/2000/svg">
<g clip-path="url(#clip0)">
<path d="M12 24.0001C18.6274 24.0001 24 18.6275 24 12C24 5.37259 18.6274 0 12 0C5.37259 0 0 5.37259 0 12C0 18.6275 5.37259 24.0001 12 24.0001Z" fill="#E24C4B"/>
<path d="M24 12C24 18.6 18.6 24 12 24C8.17503 24 4.80003 22.275 2.625 19.5001C4.65 21.1501 7.27501 22.1251 10.125 22.1251C16.725 22.1251 22.125 16.7251 22.125 10.125C22.125 7.27507 21.15 4.65006 19.5 2.62506C22.275 4.79998 24 8.17498 24 12Z" fill="#D1403F"/>
<path d="M17.475 17.475C17.025 17.925 16.2749 17.925 15.825 17.475L12 13.65L8.17499 17.475C7.72501 17.925 6.97497 17.925 6.52499 17.475C6.075 17.025 6.075 16.275 6.52499 15.825L10.35 12L6.52499 8.17504C6.075 7.72506 6.075 6.97502 6.52499 6.52503C6.97497 6.07505 7.72501 6.07505 8.17499 6.52503L12 10.35L15.825 6.52503C16.2749 6.07505 17.025 6.07505 17.475 6.52503C17.925 6.97502 17.925 7.72506 17.475 8.17504L13.65 12L17.475 15.825C17.925 16.275 17.925 17.025 17.475 17.475Z" fill="white"/>
</g>
<defs>
<clipPath id="clip0">
<rect width="24" height="24" fill="white"/>
</clipPath>
</defs>
</svg>
