<svg width="24" height="24" viewBox="0 0 24 24" fill="none" xmlns="http://www.w3.org/2000/svg">
<path d="M12 24C18.6274 24 24 18.6274 24 12C24 5.37258 18.6274 0 12 0C5.37258 0 0 5.37258 0 12C0 18.6274 5.37258 24 12 24Z" fill="#32BA7C"/>
<path d="M8.93359 17.4132L15.1039 23.5836C20.2143 22.2208 23.9998 17.5647 23.9998 12C23.9998 11.8864 23.9998 11.7729 23.9998 11.6593L19.1544 7.19243L8.93359 17.4132Z" fill="#0AA06E"/>
<path d="M12.3028 14.6877C12.8328 15.2177 12.8328 16.1262 12.3028 16.6561L11.205 17.7539C10.675 18.2839 9.76651 18.2839 9.23654 17.7539L4.42897 12.9085C3.899 12.3785 3.899 11.47 4.42897 10.9401L5.52676 9.84227C6.05673 9.3123 6.96525 9.3123 7.49522 9.84227L12.3028 14.6877Z" fill="white"/>
<path d="M16.5046 6.32176C17.0346 5.79179 17.9431 5.79179 18.4731 6.32176L19.5708 7.41955C20.1008 7.94952 20.1008 8.85804 19.5708 9.38801L11.2428 17.6782C10.7128 18.2082 9.80429 18.2082 9.27432 17.6782L8.17653 16.5804C7.64656 16.0505 7.64656 15.1419 8.17653 14.612L16.5046 6.32176Z" fill="white"/>
</svg>
