<?xml version="1.0" encoding="UTF-8"?>
<!-- Generator: Adobe Illustrator 25.2.0, SVG Export Plug-In . SVG Version: 6.00 Build 0)  -->
<svg xmlns="http://www.w3.org/2000/svg" xmlns:xlink="http://www.w3.org/1999/xlink" version="1.1" id="Capa_1" x="0px" y="0px" viewBox="0 0 512 512" style="enable-background:new 0 0 512 512;" xml:space="preserve" width="512" height="512">
<g>
	<g>
		<path style="fill:#EC7E96;" d="M293.829,21.664c74.214,8.877,107.896,85.141,120.969,127.313l12.638-4.84    c0,0-36.583-146.65-144.741-144.105C90.279,4.56,80.297,149.261,80.297,149.261l10.997,4.31    C103.331,119.329,152.322,4.738,293.829,21.664z"/>
		<path style="fill:#648F9F;" d="M272.357,65.405c-100.03-9.527-144.989,72.325-155.486,97.541l9.95,5.05    c0,0,51.296-93.675,137.186-83.683s107.363,81.297,107.363,81.297l8.845-3.387C365.768,123.667,334.828,71.354,272.357,65.405z"/>
		<path style="fill:#F7D76F;" d="M293.829,21.664C152.322,4.738,103.331,119.329,91.293,153.571l13.357,5.336    c37.716-87.696,97.39-131.13,181.128-115.478c54.71,12.084,96.375,71.748,113.291,111.573l15.728-6.023    C401.726,106.805,368.043,30.542,293.829,21.664z"/>
		<path style="fill:#A8D5CB;" d="M285.043,43.642C201.305,27.99,142.367,71.21,104.651,158.906l12.22,4.04    c10.497-25.216,55.803-105.247,155.833-95.72c62.471,5.95,90.933,57.717,105.379,96.274l19.429-7.868    C380.597,115.807,341.746,54.241,285.043,43.642z"/>
		<path style="fill:#241726;" d="M96.081,140.357c-0.182,0-0.366-0.041-0.538-0.128c-0.587-0.297-0.825-1.015-0.527-1.603    C139.273,51.072,190.003,17.59,275.835,19.349c102.188,2.043,135.597,113.862,135.923,114.991    c0.182,0.634-0.182,1.294-0.815,1.477c-0.645,0.178-1.293-0.184-1.477-0.815c-0.322-1.113-33.264-111.26-133.677-113.267    c-84.853-1.688-134.872,31.379-178.642,117.967C96.936,140.118,96.517,140.357,96.081,140.357z"/>
		<path style="fill:#241726;" d="M398.03,160.127c-0.494,0-0.955-0.309-1.128-0.803c-0.391-1.133-40.34-113.401-130.124-116.922    C174.76,38.823,137.824,95.151,107.927,153.19c-0.303,0.587-1.021,0.817-1.605,0.514c-0.587-0.302-0.818-1.021-0.515-1.607    c30.249-58.721,67.666-115.775,161.065-112.079c91.419,3.586,131.888,117.376,132.286,118.525    c0.214,0.622-0.114,1.301-0.736,1.517C398.291,160.106,398.16,160.127,398.03,160.127z"/>
		<path style="fill:#241726;" d="M378.258,170.012c-0.55,0-1.046-0.384-1.165-0.945c-0.214-1.007-22.509-100.622-117.468-101.502    c-0.487-0.005-0.986-0.007-1.47-0.007c-94.101,0-134.534,83.842-134.933,84.694c-0.284,0.596-0.997,0.854-1.587,0.573    c-0.596-0.28-0.855-0.99-0.575-1.587c0.405-0.864,41.461-86.066,137.093-86.066c0.499,0,0.993,0.002,1.496,0.007    c96.89,0.898,119.56,102.367,119.779,103.391c0.137,0.644-0.275,1.278-0.92,1.415    C378.426,170.004,378.342,170.012,378.258,170.012z"/>
	</g>
	<path style="fill:#241726;" d="M425.194,491.113c-0.706,0-2.54-0.065-7.647-8.749c-0.603,0.007-1.2,0.012-1.785,0.012   c-10.739,0-11.372-1.1-11.713-1.689c-0.212-0.369-0.207-1.055,0.007-1.425c0.051-0.089,0.112-0.169,0.184-0.241   c0.035-0.036,3.509-3.547,7.773-7.561c-3.25-7.65-2.288-9.124-1.918-9.69c0.37-0.57,0.962-0.883,1.666-0.883   c0.058,0,0.319,0.021,0.38,0.03c1.605,0.242,4.315,1.322,8.055,3.211c5.513-4.599,7.393-5.205,8.416-5.205   c0.748,0,1.358,0.357,1.675,0.977c0.843,1.651,0.729,6.272,0.45,10.13c2.232,1.358,8.038,4.967,9.143,6.39   c0.473,0.613,0.582,1.337,0.298,1.989c-0.305,0.704-1.009,2.323-10.89,3.324c-0.867,4.835-1.817,7.81-2.824,8.85   c-0.331,0.341-0.776,0.53-1.253,0.53C425.206,491.113,425.201,491.113,425.194,491.113z M420.294,482.304   c2.477,4.054,4.019,5.726,4.702,6.248c0.426-0.801,1.104-2.77,1.824-6.598C424.749,482.115,422.54,482.234,420.294,482.304z    M407.095,479.542c1.533,0.24,4.599,0.485,9.101,0.447c-1.132-2.054-2.213-4.183-3.155-6.217   C410.532,476.148,408.356,478.288,407.095,479.542z M414.877,472.049c1.158,2.564,2.565,5.323,4.033,7.905   c2.88-0.064,5.727-0.211,8.332-0.429c0.417-2.626,0.767-5.485,1.002-8.212c-2.644-1.576-5.338-3.088-7.721-4.335   C418.841,468.422,416.946,470.123,414.877,472.049z M430.513,472.691c-0.212,2.209-0.494,4.469-0.82,6.601   c5.461-0.592,7.386-1.326,8.031-1.682C436.844,476.81,434.286,475.018,430.513,472.691z M412.067,463.328   c-0.028,0.595,0.128,2.293,1.808,6.396c1.556-1.439,3.013-2.748,4.35-3.912C414.712,464.086,412.93,463.512,412.067,463.328z    M422.496,465.324c1.88,1.002,3.912,2.141,5.941,3.333c0.245-4.168,0.07-6.371-0.147-7.279   C427.678,461.579,426.122,462.362,422.496,465.324z"/>
	<path style="fill:#241726;" d="M54.432,80.374c-1.014,0-1.51-0.713-1.54-1.375c-0.007-0.103,0.002-0.204,0.023-0.304   c0.009-0.05,1.027-4.882,2.437-10.566c-7.06-4.791-6.913-6.574-6.857-7.259c0.058-0.732,0.515-1.341,1.249-1.672   c1.484-0.666,4.345-1.227,8.514-1.666c2.397-7.688,3.816-9.261,5.305-9.261c0.31,0,0.608,0.08,0.883,0.241   c1.603,0.931,4.012,4.875,5.869,8.269c1.426-0.037,2.794-0.057,4.049-0.057c3.812,0,6.198,0.161,7.095,0.476   c0.729,0.257,1.214,0.807,1.33,1.509c0.123,0.756,0.41,2.499-7.353,8.694c1.89,4.534,2.705,7.549,2.421,8.97   c-0.068,0.345-0.429,1.474-2.151,1.475h-0.002c-2.318,0-6.894-2.097-9.793-3.553C62.747,76.392,56.47,80.374,54.432,80.374z    M57.467,69.515c-0.822,3.359-1.491,6.339-1.873,8.074c1.435-0.635,4.056-2.063,7.894-4.557   C61.421,71.919,59.362,70.715,57.467,69.515z M68.185,72.756c3.861,1.863,6.26,2.618,7.337,2.698   c-0.077-0.906-0.575-2.928-2.041-6.53C71.827,70.184,70.035,71.481,68.185,72.756z M58.076,67.072   c2.363,1.527,5.04,3.084,7.675,4.458c2.384-1.613,4.697-3.281,6.768-4.874c-1.069-2.434-2.325-5.027-3.607-7.445   c-3.075,0.108-6.158,0.297-8.837,0.541C59.443,61.878,58.772,64.334,58.076,67.072z M50.988,61.265   c0.301,0.516,1.351,1.857,4.986,4.397c0.529-2.054,1.044-3.942,1.538-5.645C53.623,60.469,51.813,60.952,50.988,61.265z    M71.568,59.139c1.016,1.971,2.006,4.024,2.884,5.993c4.264-3.452,5.487-5.111,5.836-5.762c-0.762-0.121-2.544-0.26-5.925-0.26   C73.481,59.11,72.542,59.12,71.568,59.139z M63.572,50.836c-0.396,0.5-1.291,2.007-2.735,6.454c2.123-0.176,4.45-0.319,6.799-0.417   C65.587,53.242,64.245,51.485,63.572,50.836z"/>
	<path style="fill:#241726;" d="M25.049,215.137c-0.895,0-1.74,0.001-4.175-9.524c-8.103-1.521-8.812-2.463-9.049-2.778   c-0.224-0.297-0.322-0.848-0.221-1.206c0.142-0.514,0.475-1.706,9.702-5.468c3.281-8.67,4.392-8.67,5.133-8.67   c0.375,0,0.897,0.27,1.121,0.571c0.594,0.79,1.139,2.855,1.969,6.164c0.263,1.048,0.58,2.315,0.76,2.86   c0.482,0.214,1.566,0.598,2.463,0.915c4.748,1.679,5.972,2.25,6.198,3.366c0.082,0.411-0.128,1.019-0.438,1.302   c-0.96,0.868-5.559,2.597-7.959,3.462c-3.872,8.915-4.697,8.963-5.426,9.004C25.1,215.135,25.072,215.137,25.049,215.137z    M14.828,201.794c1.605,0.464,4.611,1.135,7.23,1.611c0.459,0.083,0.829,0.429,0.944,0.882c0.678,2.704,1.568,5.786,2.197,7.504   c0.89-1.605,2.258-4.513,3.367-7.082c0.13-0.304,0.382-0.539,0.694-0.65c2.234-0.797,4.76-1.777,6.295-2.463   c-1.093-0.46-2.619-1-3.6-1.347c-2.707-0.958-3.218-1.165-3.562-1.624c-0.303-0.402-0.494-1.083-1.179-3.82   c-0.266-1.058-0.676-2.691-1.032-3.885c-0.804,1.533-1.943,4.203-2.826,6.566c-0.119,0.313-0.361,0.564-0.671,0.688   C19.788,199.344,16.503,200.837,14.828,201.794z"/>
	<path style="fill:#241726;" d="M470.807,350.687c-0.892,0-1.738,0.001-4.173-9.524c-8.106-1.524-8.812-2.464-9.049-2.78   c-0.224-0.297-0.322-0.847-0.221-1.205c0.142-0.514,0.473-1.706,9.699-5.469c3.281-8.668,4.392-8.668,5.135-8.668   c0.373,0,0.895,0.27,1.121,0.57c0.594,0.791,1.139,2.855,1.969,6.164c0.263,1.048,0.58,2.315,0.76,2.861   c0.482,0.213,1.568,0.598,2.467,0.916c4.744,1.678,5.967,2.248,6.191,3.364c0.082,0.412-0.128,1.021-0.44,1.302   c-0.958,0.868-5.557,2.597-7.954,3.462c-3.875,8.918-4.699,8.963-5.429,9.004C470.858,350.686,470.83,350.687,470.807,350.687z    M460.588,337.343c1.608,0.465,4.611,1.135,7.23,1.612c0.459,0.084,0.829,0.429,0.944,0.882c0.678,2.704,1.568,5.786,2.197,7.504   c0.89-1.605,2.258-4.513,3.367-7.082c0.13-0.303,0.382-0.539,0.694-0.65c2.232-0.798,4.758-1.778,6.295-2.463   c-1.093-0.46-2.617-1-3.597-1.346c-2.71-0.959-3.22-1.166-3.565-1.626c-0.303-0.401-0.494-1.082-1.179-3.821   c-0.266-1.057-0.676-2.691-1.034-3.885c-0.804,1.532-1.943,4.204-2.826,6.568c-0.119,0.312-0.361,0.563-0.671,0.687   C465.548,334.895,462.263,336.386,460.588,337.343z"/>
	<path style="fill:#241726;" d="M417.885,73.756c-0.892,0-1.738,0.001-4.173-9.525c-8.103-1.521-8.812-2.463-9.049-2.778   c-0.224-0.297-0.322-0.847-0.221-1.205c0.142-0.514,0.473-1.706,9.699-5.469c3.278-8.67,4.392-8.67,5.135-8.67   c0.373,0,0.895,0.27,1.121,0.57c0.594,0.792,1.139,2.856,1.969,6.165c0.263,1.048,0.58,2.315,0.76,2.861   c0.482,0.213,1.568,0.598,2.467,0.916c4.744,1.678,5.967,2.248,6.191,3.364c0.082,0.412-0.128,1.021-0.44,1.302   c-0.958,0.867-5.557,2.596-7.957,3.461c-3.87,8.915-4.695,8.963-5.426,9.005C417.939,73.755,417.909,73.756,417.885,73.756z    M407.666,60.412c1.608,0.464,4.611,1.135,7.23,1.611c0.459,0.083,0.829,0.429,0.944,0.882c0.678,2.704,1.568,5.785,2.195,7.504   c0.89-1.605,2.26-4.513,3.367-7.081c0.13-0.304,0.382-0.541,0.694-0.651c2.234-0.797,4.758-1.777,6.295-2.463   c-1.09-0.459-2.614-0.997-3.593-1.344c-2.712-0.959-3.222-1.166-3.567-1.626c-0.303-0.402-0.494-1.083-1.179-3.821   c-0.266-1.057-0.676-2.692-1.034-3.885c-0.804,1.532-1.943,4.204-2.826,6.567c-0.119,0.313-0.361,0.564-0.671,0.688   C412.627,57.964,409.341,59.455,407.666,60.412z"/>
	<path style="fill:#241726;" d="M104.651,51.33c-4.93,0-8.942-4.011-8.942-8.942s4.012-8.942,8.942-8.942s8.942,4.011,8.942,8.942   S109.581,51.33,104.651,51.33z M104.651,35.832c-3.616,0-6.556,2.942-6.556,6.556s2.94,6.556,6.556,6.556s6.556-2.942,6.556-6.556   S108.267,35.832,104.651,35.832z"/>
	<path style="fill:#241726;" d="M487.976,84.935c-4.93,0-8.942-4.011-8.942-8.942c0-4.931,4.012-8.942,8.942-8.942   c4.93,0,8.942,4.011,8.942,8.942C496.919,80.924,492.906,84.935,487.976,84.935z M487.976,69.436c-3.616,0-6.556,2.942-6.556,6.556   c0,3.615,2.94,6.556,6.556,6.556c3.616,0,6.556-2.942,6.556-6.556C494.533,72.378,491.592,69.436,487.976,69.436z"/>
	<path style="fill:#241726;" d="M103.856,512c-4.93,0-8.942-4.011-8.942-8.942s4.012-8.942,8.942-8.942s8.942,4.011,8.942,8.942   S108.786,512,103.856,512z M103.856,496.501c-3.616,0-6.556,2.942-6.556,6.556s2.94,6.556,6.556,6.556s6.556-2.942,6.556-6.556   S107.472,496.501,103.856,496.501z"/>
	<g>
		<path style="fill:#FFFFFF;" d="M69.394,140.589c0,0-3.048-21.515,17.756-14.747c20.804,6.768,14.24,26.558,6.269,19.886    c-7.971-6.672,6.638-29.709,22.605-19.671s12.611,29.853,1.37,31.422s6.589-23.096,20.915-8.11s-16.361,42.863-29.12,32.848    s-3.011-26.475,0.123-16.532c3.134,9.943-4.96,19.802-27.418,19.635s-12.574-34.812-4.628-24.833s-4.972,21.455-20.927,9.764    S58.215,133.893,69.394,140.589z"/>
		<path style="fill:#241726;" d="M82.453,186.516l-0.569-0.002c-9.737-0.072-13.11-6.093-14.278-10.235    c-3.884-0.417-8.003-2.156-11.973-5.065c-6.193-4.54-8.32-11.502-5.834-19.102c2.54-7.764,9.343-13.848,15.487-13.848    c0.958,0,1.883,0.141,2.768,0.421c-0.093-2.911,0.226-8.237,3.327-11.81c3.297-3.797,8.777-4.561,16.137-2.166    c2.943,0.958,5.515,2.22,7.661,3.76c3.544-3.89,8.127-6.1,12.721-6.1c2.985,0,5.932,0.902,8.758,2.679    c6.908,4.342,11.111,11.101,11.44,18.277c4.047,0.01,7.77,1.766,11.072,5.219c4.415,4.619,5.256,10.884,2.37,17.641    c-4.406,10.306-16.454,19.346-25.785,19.346c-2.838,0-5.294-0.799-7.302-2.377c-1.051-0.824-1.994-1.721-2.819-2.677    C100.643,184.433,92.67,186.516,82.453,186.516z M70.126,176.36c1.279,3.797,4.39,7.713,11.778,7.768l0.55,0.002    c11.992,0,18.39-2.882,21.747-5.56c-3.301-5.077-3.124-10.68-1.386-14.144c0.96-1.914,2.349-3.013,3.809-3.013    c0.967,0,2.752,0.509,3.826,3.913c1.589,5.042,0.506,9.811-3.05,13.545c0.734,0.857,1.58,1.665,2.526,2.408    c1.58,1.238,3.539,1.866,5.829,1.866c8.343,0,19.588-8.531,23.59-17.898c1.761-4.119,2.861-10.075-1.899-15.054    c-2.842-2.974-6-4.482-9.383-4.483c-0.527,6.891-4.732,12.144-10.503,12.95c-0.41,0.057-0.788,0.084-1.132,0.084l0,0    c-2.672,0-3.7-1.631-3.767-3.158c-0.182-4.003,5.629-10.817,13.057-12.063c-0.261-6.425-4.063-12.516-10.329-16.455    c-2.442-1.535-4.96-2.314-7.488-2.314c-3.879,0-7.784,1.887-10.862,5.216c5.042,4.586,6.025,10.312,4.685,14.129    c-0.906,2.576-2.856,4.176-5.093,4.178c0,0,0,0-0.002,0c-1.344,0-2.682-0.55-3.977-1.633c-4.341-3.635-2.917-10.913,1.016-16.322    c-1.922-1.358-4.231-2.48-6.885-3.343c-6.328-2.06-10.958-1.576-13.593,1.454c-3.653,4.199-2.626,11.915-2.614,11.992    c0.063,0.455-0.14,0.908-0.522,1.16c-0.384,0.254-0.878,0.266-1.272,0.029c-1.067-0.64-2.244-0.963-3.495-0.963    c-5.089,0-11.018,5.475-13.22,12.204c-2.144,6.555-0.331,12.545,4.979,16.435c3.364,2.466,6.808,4.01,10.051,4.518    c-0.678-5.04,0.559-10.821,3.115-14.024c2.388-2.996,5.601-3.035,7.989-0.038c2.775,3.486,3.43,7.428,1.796,10.817    C78.355,173.968,74.613,176.15,70.126,176.36z M106.624,163.799c-0.398,0-1.093,0.531-1.678,1.696    c-1.34,2.67-1.505,7.229,1.023,11.404c2.686-3.035,3.472-6.841,2.206-10.855C107.652,164.387,107.013,163.799,106.624,163.799z     M74.243,159.876c-0.871,0-1.659,0.758-2.167,1.394c-1.969,2.47-3.376,7.774-2.54,12.72c3.821-0.036,6.999-1.74,8.313-4.465    c1.219-2.53,0.666-5.555-1.517-8.295C75.841,160.612,75.079,159.876,74.243,159.876z M125.646,145.966    c-6.004,1.26-10.72,6.88-10.601,9.513c0.014,0.329,0.04,0.88,1.384,0.88l0,0c0.245,0,0.513-0.02,0.801-0.061    C121.745,155.668,125.07,151.504,125.646,145.966z M95.524,131.819c-3.569,4.929-4.215,10.589-1.34,12.995    c0.841,0.704,1.687,1.076,2.446,1.076l0,0c1.212-0.001,2.274-0.966,2.843-2.583C100.541,140.269,99.681,135.652,95.524,131.819z"/>
	</g>
	<g>
		<path style="fill:#FFFFFF;" d="M36.569,437.862c0,0-2.672-18.862,15.567-12.929c18.239,5.934,12.484,23.284,5.496,17.434    c-6.988-5.85,5.82-26.046,19.818-17.245s11.056,26.172,1.201,27.548s5.777-20.249,18.336-7.11    c12.56,13.138-14.344,37.578-25.53,28.798s-2.64-23.21,0.108-14.493c2.748,8.717-4.349,17.361-24.037,17.214    c-19.689-0.147-11.024-30.52-4.057-21.772s-4.359,18.81-18.347,8.56S26.768,431.991,36.569,437.862z"/>
		<path style="fill:#241726;" d="M48.02,478.273l-0.501-0.002c-6.438-0.048-10.995-3.309-12.631-8.984    c-3.402-0.387-7.001-1.918-10.471-4.458c-5.485-4.02-7.367-10.184-5.165-16.912c2.246-6.864,8.269-12.241,13.716-12.241    c0.783,0,1.542,0.106,2.272,0.316c-0.058-2.613,0.28-7.165,2.961-10.25c2.931-3.376,7.791-4.058,14.303-1.942    c2.547,0.828,4.779,1.916,6.65,3.241c3.122-3.381,7.141-5.299,11.174-5.299c2.642,0,5.252,0.798,7.756,2.372    c6.051,3.805,9.751,9.716,10.089,16.003c3.537,0.049,6.792,1.603,9.676,4.62c3.914,4.095,4.662,9.645,2.104,15.626    c-3.882,9.082-14.508,17.05-22.74,17.05c-2.521,0-4.706-0.712-6.493-2.116c-0.89-0.697-1.692-1.455-2.4-2.261    C63.912,476.466,56.934,478.272,48.02,478.273z M37.414,469.359c1.144,3.221,3.854,6.48,10.124,6.526l0.482,0.002    c10.35-0.001,15.918-2.451,18.868-4.76c-2.852-4.469-2.679-9.384-1.151-12.432c0.869-1.73,2.134-2.723,3.472-2.723    c0.89,0,2.526,0.459,3.495,3.533c1.375,4.362,0.419,8.648-2.619,11.921c0.617,0.708,1.323,1.376,2.109,1.992    c1.358,1.066,3.048,1.607,5.021,1.607c7.262,0,17.055-7.437,20.548-15.602c1.526-3.571,2.481-8.731-1.636-13.038    c-2.425-2.537-5.112-3.844-7.987-3.884c-0.51,6.043-4.229,10.64-9.322,11.35c-0.366,0.051-0.704,0.075-1.011,0.075    c-0.002,0-0.002,0-0.002,0c-2.446,0-3.385-1.502-3.451-2.908c-0.158-3.537,4.921-9.541,11.442-10.705    c-0.273-5.538-3.572-10.781-8.982-14.181c-5.329-3.354-11.398-2.264-15.799,2.411c4.376,4.049,5.221,9.08,4.038,12.445    c-1.305,3.708-5.084,4.894-8.187,2.293c-3.84-3.215-2.642-9.602,0.778-14.387c-1.647-1.144-3.618-2.092-5.874-2.826    c-5.529-1.798-9.476-1.399-11.766,1.237c-3.166,3.645-2.262,10.323-2.253,10.389c0.065,0.456-0.137,0.908-0.522,1.161    c-0.387,0.254-0.878,0.266-1.272,0.029c-0.913-0.546-1.918-0.824-2.987-0.824c-4.401,0-9.539,4.754-11.449,10.598    c-0.881,2.689-2.22,9.458,4.31,14.245c2.863,2.099,5.792,3.431,8.555,3.903c-0.541-4.409,0.557-9.416,2.787-12.21    c1.076-1.35,2.339-2.064,3.649-2.064c0.897,0,2.246,0.352,3.583,2.032c2.472,3.101,3.052,6.615,1.594,9.638    C44.557,467.189,41.314,469.119,37.414,469.359z M69.208,458.358c-0.254,0-0.82,0.374-1.34,1.406    c-1.137,2.268-1.291,6.117,0.788,9.681c2.211-2.596,2.845-5.822,1.773-9.222C69.963,458.748,69.427,458.358,69.208,458.358z     M40.82,454.918c-0.55,0-1.184,0.414-1.785,1.166c-1.689,2.119-2.898,6.652-2.218,10.912c3.239-0.068,5.918-1.523,7.032-3.83    c1.044-2.166,0.566-4.759-1.312-7.116C42.127,455.533,41.493,454.918,40.82,454.918z M85.715,442.761    c-5.34,1.198-9.068,6.172-8.98,8.149c0.012,0.267,0.03,0.63,1.067,0.63l0,0c0.207,0,0.436-0.017,0.683-0.051    C82.323,450.953,85.161,447.448,85.715,442.761z M59.499,430.393c-2.999,4.228-3.537,9.021-1.102,11.059    c1.834,1.537,3.625,0.959,4.404-1.255C63.709,437.61,62.992,433.688,59.499,430.393z"/>
	</g>
	<g>
		<path style="fill:#FFFFFF;" d="M376.342,149.094c0,0-3.048-21.515,17.756-14.747c20.804,6.768,14.24,26.558,6.269,19.886    c-7.971-6.672,6.638-29.709,22.605-19.671c15.967,10.039,12.611,29.853,1.37,31.422s6.589-23.096,20.915-8.11    c14.326,14.986-16.361,42.863-29.12,32.848c-12.759-10.015-3.011-26.475,0.123-16.532c3.134,9.943-4.96,19.802-27.418,19.635    c-22.457-0.167-12.574-34.812-4.628-24.833c7.947,9.979-4.973,21.455-20.927,9.764S365.162,142.397,376.342,149.094z"/>
		<path style="fill:#241726;" d="M389.407,195.02l-0.573-0.002c-9.737-0.072-13.11-6.093-14.278-10.234    c-3.884-0.417-8.006-2.158-11.976-5.066c-6.193-4.54-8.32-11.503-5.832-19.103c2.54-7.764,9.343-13.847,15.485-13.847    c0.958,0,1.883,0.141,2.768,0.421c-0.093-2.911,0.226-8.237,3.327-11.81c3.297-3.798,8.777-4.56,16.137-2.166    c2.945,0.958,5.515,2.22,7.661,3.762c3.546-3.891,8.127-6.101,12.724-6.101c2.982,0,5.93,0.902,8.758,2.679    c6.906,4.342,11.109,11.101,11.438,18.277c4.047,0.01,7.773,1.766,11.074,5.219c4.415,4.619,5.256,10.884,2.367,17.641    c-4.406,10.306-16.454,19.346-25.785,19.346c-2.838,0-5.294-0.799-7.302-2.377c-1.051-0.824-1.994-1.721-2.819-2.677    C407.592,192.937,399.619,195.02,389.407,195.02z M377.074,184.864c1.279,3.797,4.39,7.713,11.778,7.768l0.555,0.002    c11.987,0,18.385-2.881,21.741-5.559c-3.302-5.077-3.122-10.68-1.384-14.144c0.96-1.915,2.349-3.013,3.807-3.013    c0.969,0,2.754,0.508,3.826,3.912c1.589,5.042,0.506,9.811-3.05,13.545c0.734,0.857,1.58,1.665,2.526,2.407    c1.58,1.24,3.539,1.867,5.829,1.867c8.343,0,19.588-8.531,23.593-17.898c1.759-4.119,2.861-10.075-1.899-15.054    c-2.843-2.974-6-4.483-9.385-4.483c-0.527,6.891-4.73,12.144-10.503,12.95c-3.593,0.5-4.821-1.351-4.9-3.073    c-0.179-4.002,5.631-10.816,13.059-12.064c-0.263-6.425-4.066-12.516-10.331-16.455c-2.439-1.535-4.96-2.314-7.486-2.314    c-3.882,0-7.787,1.887-10.862,5.217c5.042,4.586,6.025,10.312,4.683,14.13c-0.906,2.575-2.856,4.175-5.091,4.175c0,0,0,0-0.002,0    c-1.344,0-2.682-0.55-3.977-1.633c-4.341-3.635-2.917-10.912,1.016-16.321c-1.922-1.358-4.233-2.481-6.887-3.345    c-6.33-2.061-10.962-1.575-13.597,1.46c-3.66,4.215-2.621,11.908-2.61,11.985c0.065,0.456-0.137,0.908-0.522,1.161    c-0.384,0.253-0.878,0.267-1.272,0.029c-1.067-0.64-2.244-0.963-3.495-0.963c-5.086,0-11.016,5.474-13.218,12.203    c-2.146,6.556-0.331,12.547,4.977,16.436c3.367,2.467,6.81,4.01,10.054,4.518c-0.678-5.04,0.559-10.822,3.113-14.024    c2.391-2.996,5.599-3.035,7.989-0.038c2.775,3.486,3.43,7.428,1.796,10.817C385.301,182.472,381.559,184.654,377.074,184.864z     M413.57,172.304c-0.396,0-1.09,0.53-1.675,1.696c-1.34,2.67-1.505,7.227,1.021,11.403c2.684-3.035,3.472-6.841,2.206-10.855    C414.6,172.892,413.959,172.304,413.57,172.304z M381.189,168.38c-0.869,0-1.657,0.758-2.164,1.394    c-1.969,2.47-3.376,7.773-2.54,12.72c3.819-0.037,6.997-1.74,8.311-4.465c1.219-2.53,0.666-5.555-1.517-8.295    C382.787,169.116,382.025,168.38,381.189,168.38z M432.592,154.47c-6.004,1.263-10.72,6.881-10.601,9.514    c0.016,0.329,0.04,0.878,1.384,0.878c0.245,0,0.513-0.02,0.802-0.061C428.691,164.172,432.019,160.009,432.592,154.47z     M402.475,140.326c-3.164,4.415-4.534,10.32-1.342,12.992c2.178,1.828,4.362,1.125,5.287-1.505    C407.487,148.776,406.629,144.16,402.475,140.326z"/>
	</g>
	<g>
		<path style="fill:#FFFFFF;" d="M430.828,382.337c0,0-2.672-18.862,15.567-12.929c18.239,5.934,12.484,23.284,5.496,17.434    c-6.988-5.85,5.82-26.046,19.818-17.245c13.999,8.801,11.056,26.172,1.201,27.548c-9.855,1.376,5.777-20.249,18.336-7.11    c12.56,13.138-14.344,37.578-25.53,28.798c-11.186-8.78-2.64-23.21,0.108-14.493c2.748,8.717-4.349,17.361-24.037,17.214    c-19.689-0.147-11.024-30.52-4.057-21.772c6.967,8.748-4.359,18.81-18.347,8.56C405.395,398.091,421.027,376.466,430.828,382.337z    "/>
		<path style="fill:#241726;" d="M442.277,422.748l-0.501-0.002c-6.438-0.048-10.995-3.309-12.631-8.984    c-3.402-0.388-7.001-1.918-10.468-4.458c-5.485-4.019-7.37-10.183-5.168-16.911c2.246-6.865,8.271-12.243,13.716-12.243    c0.785,0,1.545,0.106,2.274,0.316c-0.058-2.613,0.28-7.164,2.959-10.25c2.936-3.377,7.796-4.059,14.303-1.942    c2.547,0.828,4.779,1.918,6.65,3.242c3.124-3.382,7.144-5.299,11.177-5.299c2.642,0,5.252,0.797,7.754,2.371    c6.053,3.805,9.753,9.716,10.091,16.003c3.534,0.049,6.789,1.603,9.674,4.62c3.914,4.095,4.662,9.645,2.106,15.626    c-3.882,9.082-14.508,17.05-22.74,17.05c-2.521,0-4.706-0.712-6.493-2.114c-0.89-0.698-1.692-1.456-2.4-2.261    C458.174,420.941,451.194,422.747,442.277,422.748z M431.671,413.833c1.144,3.221,3.854,6.48,10.124,6.526l0.482,0.002    c10.352-0.001,15.92-2.451,18.87-4.76c-2.852-4.469-2.682-9.385-1.151-12.434c0.869-1.73,2.132-2.721,3.472-2.721    c0.888,0,2.523,0.459,3.493,3.533c1.377,4.362,0.419,8.647-2.617,11.921c0.617,0.708,1.323,1.376,2.109,1.993    c1.358,1.065,3.048,1.605,5.021,1.605c7.262,0,17.055-7.437,20.545-15.602c1.526-3.571,2.481-8.731-1.636-13.038    c-2.425-2.537-5.112-3.843-7.985-3.884c-0.513,6.044-4.231,10.64-9.324,11.35c-3.253,0.452-4.39-1.25-4.462-2.832    c-0.161-3.537,4.921-9.541,11.442-10.706c-0.273-5.538-3.572-10.781-8.982-14.181c-5.329-3.352-11.398-2.266-15.799,2.413    c4.373,4.048,5.219,9.079,4.035,12.444c-0.815,2.318-2.579,3.759-4.602,3.759h-0.002c-1.214,0-2.418-0.493-3.581-1.466    c-3.84-3.214-2.642-9.602,0.778-14.387c-1.65-1.144-3.621-2.093-5.876-2.827c-5.522-1.799-9.469-1.401-11.759,1.231    c-3.159,3.629-2.267,10.33-2.258,10.397c0.063,0.454-0.14,0.906-0.522,1.159c-0.387,0.256-0.881,0.264-1.272,0.03    c-0.913-0.548-1.918-0.825-2.989-0.825c-4.401,0-9.536,4.754-11.449,10.599c-0.878,2.689-2.22,9.458,4.313,14.244    c2.863,2.099,5.79,3.431,8.553,3.903c-0.541-4.409,0.559-9.416,2.787-12.21c1.079-1.351,2.339-2.064,3.649-2.064    c0.897,0,2.246,0.352,3.586,2.032c2.47,3.101,3.05,6.615,1.591,9.638C438.815,411.663,435.572,413.593,431.671,413.833z     M463.468,402.833c-0.256,0-0.822,0.374-1.34,1.406c-1.137,2.268-1.291,6.116,0.788,9.681c2.211-2.597,2.842-5.822,1.771-9.222    C464.22,403.222,463.685,402.833,463.468,402.833z M435.078,399.393c-0.55,0-1.181,0.414-1.782,1.166    c-1.689,2.119-2.901,6.652-2.218,10.912c3.236-0.068,5.916-1.521,7.029-3.83c1.044-2.166,0.566-4.759-1.312-7.116    C436.385,400.008,435.753,399.393,435.078,399.393z M479.973,387.235c-5.338,1.199-9.066,6.172-8.977,8.15    c0.012,0.266,0.028,0.63,1.065,0.629c0.207,0,0.436-0.017,0.683-0.051C476.581,395.427,479.418,391.922,479.973,387.235z     M453.759,374.869c-3.001,4.228-3.537,9.021-1.102,11.059c0.711,0.594,1.419,0.909,2.048,0.909l0,0    c0.997,0,1.876-0.81,2.353-2.164C457.967,382.085,457.249,378.162,453.759,374.869z"/>
	</g>
	<path style="fill:#241726;" d="M476.089,242.379c-0.007,0-0.014,0-0.021,0c-1.959-0.036-3.623-0.133-4.837-0.225   c-0.657-0.05-1.149-0.623-1.1-1.28c0.051-0.657,0.631-1.141,1.281-1.099c1.177,0.09,2.794,0.184,4.697,0.218   c0.659,0.012,1.184,0.556,1.172,1.215C477.27,241.86,476.739,242.379,476.089,242.379z M480.861,242.326   c-0.638,0-1.167-0.503-1.193-1.145c-0.026-0.658,0.487-1.214,1.146-1.24c1.596-0.064,3.171-0.179,4.683-0.344   c0.617-0.064,1.242,0.402,1.314,1.057s-0.401,1.244-1.058,1.315c-1.563,0.17-3.194,0.29-4.846,0.355   C480.891,242.326,480.877,242.326,480.861,242.326z M490.343,241.268c-0.557,0-1.058-0.395-1.167-0.963   c-0.128-0.647,0.294-1.273,0.941-1.4c1.594-0.312,3.108-0.692,4.504-1.13c0.627-0.193,1.298,0.153,1.493,0.781   c0.198,0.629-0.151,1.299-0.781,1.496c-1.477,0.465-3.08,0.867-4.76,1.195C490.497,241.261,490.42,241.268,490.343,241.268z    M499.414,238.35c-0.438,0-0.862-0.243-1.069-0.665c-0.291-0.591-0.049-1.306,0.541-1.597c1.431-0.706,2.714-1.511,3.816-2.393   c0.52-0.41,1.267-0.325,1.678,0.186c0.41,0.515,0.329,1.266-0.186,1.678c-1.237,0.989-2.668,1.886-4.25,2.668   C499.773,238.31,499.591,238.35,499.414,238.35z M506.714,232.373c-0.238,0-0.475-0.07-0.683-0.216   c-0.541-0.377-0.673-1.121-0.296-1.66c0.834-1.193,1.475-2.514,1.906-3.929c0.193-0.629,0.864-0.993,1.489-0.792   c0.631,0.192,0.986,0.859,0.794,1.489c-0.506,1.654-1.256,3.201-2.232,4.598C507.459,232.195,507.089,232.373,506.714,232.373z    M509.526,223.423c-0.012,0-0.026,0-0.04-0.001c-0.657-0.021-1.174-0.572-1.153-1.23l0.009-0.615c0-1.229-0.114-2.543-0.336-3.906   c-0.107-0.65,0.333-1.263,0.983-1.37c0.634-0.106,1.263,0.332,1.37,0.986c0.245,1.489,0.368,2.932,0.368,4.291l-0.009,0.692   C510.698,222.914,510.166,223.423,509.526,223.423z M508.097,214.028c-0.522,0-1-0.344-1.149-0.869   c-0.443-1.569-0.913-3.062-1.412-4.476c-0.219-0.622,0.107-1.302,0.729-1.521c0.624-0.221,1.305,0.11,1.521,0.729   c0.513,1.461,1.002,3,1.459,4.62c0.179,0.634-0.191,1.293-0.825,1.473C508.314,214.014,508.205,214.028,508.097,214.028z    M504.912,205.043c-0.457,0-0.895-0.266-1.09-0.712c-0.65-1.471-1.347-2.875-2.071-4.169c-0.322-0.575-0.116-1.302,0.459-1.624   c0.571-0.319,1.3-0.117,1.624,0.459c0.76,1.361,1.491,2.831,2.169,4.372c0.268,0.602-0.007,1.307-0.608,1.573   C505.236,205.011,505.073,205.043,504.912,205.043z M478.386,197.673c-0.007,0-0.014,0-0.021,0c-0.862,0-1.657-0.073-2.353-0.217   c-0.645-0.133-1.062-0.764-0.927-1.41c0.13-0.647,0.776-1.051,1.407-0.927c0.545,0.114,1.191,0.22,1.894,0.168   c0.75,0,1.568-0.066,2.435-0.197c0.648-0.075,1.26,0.351,1.356,1.003c0.098,0.651-0.349,1.258-1.002,1.357   C480.192,197.598,479.255,197.673,478.386,197.673z M500.234,196.751c-0.368,0-0.734-0.171-0.967-0.493   c-0.937-1.294-1.929-2.476-2.95-3.512c-0.461-0.469-0.457-1.224,0.014-1.687c0.464-0.46,1.223-0.458,1.687,0.014   c1.104,1.121,2.174,2.395,3.183,3.785c0.387,0.534,0.266,1.28-0.268,1.666C500.723,196.678,500.479,196.751,500.234,196.751z    M485.625,196.303c-0.494,0-0.958-0.31-1.128-0.804c-0.214-0.623,0.116-1.302,0.739-1.517c1.431-0.493,2.849-1.107,4.215-1.822   c0.585-0.31,1.305-0.079,1.612,0.503c0.305,0.584,0.079,1.305-0.503,1.61c-1.475,0.771-3.003,1.432-4.546,1.964   C485.886,196.282,485.754,196.303,485.625,196.303z M473.452,194.342c-0.084,0-0.165-0.008-0.249-0.026   c-0.643-0.136-1.055-0.769-0.92-1.414c0.109-0.518,0.324-1.066,0.634-1.627c0.608-1.094,1.358-2.088,2.232-2.952   c0.471-0.462,1.226-0.46,1.687,0.009c0.464,0.468,0.459,1.223-0.009,1.687c-0.713,0.705-1.326,1.517-1.822,2.414   c-0.196,0.353-0.326,0.677-0.387,0.963C474.498,193.958,474.001,194.342,473.452,194.342z M494.06,191.894   c-0.366,0-0.729-0.169-0.962-0.488c-0.324-0.443-0.298-1.032,0.026-1.442c-0.093-0.034-0.184-0.079-0.268-0.137   c-1.288-0.878-2.619-1.565-3.956-2.042c-0.62-0.22-0.944-0.903-0.722-1.524c0.219-0.62,0.902-0.946,1.524-0.722   c1.528,0.545,3.043,1.325,4.497,2.317c0.294,0.199,0.471,0.507,0.513,0.833c0.748-0.615,1.456-1.262,2.123-1.93   c0.461-0.467,1.216-0.472,1.687-0.007c0.466,0.465,0.471,1.22,0.005,1.688c-1.142,1.151-2.407,2.237-3.76,3.225   C494.551,191.82,494.304,191.894,494.06,191.894z M479.964,187.789c-0.478,0-0.93-0.29-1.114-0.763   c-0.235-0.615,0.07-1.305,0.685-1.542c1.533-0.593,3.173-0.894,4.872-0.894c0.007,0,0.238,0.002,0.245,0.002   c0.657,0.01,1.184,0.552,1.174,1.212c-0.009,0.652-0.543,1.174-1.193,1.174c-0.009,0-0.026,0-0.04,0   c-1.603,0-2.945,0.247-4.201,0.73C480.253,187.764,480.106,187.789,479.964,187.789z M500.737,185.139   c-0.238,0-0.475-0.07-0.685-0.216c-0.538-0.379-0.671-1.122-0.291-1.661c0.874-1.25,1.636-2.577,2.26-3.943   c0.277-0.6,0.988-0.862,1.582-0.588c0.599,0.274,0.862,0.982,0.589,1.581c-0.687,1.498-1.519,2.951-2.479,4.319   C501.483,184.962,501.112,185.139,500.737,185.139z M504.689,176.517c-0.096,0-0.196-0.012-0.294-0.037   c-0.638-0.162-1.025-0.812-0.862-1.45c0.366-1.439,0.613-2.952,0.734-4.496c0.049-0.659,0.648-1.152,1.281-1.097   c0.657,0.051,1.146,0.624,1.095,1.281c-0.13,1.68-0.398,3.329-0.799,4.901C505.707,176.158,505.222,176.517,504.689,176.517z    M505.455,167.055c-0.62,0-1.142-0.48-1.188-1.108c-0.086-1.21-0.242-2.458-0.466-3.707l-0.161-0.871   c-0.128-0.647,0.291-1.274,0.939-1.403c0.631-0.126,1.272,0.294,1.4,0.939c0.061,0.305,0.119,0.614,0.172,0.925   c0.235,1.322,0.403,2.653,0.496,3.947c0.047,0.657-0.447,1.228-1.104,1.274C505.514,167.054,505.486,167.055,505.455,167.055z    M503.659,157.704c-0.51,0-0.983-0.33-1.142-0.843c-0.466-1.525-1.011-2.98-1.617-4.322c-0.27-0.6-0.002-1.307,0.596-1.577   c0.601-0.27,1.305-0.005,1.58,0.596c0.645,1.434,1.226,2.982,1.724,4.604c0.191,0.63-0.163,1.297-0.792,1.49   C503.892,157.688,503.775,157.704,503.659,157.704z M499.698,149.065c-0.387,0-0.767-0.189-0.995-0.536   c-0.85-1.288-1.806-2.478-2.838-3.534c-0.461-0.472-0.452-1.227,0.019-1.687c0.475-0.46,1.228-0.451,1.687,0.019   c1.139,1.165,2.19,2.473,3.122,3.889c0.363,0.55,0.212,1.291-0.338,1.653C500.152,149.001,499.924,149.065,499.698,149.065z    M458.894,148.971c-2.439,0-3.315-1.228-3.315-2.378c0-0.751,0.356-1.526,1.09-2.368c0.431-0.497,1.186-0.549,1.682-0.117   s0.55,1.186,0.117,1.682c-0.319,0.368-0.438,0.603-0.48,0.72c0.126-0.015,0.377,0.073,0.925,0.075c0.648,0,1.298,0.517,1.312,1.166   c0.014,0.648-0.373,1.187-1.021,1.215L458.894,148.971z M463.754,147.797c-0.464,0-0.904-0.271-1.097-0.726   c-0.259-0.606,0.023-1.307,0.629-1.565c1.349-0.574,2.665-1.322,3.914-2.224c0.534-0.387,1.279-0.268,1.666,0.269   c0.387,0.534,0.266,1.279-0.268,1.665c-1.393,1.005-2.866,1.842-4.376,2.485C464.069,147.767,463.911,147.797,463.754,147.797z    M461.306,143.26c-0.401,0-0.792-0.203-1.018-0.57c-0.342-0.562-0.168-1.297,0.396-1.64c1.344-0.824,2.831-1.577,4.42-2.238   c0.613-0.246,1.307,0.034,1.561,0.644c0.252,0.608-0.035,1.306-0.643,1.56c-1.477,0.613-2.852,1.308-4.094,2.068   C461.734,143.203,461.52,143.26,461.306,143.26z M493.056,142.314c-0.228,0-0.457-0.064-0.659-0.199   c-1.246-0.826-2.591-1.527-4-2.082c-0.613-0.242-0.913-0.934-0.671-1.548c0.242-0.614,0.934-0.91,1.547-0.672   c1.563,0.616,3.059,1.396,4.443,2.315c0.55,0.363,0.699,1.104,0.336,1.653C493.82,142.126,493.44,142.314,493.056,142.314z    M471.443,142.261c-0.284,0-0.571-0.101-0.799-0.308c-0.489-0.442-0.529-1.196-0.086-1.685c0.291-0.323,0.573-0.656,0.843-0.997   c-0.338,0.08-0.676,0.167-1.014,0.257c-0.629,0.171-1.291-0.205-1.461-0.842c-0.172-0.636,0.205-1.291,0.841-1.462   c1.17-0.315,2.358-0.574,3.544-0.774c0.361-0.443,1.002-0.575,1.514-0.278c0.049,0.028,0.098,0.061,0.142,0.094   c0.496,0.091,0.899,0.492,0.969,1.018c0.086,0.654-0.375,1.253-1.027,1.339c-0.049,0.007-0.098,0.013-0.144,0.02   c-0.72,1.145-1.535,2.226-2.437,3.223C472.093,142.129,471.769,142.261,471.443,142.261z M484.255,138.812   c-0.072,0-0.144-0.006-0.219-0.02c-1.461-0.269-2.989-0.417-4.546-0.44c-0.657-0.009-1.184-0.552-1.174-1.21   c0.009-0.652,0.543-1.175,1.193-1.175c0.005,0,0.012,0,0.019,0c1.687,0.024,3.35,0.186,4.942,0.48   c0.648,0.12,1.076,0.742,0.958,1.39C485.32,138.41,484.819,138.812,484.255,138.812z M476.138,134.041   c-0.119,0-0.242-0.017-0.361-0.056c-0.629-0.199-0.976-0.87-0.776-1.498c0.447-1.41,0.767-2.901,0.951-4.435   c0.077-0.655,0.725-1.117,1.323-1.044c0.655,0.078,1.123,0.671,1.044,1.326c-0.198,1.682-0.55,3.324-1.044,4.875   C477.114,133.717,476.644,134.041,476.138,134.041z M477.294,124.625c-0.636,0-1.163-0.5-1.191-1.139   c-0.068-1.481-0.245-3.021-0.524-4.579c-0.117-0.648,0.315-1.269,0.962-1.385c0.655-0.114,1.267,0.313,1.386,0.963   c0.298,1.661,0.487,3.309,0.557,4.894c0.03,0.658-0.478,1.216-1.137,1.245C477.329,124.625,477.31,124.625,477.294,124.625z    M475.625,115.256c-0.506,0-0.976-0.324-1.137-0.833c-0.48-1.514-1.062-2.931-1.733-4.209c-0.305-0.584-0.079-1.305,0.503-1.61   c0.585-0.308,1.305-0.08,1.612,0.503c0.734,1.401,1.37,2.947,1.892,4.596c0.198,0.628-0.149,1.298-0.776,1.497   C475.865,115.239,475.744,115.256,475.625,115.256z M471.168,106.898c-0.338,0-0.673-0.143-0.909-0.421   c-0.974-1.147-2.078-2.163-3.283-3.018c-0.536-0.382-0.662-1.127-0.28-1.664c0.384-0.537,1.13-0.661,1.664-0.282   c1.365,0.972,2.617,2.121,3.716,3.419c0.426,0.503,0.366,1.256-0.137,1.682C471.716,106.805,471.441,106.898,471.168,106.898z    M431.014,104.771c-0.447,0-0.878-0.254-1.081-0.687c-0.277-0.596-0.021-1.306,0.575-1.586c0.072-0.034,1.785-0.833,4.553-1.806   c0.622-0.224,1.302,0.11,1.521,0.729c0.219,0.622-0.107,1.304-0.729,1.521c-2.647,0.93-4.317,1.708-4.334,1.715   C431.357,104.734,431.184,104.771,431.014,104.771z M440.015,101.586c-0.524,0-1.007-0.348-1.151-0.878   c-0.172-0.635,0.2-1.292,0.836-1.466c1.605-0.439,3.201-0.811,4.741-1.104c0.631-0.122,1.272,0.301,1.396,0.948   c0.124,0.648-0.301,1.272-0.948,1.396c-1.479,0.282-3.013,0.64-4.56,1.062C440.225,101.572,440.117,101.586,440.015,101.586z    M463.484,101.415c-0.147,0-0.296-0.027-0.44-0.084c-1.347-0.536-2.812-0.949-4.357-1.231c-0.648-0.118-1.076-0.739-0.96-1.386   c0.119-0.65,0.748-1.082,1.389-0.96c1.696,0.309,3.315,0.767,4.809,1.36c0.613,0.243,0.911,0.938,0.669,1.549   C464.407,101.131,463.957,101.415,463.484,101.415z M449.388,99.823c-0.608,0-1.128-0.462-1.186-1.081   c-0.061-0.656,0.419-1.237,1.076-1.299c1.689-0.16,3.32-0.223,4.911-0.182c0.657,0.017,1.177,0.566,1.16,1.224   c-0.019,0.648-0.548,1.161-1.193,1.161c-0.009,0-0.021,0-0.033,0l-0.883-0.012c-1.202,0-2.458,0.062-3.74,0.182   C449.465,99.822,449.428,99.823,449.388,99.823z"/>
	<path style="fill:#241726;" d="M110.117,431.631c-0.62,0-1.144-0.481-1.188-1.111l-0.021-0.304   c-0.044-0.657,0.452-1.227,1.109-1.272c0.636-0.04,1.226,0.45,1.272,1.109l0.021,0.304c0.044,0.657-0.452,1.227-1.109,1.272   C110.173,431.629,110.145,431.631,110.117,431.631z M109.555,426.591c-0.575,0-1.083-0.419-1.177-1.007   c-0.252-1.589-0.578-3.11-0.969-4.525c-0.177-0.635,0.193-1.292,0.829-1.469c0.648-0.171,1.291,0.197,1.468,0.831   c0.417,1.5,0.764,3.113,1.03,4.79c0.103,0.651-0.342,1.262-0.993,1.364C109.681,426.586,109.618,426.591,109.555,426.591z    M106.955,417.449c-0.454,0-0.89-0.261-1.088-0.704c-0.643-1.432-1.396-2.755-2.232-3.934c-0.382-0.537-0.256-1.281,0.282-1.664   c0.529-0.382,1.281-0.256,1.661,0.282c0.927,1.305,1.757,2.764,2.465,4.337c0.27,0.6,0.002,1.307-0.599,1.577   C107.286,417.416,107.12,417.449,106.955,417.449z M101.433,409.774c-0.282,0-0.564-0.099-0.79-0.299   c-1.1-0.972-2.339-1.834-3.679-2.562c-0.58-0.315-0.795-1.038-0.48-1.617c0.317-0.58,1.046-0.791,1.617-0.48   c1.5,0.813,2.887,1.78,4.122,2.872c0.494,0.436,0.541,1.189,0.105,1.683C102.09,409.637,101.762,409.774,101.433,409.774z    M93.143,405.207c-0.121,0-0.245-0.019-0.366-0.057c-1.361-0.438-2.866-0.8-4.469-1.076c-0.648-0.112-1.086-0.728-0.974-1.378   c0.112-0.65,0.715-1.083,1.379-0.973c1.712,0.295,3.327,0.684,4.795,1.156c0.627,0.202,0.972,0.874,0.769,1.502   C94.117,404.885,93.646,405.207,93.143,405.207z M50.41,404.705c-0.652,0-1.186-0.525-1.193-1.18   c-0.007-0.658,0.522-1.199,1.179-1.206c1.561-0.017,3.141-0.068,4.727-0.141c0.643-0.035,1.214,0.479,1.244,1.137   s-0.478,1.216-1.137,1.247c-1.615,0.073-3.218,0.126-4.807,0.143C50.419,404.705,50.415,404.705,50.41,404.705z M45.643,404.642   c-0.016,0-0.033,0-0.049-0.001c-1.703-0.07-3.334-0.195-4.846-0.37c-0.655-0.076-1.123-0.668-1.048-1.322   c0.077-0.656,0.68-1.126,1.323-1.047c1.454,0.169,3.024,0.289,4.669,0.356c0.659,0.027,1.17,0.582,1.144,1.241   C46.808,404.14,46.279,404.642,45.643,404.642z M59.944,404.295c-0.624,0-1.149-0.485-1.191-1.116   c-0.042-0.657,0.457-1.224,1.114-1.267l4.755-0.323c0.636-0.024,1.226,0.451,1.272,1.109c0.044,0.657-0.452,1.227-1.109,1.272   l-4.765,0.323C59.995,404.294,59.97,404.295,59.944,404.295z M69.469,403.659c-0.627,0-1.153-0.488-1.191-1.121   c-0.04-0.658,0.461-1.223,1.118-1.263c1.612-0.098,3.215-0.181,4.8-0.236c0.65-0.101,1.209,0.49,1.235,1.15   c0.023,0.658-0.492,1.21-1.151,1.234c-1.566,0.056-3.145,0.139-4.739,0.234C69.515,403.658,69.492,403.659,69.469,403.659z    M83.777,403.527c-0.03,0-0.061-0.001-0.091-0.004c-1.526-0.112-3.092-0.165-4.688-0.177c-0.657-0.005-1.188-0.543-1.184-1.201   c0.005-0.656,0.538-1.185,1.193-1.185c0.002,0,0.005,0,0.009,0c1.747,0.013,3.334,0.072,4.846,0.184   c0.657,0.048,1.149,0.62,1.102,1.277C84.919,403.048,84.394,403.527,83.777,403.527z M36.181,403.496   c-0.084,0-0.172-0.009-0.259-0.028c-1.668-0.372-3.26-0.836-4.732-1.384c-0.617-0.229-0.932-0.917-0.704-1.534   c0.231-0.615,0.925-0.934,1.533-0.702c1.372,0.51,2.859,0.945,4.42,1.291c0.643,0.143,1.048,0.781,0.906,1.424   C37.223,403.117,36.729,403.496,36.181,403.496z M27.297,400.133c-0.205,0-0.41-0.051-0.599-0.161   c-1.452-0.842-2.817-1.822-4.059-2.91c-0.496-0.435-0.545-1.187-0.112-1.683s1.188-0.542,1.682-0.111   c1.128,0.987,2.367,1.874,3.686,2.64c0.571,0.331,0.764,1.061,0.433,1.631C28.108,399.92,27.707,400.133,27.297,400.133z    M20.112,393.931c-0.336,0-0.669-0.141-0.904-0.416c-1.123-1.306-2.127-2.62-2.985-3.905c-0.366-0.548-0.217-1.288,0.331-1.654   c0.543-0.363,1.286-0.22,1.654,0.331c0.804,1.205,1.747,2.441,2.808,3.674c0.431,0.5,0.373,1.252-0.126,1.682   C20.664,393.837,20.387,393.931,20.112,393.931z M14.89,385.983c-0.454,0-0.888-0.261-1.088-0.704   c-0.72-1.598-1.242-3.208-1.554-4.784c-0.128-0.647,0.291-1.274,0.939-1.403c0.636-0.122,1.272,0.292,1.4,0.939   c0.277,1.399,0.746,2.836,1.391,4.27c0.27,0.6,0.002,1.307-0.599,1.577C15.221,385.949,15.056,385.983,14.89,385.983z    M13.143,376.71c-0.035,0-0.07-0.001-0.103-0.005c-0.657-0.056-1.144-0.633-1.088-1.29c0.142-1.674,0.534-3.341,1.165-4.952   c0.24-0.615,0.925-0.917,1.547-0.677c0.613,0.241,0.916,0.933,0.676,1.546c-0.548,1.398-0.888,2.84-1.011,4.286   C14.275,376.24,13.756,376.71,13.143,376.71z M16.503,367.911c-0.238,0-0.478-0.071-0.687-0.218   c-0.538-0.38-0.666-1.124-0.287-1.662c0.911-1.295,2.004-2.566,3.246-3.78c0.475-0.459,1.23-0.449,1.687,0.02   c0.461,0.472,0.452,1.227-0.019,1.688c-1.139,1.111-2.137,2.271-2.966,3.447C17.246,367.735,16.876,367.911,16.503,367.911z    M23.253,361.218c-0.366,0-0.727-0.168-0.96-0.485c-0.391-0.531-0.277-1.278,0.252-1.668c1.27-0.937,2.651-1.838,4.105-2.683   c0.564-0.329,1.298-0.142,1.631,0.432c0.331,0.57,0.137,1.299-0.433,1.63c-1.379,0.801-2.686,1.657-3.886,2.541   C23.746,361.142,23.5,361.218,23.253,361.218z M33.469,357.412c-0.04,0-0.079-0.002-0.119-0.006   c-1.636-0.16-3.288-0.499-4.907-1.005c-0.629-0.197-0.979-0.866-0.783-1.495c0.198-0.629,0.874-0.98,1.496-0.782   c0.454,0.142,0.913,0.27,1.372,0.383c0.116-0.157,0.273-0.288,0.461-0.375c1.486-0.685,3.008-1.304,4.522-1.842   c0.61-0.223,1.302,0.104,1.521,0.725c0.221,0.621-0.103,1.304-0.725,1.524c-0.685,0.243-1.372,0.504-2.057,0.782   c0.28,0.245,0.44,0.616,0.403,1.015C34.595,356.952,34.075,357.412,33.469,357.412z M38.222,357.336   c-0.587,0-1.1-0.435-1.179-1.033c-0.089-0.654,0.368-1.253,1.023-1.342c1.556-0.21,3.024-0.616,4.245-1.174   c0.592-0.271,1.302-0.012,1.582,0.588c0.273,0.599,0.009,1.307-0.589,1.581c-1.431,0.655-3.131,1.129-4.921,1.37   C38.329,357.333,38.276,357.336,38.222,357.336z M24.411,354.613c-0.189,0-0.38-0.044-0.557-0.139   c-1.421-0.751-2.826-1.646-4.18-2.661c-0.527-0.395-0.634-1.143-0.24-1.669c0.401-0.529,1.149-0.63,1.671-0.239   c1.253,0.939,2.554,1.767,3.863,2.46c0.582,0.308,0.806,1.03,0.499,1.612C25.252,354.382,24.837,354.613,24.411,354.613z    M40.487,353.243c-0.541,0-1.03-0.369-1.16-0.917c-0.154-0.641,0.242-1.284,0.885-1.436c0.589-0.141,1.158-0.26,1.699-0.359   c1.699-0.308,2.945-0.276,3.779,0.112c0.596,0.278,0.855,0.989,0.575,1.586c-0.28,0.6-0.993,0.853-1.587,0.577   c-0.061-0.028-0.993-0.168-2.344,0.075c-0.499,0.09-1.025,0.202-1.573,0.331C40.671,353.232,40.578,353.243,40.487,353.243z    M16.775,348.945c-0.301,0-0.601-0.113-0.834-0.339c-1.128-1.102-2.241-2.315-3.308-3.607c-0.419-0.508-0.347-1.259,0.161-1.679   c0.503-0.419,1.253-0.352,1.68,0.16c1.011,1.226,2.067,2.375,3.136,3.418c0.471,0.46,0.48,1.216,0.019,1.687   C17.395,348.825,17.085,348.945,16.775,348.945z M10.683,341.622c-0.377,0-0.753-0.181-0.983-0.517   c-0.671-0.976-1.34-2.008-1.999-3.096l-0.596-1.008c-0.333-0.569-0.14-1.299,0.429-1.631c0.564-0.334,1.298-0.142,1.631,0.429   l0.58,0.976c0.634,1.045,1.274,2.038,1.922,2.979c0.373,0.543,0.235,1.285-0.308,1.659   C11.153,341.555,10.916,341.622,10.683,341.622z M5.916,333.372c-0.447,0-0.878-0.254-1.081-0.686   c-0.718-1.533-1.335-3.064-1.834-4.549c-0.21-0.624,0.126-1.3,0.75-1.511c0.627-0.206,1.3,0.127,1.51,0.751   c0.471,1.399,1.055,2.845,1.736,4.295c0.28,0.598,0.021,1.307-0.575,1.587C6.258,333.336,6.086,333.372,5.916,333.372z    M2.922,324.337c-0.564,0-1.065-0.402-1.17-0.976c-0.312-1.681-0.473-3.347-0.48-4.953c-0.002-0.659,0.529-1.195,1.188-1.199   c0,0,0.002,0,0.005,0c0.657,0,1.191,0.53,1.193,1.187c0.007,1.466,0.154,2.99,0.438,4.532c0.121,0.648-0.308,1.27-0.955,1.39   C3.068,324.331,2.994,324.337,2.922,324.337z M2.933,314.858c-0.082,0-0.161-0.008-0.242-0.024   c-0.645-0.133-1.062-0.764-0.927-1.41c0.338-1.643,0.86-3.249,1.554-4.774c0.275-0.6,0.983-0.862,1.58-0.592   c0.599,0.273,0.864,0.98,0.592,1.58c-0.62,1.363-1.088,2.799-1.391,4.268C3.984,314.47,3.485,314.858,2.933,314.858z    M6.827,306.243c-0.249,0-0.499-0.077-0.713-0.235c-0.529-0.394-0.638-1.142-0.245-1.669c0.969-1.301,2.092-2.545,3.343-3.698   c0.485-0.444,1.242-0.415,1.685,0.069c0.447,0.485,0.417,1.24-0.068,1.686c-1.142,1.052-2.167,2.185-3.045,3.367   C7.549,306.077,7.19,306.243,6.827,306.243z M29.55,300.127l-0.156-1.194l0.156-1.192c1.442,0,2.856-0.289,3.984-0.813   c0.599-0.269,1.307-0.02,1.584,0.579c0.277,0.598,0.019,1.307-0.578,1.586C33.085,299.77,31.358,300.127,29.55,300.127z    M13.779,299.779c-0.387,0-0.764-0.188-0.995-0.535c-0.363-0.549-0.212-1.288,0.336-1.653c1.347-0.891,2.794-1.708,4.301-2.425   c0.589-0.282,1.307-0.033,1.589,0.565c0.284,0.594,0.03,1.306-0.564,1.59c-1.405,0.669-2.754,1.429-4.007,2.26   C14.236,299.715,14.007,299.779,13.779,299.779z M24.744,299.197c-0.147,0-0.294-0.027-0.438-0.083   c-1.549-0.61-3.031-1.49-4.404-2.615c-0.508-0.418-0.582-1.17-0.165-1.679c0.356-0.436,0.96-0.55,1.44-0.319   c-0.009-0.511,0.315-0.99,0.827-1.156c1.608-0.521,3.225-0.919,4.8-1.186c0.641-0.098,1.265,0.326,1.375,0.977   c0.11,0.65-0.329,1.265-0.979,1.376c-1.461,0.247-2.964,0.617-4.464,1.102c-0.002,0.001-0.005,0.002-0.007,0.003   c0.79,0.517,1.61,0.945,2.453,1.276c0.613,0.241,0.913,0.934,0.671,1.547C25.669,298.91,25.219,299.197,24.744,299.197z    M36.174,295.652c-0.352,0-0.704-0.156-0.939-0.457c-0.089-0.112-0.473-0.502-1.722-0.778c-0.534-0.119-1.144-0.196-1.815-0.227   c-0.659-0.031-1.167-0.589-1.135-1.248c0.03-0.658,0.582-1.166,1.247-1.136c0.808,0.038,1.554,0.133,2.22,0.282   c1.445,0.319,2.481,0.869,3.082,1.634c0.405,0.517,0.317,1.267-0.203,1.674C36.692,295.569,36.433,295.652,36.174,295.652z    M17.386,293.314c-0.361,0-0.72-0.165-0.955-0.478c-0.944-1.26-1.817-2.686-2.598-4.239c-0.296-0.588-0.061-1.305,0.529-1.602   c0.582-0.294,1.302-0.062,1.601,0.53c0.72,1.427,1.519,2.733,2.379,3.88c0.394,0.528,0.287,1.276-0.24,1.671   C17.887,293.237,17.635,293.314,17.386,293.314z M13.05,284.861c-0.494,0-0.955-0.308-1.125-0.799   c-0.268-0.767-0.527-1.568-0.771-2.406c-0.224-0.776-0.424-1.54-0.601-2.291c-0.151-0.642,0.245-1.284,0.888-1.435   c0.65-0.144,1.284,0.25,1.433,0.888c0.168,0.714,0.359,1.439,0.573,2.174c0.231,0.794,0.475,1.556,0.729,2.283   c0.219,0.622-0.11,1.302-0.732,1.52C13.313,284.84,13.18,284.861,13.05,284.861z M10.911,275.584c-0.601,0-1.118-0.456-1.184-1.068   c-0.133-1.258-0.2-2.513-0.2-3.731c0-0.405,0.007-0.805,0.021-1.201c0.026-0.658,0.464-1.185,1.237-1.149   c0.657,0.023,1.172,0.577,1.149,1.235c-0.014,0.368-0.021,0.74-0.021,1.115c0,1.135,0.063,2.307,0.186,3.482   c0.07,0.655-0.405,1.242-1.06,1.311C10.995,275.582,10.953,275.584,10.911,275.584z M11.27,266.085   c-0.075,0-0.149-0.007-0.224-0.021c-0.648-0.122-1.074-0.747-0.951-1.393c0.305-1.613,0.741-3.22,1.295-4.775   c0.219-0.622,0.899-0.939,1.524-0.725c0.62,0.221,0.944,0.904,0.722,1.524c-0.513,1.44-0.916,2.926-1.198,4.419   C12.332,265.687,11.831,266.085,11.27,266.085z M14.448,257.132c-0.191,0-0.384-0.045-0.564-0.141   c-0.58-0.312-0.799-1.034-0.487-1.616c0.764-1.425,1.647-2.83,2.626-4.174c0.387-0.532,1.135-0.647,1.666-0.262   c0.534,0.388,0.65,1.135,0.263,1.667c-0.916,1.256-1.74,2.568-2.453,3.897C15.284,256.904,14.872,257.132,14.448,257.132z    M20.035,249.424c-0.294,0-0.585-0.107-0.815-0.323c-0.48-0.45-0.506-1.205-0.056-1.686c1.097-1.171,2.293-2.309,3.553-3.385   c0.499-0.422,1.253-0.367,1.68,0.133c0.429,0.501,0.368,1.255-0.133,1.682c-1.193,1.018-2.323,2.096-3.357,3.201   C20.671,249.297,20.354,249.424,20.035,249.424z M27.281,243.226c-0.38,0-0.753-0.182-0.983-0.518   c-0.373-0.544-0.235-1.286,0.31-1.659c2.46-1.687,4.192-2.52,4.264-2.555c0.592-0.281,1.307-0.033,1.591,0.562   c0.284,0.594,0.033,1.306-0.562,1.591c-0.016,0.007-1.65,0.797-3.947,2.371C27.749,243.159,27.514,243.226,27.281,243.226z"/>
	<g>
		<path style="fill:#EC7E96;" d="M398.924,335.69c0,0,5.212-102.931-1.954-102.931c-7.166,0-18.241,2.606-22.15,11.075    c-3.909,8.469-7.166,104.234-11.075,110.097C359.837,359.794,398.924,335.69,398.924,335.69z"/>
		<path style="fill:#EC7E96;" d="M262.437,502.412l103.386-4.772c0,0-7.848-66.464,7.042-85.078    c14.891-18.613,56.59-53.581,66.449-77.524c9.859-23.943,13.151-109.77,13.151-109.77s3.521-16.197-9.859-18.309    c-13.38-2.113-17.605,5.634-19.014,16.901c0,0-15.493-11.267-23.943,0.704c-8.45,11.971-1.357,92.689-11.267,102.11    c-66.917,63.608-104.798,53.607-115.361,81.775C262.459,436.617,262.437,502.412,262.437,502.412z"/>
		<path style="fill:#241726;" d="M407.398,328.571c-0.391,0-0.774-0.192-1.002-0.545c-0.356-0.552-0.2-1.29,0.352-1.648    c0.093-0.062,9.385-6.332,10.725-24.44c1.393-18.79,4.895-73.38,4.93-73.928c0.042-0.659,0.62-1.145,1.267-1.115    c0.657,0.042,1.156,0.609,1.114,1.266c-0.035,0.55-3.537,55.152-4.93,73.954c-1.435,19.384-11.391,25.995-11.813,26.266    C407.841,328.509,407.62,328.571,407.398,328.571z"/>
		<path style="fill:#241726;" d="M393.794,348.345c-0.238,0-0.475-0.07-0.683-0.216c-0.541-0.377-0.673-1.122-0.296-1.661    c1.65-2.358,3.802-6.546,3.192-8.05c-0.051-0.126-0.158-0.389-0.781-0.507c-4.226-0.808-8.078,3.371-8.117,3.413    c-0.44,0.492-1.198,0.53-1.685,0.089c-0.492-0.44-0.531-1.195-0.091-1.685c0.193-0.214,4.8-5.207,10.34-4.161    c1.568,0.299,2.248,1.227,2.542,1.954c1.321,3.248-2.637,9.162-3.446,10.315C394.539,348.168,394.169,348.345,393.794,348.345z"/>
		<path style="fill:#241726;" d="M388.386,327.866c-0.065,0-0.133-0.005-0.198-0.016c-0.65-0.108-1.09-0.723-0.981-1.374    c2.451-14.654,7.868-89.788,7.922-90.545c0.049-0.661,0.622-1.143,1.277-1.104c0.657,0.047,1.151,0.617,1.104,1.274    c-0.224,3.096-5.48,76.004-7.95,90.769C389.463,327.454,388.957,327.866,388.386,327.866z"/>
		<path style="fill:#241726;" d="M277.561,436.89c-0.499,0-0.962-0.315-1.13-0.814c-0.256-0.77-6.032-19.122,16.186-41.339    c11.007-11.008,17.672-13.462,24.73-16.061c7.046-2.594,15.03-5.535,29.061-18.048c20.827-18.574,41.713-35.467,53.556-33.325    c3.199,0.579,5.669,2.481,7.337,5.652c3.462,6.577-3.977,18.706-22.74,37.078c-13.514,13.232-28.143,24.851-28.29,24.967    c-0.515,0.408-1.265,0.323-1.675-0.195c-0.41-0.516-0.324-1.266,0.193-1.676c15.995-12.672,56.23-47.986,50.401-59.064    c-1.328-2.523-3.176-3.968-5.65-4.415c-10.881-1.985-32.146,15.454-51.543,32.756c-14.369,12.815-22.582,15.839-29.825,18.507    c-7.099,2.614-13.232,4.872-23.868,15.509c-21.107,21.104-15.664,38.724-15.608,38.9c0.205,0.624-0.135,1.299-0.76,1.505    C277.813,436.871,277.687,436.89,277.561,436.89z"/>
		<g>
			<path style="fill:#241726;" d="M353.773,470.248c-0.228,0-0.459-0.065-0.662-0.2c-0.548-0.366-0.697-1.106-0.331-1.654     c1.226-1.839,0.725-5.546,0.426-6.82c-0.149-0.642,0.249-1.284,0.89-1.434c0.648-0.147,1.284,0.246,1.433,0.888     c0.135,0.571,1.254,5.662-0.764,8.689C354.535,470.061,354.157,470.248,353.773,470.248z"/>
			<path style="fill:#241726;" d="M355.264,452.056c-0.228,0-0.459-0.065-0.662-0.2c-0.548-0.366-0.697-1.106-0.331-1.654     c1.226-1.839,0.725-5.546,0.426-6.82c-0.149-0.642,0.249-1.284,0.89-1.434c0.645-0.151,1.284,0.247,1.433,0.888     c0.135,0.571,1.254,5.662-0.764,8.689C356.026,451.869,355.648,452.056,355.264,452.056z"/>
			<path style="fill:#241726;" d="M343.633,463.985c-0.228,0-0.459-0.065-0.662-0.2c-0.548-0.366-0.697-1.106-0.331-1.654     c1.226-1.839,0.725-5.546,0.426-6.82c-0.149-0.642,0.249-1.284,0.89-1.434c0.645-0.149,1.284,0.247,1.433,0.888     c0.135,0.571,1.253,5.662-0.764,8.689C344.395,463.799,344.017,463.985,343.633,463.985z"/>
			<path style="fill:#241726;" d="M346.019,480.388c-0.228,0-0.459-0.065-0.662-0.2c-0.548-0.366-0.697-1.106-0.331-1.654     c1.226-1.839,0.725-5.546,0.426-6.82c-0.149-0.642,0.249-1.284,0.89-1.434c0.648-0.151,1.284,0.247,1.433,0.888     c0.135,0.571,1.253,5.662-0.764,8.689C346.781,480.201,346.403,480.388,346.019,480.388z"/>
			<path style="fill:#241726;" d="M355.562,489.931c-0.228,0-0.459-0.065-0.662-0.2c-0.548-0.366-0.697-1.106-0.331-1.654     c1.226-1.839,0.725-5.546,0.426-6.82c-0.149-0.642,0.249-1.284,0.89-1.434c0.648-0.15,1.284,0.247,1.433,0.888     c0.135,0.571,1.254,5.662-0.764,8.689C356.324,489.745,355.947,489.931,355.562,489.931z"/>
		</g>
	</g>
	<g>
		<path style="fill:#EC7E96;" d="M103.262,335.69c0,0-5.212-102.931,1.954-102.931s18.241,2.606,22.15,11.075    s7.166,104.234,11.075,110.097C142.35,359.794,103.262,335.69,103.262,335.69z"/>
		<path style="fill:#EC7E96;" d="M239.75,502.412l-103.386-4.772c0,0,7.848-66.464-7.042-85.078    c-14.891-18.613-56.59-53.581-66.449-77.524c-9.859-23.943-13.151-109.77-13.151-109.77s-3.521-16.197,9.859-18.309    c13.38-2.113,17.605,5.634,19.014,16.901c0,0,15.493-11.267,23.943,0.704c8.45,11.971,1.357,92.689,11.267,102.11    c66.917,63.608,104.798,53.607,115.361,81.775C239.728,436.617,239.75,502.412,239.75,502.412z"/>
		<path style="fill:#241726;" d="M94.79,328.571c-0.221,0-0.445-0.061-0.645-0.19c-0.422-0.271-10.377-6.883-11.813-26.266    c-1.393-18.802-4.895-73.404-4.93-73.954c-0.042-0.657,0.457-1.224,1.114-1.266c0.627-0.034,1.226,0.455,1.267,1.115    c0.035,0.549,3.537,55.139,4.93,73.928c1.347,18.21,10.629,24.377,10.722,24.437c0.555,0.355,0.715,1.094,0.359,1.648    C95.566,328.378,95.182,328.571,94.79,328.571z"/>
		<path style="fill:#241726;" d="M108.393,348.345c-0.375,0-0.746-0.177-0.976-0.509c-0.808-1.152-4.767-7.067-3.446-10.315    c0.294-0.727,0.974-1.654,2.542-1.954c5.564-1.065,10.147,3.947,10.34,4.161c0.438,0.489,0.398,1.242-0.089,1.682    c-0.492,0.442-1.244,0.4-1.685-0.085c-0.04-0.043-3.905-4.219-8.12-3.415c-0.622,0.119-0.729,0.381-0.781,0.508    c-0.61,1.507,1.542,5.693,3.19,8.049c0.38,0.539,0.247,1.284-0.291,1.661C108.868,348.275,108.63,348.345,108.393,348.345z"/>
		<path style="fill:#241726;" d="M113.8,327.866c-0.571,0-1.076-0.414-1.174-0.996c-2.467-14.765-7.724-87.673-7.947-90.769    c-0.047-0.657,0.447-1.228,1.104-1.274c0.643-0.042,1.228,0.444,1.277,1.104c0.054,0.757,5.471,75.891,7.919,90.545    c0.11,0.65-0.331,1.265-0.981,1.374C113.933,327.862,113.865,327.866,113.8,327.866z"/>
		<path style="fill:#241726;" d="M224.625,436.89c-0.126,0-0.252-0.02-0.375-0.061c-0.624-0.206-0.965-0.881-0.76-1.505    c0.056-0.176,5.499-17.796-15.606-38.9c-10.638-10.637-16.768-12.895-23.868-15.509c-7.246-2.668-15.459-5.691-29.828-18.507    c-19.399-17.303-40.755-34.711-51.54-32.756c-2.474,0.447-4.322,1.892-5.65,4.415c-5.832,11.079,34.406,46.392,50.401,59.064    c0.517,0.41,0.603,1.16,0.193,1.676c-0.41,0.517-1.163,0.602-1.675,0.195c-0.147-0.116-14.776-11.736-28.29-24.967    c-18.763-18.373-26.202-30.501-22.74-37.078c1.668-3.171,4.136-5.072,7.337-5.652c11.801-2.137,32.726,14.75,53.553,33.325    c14.031,12.513,22.015,15.453,29.061,18.048c7.057,2.599,13.723,5.054,24.732,16.061c22.216,22.217,16.44,40.569,16.184,41.339    C225.588,436.576,225.124,436.89,224.625,436.89z"/>
		<g>
			<path style="fill:#241726;" d="M151.419,466.127c-0.384,0-0.762-0.186-0.993-0.531c-2.018-3.028-0.899-8.119-0.764-8.689     c0.149-0.642,0.781-1.033,1.433-0.888c0.641,0.15,1.039,0.792,0.89,1.434c-0.298,1.273-0.799,4.98,0.426,6.82     c0.366,0.549,0.217,1.288-0.331,1.654C151.878,466.062,151.647,466.127,151.419,466.127z"/>
			<path style="fill:#241726;" d="M149.928,447.935c-0.384,0-0.762-0.186-0.993-0.531c-2.018-3.028-0.899-8.119-0.764-8.689     c0.149-0.641,0.783-1.039,1.433-0.888c0.641,0.15,1.039,0.792,0.89,1.434c-0.298,1.273-0.799,4.98,0.426,6.82     c0.366,0.549,0.217,1.288-0.331,1.654C150.387,447.87,150.156,447.935,149.928,447.935z"/>
			<path style="fill:#241726;" d="M161.559,459.865c-0.384,0-0.762-0.186-0.993-0.531c-2.018-3.028-0.899-8.119-0.764-8.689     c0.149-0.641,0.783-1.037,1.433-0.888c0.641,0.15,1.039,0.792,0.89,1.434c-0.298,1.273-0.799,4.98,0.426,6.82     c0.366,0.549,0.217,1.288-0.331,1.654C162.018,459.799,161.787,459.865,161.559,459.865z"/>
			<path style="fill:#241726;" d="M159.173,476.267c-0.384,0-0.762-0.186-0.993-0.531c-2.018-3.028-0.899-8.119-0.764-8.689     c0.149-0.641,0.783-1.039,1.433-0.888c0.641,0.15,1.039,0.792,0.89,1.434c-0.298,1.273-0.799,4.98,0.426,6.82     c0.366,0.549,0.217,1.288-0.331,1.654C159.632,476.202,159.401,476.267,159.173,476.267z"/>
			<path style="fill:#241726;" d="M149.63,485.811c-0.384,0-0.762-0.186-0.993-0.531c-2.018-3.028-0.899-8.119-0.764-8.689     c0.149-0.641,0.781-1.038,1.433-0.888c0.641,0.15,1.039,0.792,0.89,1.434c-0.298,1.273-0.799,4.98,0.426,6.82     c0.366,0.549,0.217,1.288-0.331,1.654C150.089,485.745,149.858,485.811,149.63,485.811z"/>
		</g>
	</g>
	<g>
		<path style="fill:#241726;" d="M249.786,372.092c-3.984,0-6.869-0.351-7.281-1.314c-0.955-2.226-4.683-26.539-5.422-31.39    c-0.1-0.651,0.347-1.259,1-1.358c0.641-0.09,1.26,0.347,1.358,1c1.612,10.588,4.341,27.61,5.151,30.489    c4.63,1.357,39.821-2.167,43.698-4.384c-0.077-3.142-3.255-20.599-5.336-31.354c-0.123-0.648,0.298-1.273,0.946-1.398    c0.634-0.13,1.27,0.296,1.398,0.944c0.58,3.009,5.676,29.477,5.354,32.4c-0.112,1.012-0.24,2.158-11.636,3.843    C278.763,369.608,260.387,372.092,249.786,372.092z"/>
		<path style="fill:#A8D5CB;" d="M220.303,344.037c0,0-4.016-54.459-18.449-57.13c-52.686-9.748-93.446-77.683-30.249-138.451    c76.891-73.936,189.367-10.048,180.105,73.776c-5.83,52.768-48.545,43.759-49.574,65.453c-1.03,21.694,0.581,50.599,0.581,50.599    L220.303,344.037z"/>
		<path style="fill:#BB8397;" d="M212.145,304.912l90.937-3.646c0,0,3.563,47.518,1.135,47.805s-84.005,6.075-85.153,4.813    C217.917,352.623,212.145,304.912,212.145,304.912z"/>
		<path style="fill:#241726;" d="M229.017,302.925c-0.534,0-1.018-0.359-1.156-0.899c-1.806-7.098-17.416-69.617-9.986-78.72    c0.785-0.958,1.829-1.422,2.985-1.379c5.468,0.26,11.023,5.275,15,11.118c2.083-6.11,5.426-12.278,9.254-15.525    c3.98-3.381,7.302-2.763,9.39-1.644c2.742,1.47,4.944,3.981,6.643,6.961c1.803-1.849,3.781-3.289,5.767-4.083    c3.311-1.323,6.452-0.894,9.087,1.245c4.916,3.997,6.477,18.212,4.767,43.46c-1.237,18.289-3.847,35.717-3.875,35.891    c-0.098,0.652-0.715,1.079-1.356,1.002c-0.652-0.099-1.1-0.706-1.002-1.358c2.88-19.107,8.488-70.213-0.04-77.143    c-1.948-1.584-4.203-1.881-6.694-0.882c-1.885,0.754-3.786,2.223-5.501,4.117c2.416,5.253,3.49,11.414,3.418,15.905    c-0.072,4.505-1.251,7.55-3.318,8.574c-1.051,0.52-2.805,0.761-5.247-1.038c-2.912-2.148-4.189-5.894-3.593-10.545    c0.585-4.565,2.859-9.421,5.869-13.194c-1.615-3.052-3.672-5.532-6.053-6.808c-2.109-1.131-4.308-0.687-6.717,1.36    c-4.052,3.435-7.358,10.144-9.175,16.286c0.349,0.602,0.68,1.208,0.993,1.812c1.302,2.528,4.119,8.74,2.132,11.836    c-0.473,0.735-1.486,1.588-3.201,1.504c-0.906-0.043-2.544-0.468-3.348-2.829c-0.878-2.579-0.447-7.075,0.883-11.923    c-3.595-5.859-9.094-11.474-14.194-11.715c-0.28-0.014-0.638,0.034-1.023,0.504c-5.051,6.187,3.481,49.214,10.447,76.624    c0.163,0.638-0.224,1.287-0.862,1.449C229.213,302.913,229.113,302.925,229.017,302.925z M236.613,239.039    c-0.727,3.442-0.878,6.426-0.296,8.14c0.401,1.175,0.962,1.202,1.202,1.214c0.811,0.043,0.995-0.276,1.081-0.41    C239.278,246.926,238.926,243.699,236.613,239.039z M260.574,227.218c-2.381,3.288-4.168,7.323-4.648,11.067    c-0.34,2.656-0.156,6.256,2.644,8.321c0.811,0.595,1.943,1.231,2.77,0.819c0.92-0.456,1.927-2.395,1.994-6.474    C263.402,236.627,262.396,231.566,260.574,227.218z"/>
		<path style="fill:#241726;" d="M321.142,173.212c-0.557,0-1.053-0.391-1.167-0.959c-0.923-4.599-5.04-7.182-5.082-7.208    c-0.562-0.345-0.736-1.078-0.394-1.639c0.34-0.559,1.074-0.74,1.636-0.397c0.205,0.126,5.049,3.129,6.179,8.776    c0.13,0.645-0.289,1.274-0.934,1.404C321.301,173.205,321.221,173.212,321.142,173.212z"/>
		<path style="fill:#241726;" d="M319.74,186.229c-0.557,0-1.053-0.391-1.167-0.959c-0.923-4.599-5.04-7.182-5.082-7.208    c-0.562-0.345-0.736-1.078-0.394-1.639c0.342-0.56,1.076-0.737,1.636-0.397c0.205,0.126,5.049,3.129,6.179,8.776    c0.13,0.645-0.289,1.274-0.934,1.404C319.898,186.222,319.819,186.229,319.74,186.229z"/>
		<path style="fill:#241726;" d="M334.712,183.77c-0.557,0-1.053-0.391-1.167-0.959c-0.925-4.632-5.035-7.18-5.077-7.204    c-0.564-0.342-0.741-1.076-0.398-1.639c0.342-0.565,1.079-0.74,1.638-0.4c0.205,0.126,5.049,3.128,6.177,8.774    c0.128,0.647-0.289,1.274-0.937,1.404C334.87,183.763,334.791,183.77,334.712,183.77z"/>
		<path style="fill:#241726;" d="M305.145,172.669c-0.557,0-1.053-0.391-1.167-0.959c-0.927-4.632-5.037-7.18-5.079-7.204    c-0.564-0.342-0.741-1.076-0.398-1.639c0.342-0.565,1.081-0.74,1.638-0.4c0.205,0.126,5.047,3.128,6.179,8.774    c0.13,0.645-0.289,1.274-0.934,1.404C305.303,172.662,305.224,172.669,305.145,172.669z"/>
		<path style="fill:#241726;" d="M333.503,199.442c-0.557,0-1.053-0.391-1.167-0.959c-0.925-4.632-5.035-7.181-5.077-7.205    c-0.564-0.342-0.741-1.076-0.398-1.639c0.34-0.564,1.079-0.741,1.638-0.4c0.205,0.126,5.049,3.13,6.177,8.776    c0.128,0.647-0.289,1.274-0.937,1.404C333.661,199.435,333.582,199.442,333.503,199.442z"/>
		<path style="fill:#241726;" d="M339.635,217.498c-0.051,0-0.103-0.003-0.154-0.009c-0.655-0.084-1.116-0.682-1.032-1.335    c0.601-4.684-2.481-8.412-2.512-8.449c-0.424-0.504-0.359-1.257,0.147-1.681c0.506-0.421,1.256-0.359,1.68,0.146    c0.154,0.184,3.784,4.577,3.052,10.288C340.739,217.059,340.224,217.498,339.635,217.498z"/>
		<path style="fill:#241726;" d="M325.59,208.811c-0.035,0-0.072-0.001-0.107-0.005c-0.655-0.057-1.142-0.636-1.083-1.293    c0.41-4.671-2.817-8.306-2.849-8.342c-0.44-0.488-0.405-1.242,0.082-1.683c0.492-0.444,1.237-0.409,1.682,0.078    c0.163,0.178,3.966,4.421,3.462,10.157C326.722,208.343,326.201,208.811,325.59,208.811z"/>
		<path style="fill:#241726;" d="M236.326,334.823c-2.603,0-5.023-1.736-6.822-4.875c-1.365,1.328-3.066,2.239-5.019,2.644    c-2.477,0.52-4.669,0.065-6.503-1.348c-4.732-3.645-5.252-12.504-5.27-12.879c-0.035-0.658,0.468-1.219,1.128-1.254    c0.662-0.015,1.221,0.471,1.253,1.127c0.005,0.082,0.485,8.145,4.348,11.117c1.27,0.977,2.756,1.271,4.56,0.902    c2.011-0.419,3.418-1.431,4.399-2.615c-0.068-0.165-0.13-0.334-0.196-0.507c-1.477-3.99-2.232-10.2,0.722-11.513    c0.885-0.39,1.817-0.267,2.551,0.351c1.563,1.316,2.057,4.803,1.177,8.292c-0.342,1.355-0.857,2.578-1.521,3.649    c1.09,2.219,3.208,5.288,6.286,4.357c1.473-0.442,2.633-1.48,3.469-3.095c-0.217-0.355-0.412-0.732-0.589-1.132    c-2.041-4.602-1.011-10.898,0.694-12.262c0.531-0.424,1.221-0.489,1.796-0.172c1.789,0.977,2.132,5.833,1.803,8.968    c-0.17,1.605-0.494,3.048-0.965,4.309c1.479,1.646,3.709,2.238,6.671,1.76c4.206-0.678,6.81-3.326,8.355-5.775    c-1.624-4.452-1.577-9.924,1.16-11.567c0.869-0.521,1.778-0.516,2.488,0.006c1.573,1.157,1.449,4.407,0.809,7.062    c-0.373,1.547-0.969,3.159-1.801,4.697c1.123,2.485,3.63,6.08,8.35,4.807c2.668-0.718,4.767-2.401,6.26-4.443    c-0.592-1.129-1.021-2.321-1.279-3.51c-0.801-3.702,0.158-6.872,2.391-7.886c1.34-0.612,2.262-0.12,2.696,0.226    c1.221,0.976,1.591,3.265,0.995,6.122c-0.338,1.613-0.995,3.406-1.999,5.112c1.647,2.415,4.369,4.338,8.346,4.338    c3.98,0,6.086-3.113,7.153-5.723c0.016-0.044,0.035-0.09,0.054-0.134c-2.088-4.439-2.738-9.955-0.382-11.785    c0.795-0.617,1.715-0.677,2.458-0.161c2.039,1.414,1.959,7.188,0.615,11.485c-0.033,0.105-0.065,0.209-0.1,0.311    c0.205,0.375,0.424,0.744,0.662,1.104c1.591,2.432,4.213,4.935,7.658,3.059c0.578-0.316,1.305-0.104,1.617,0.476    c0.317,0.578,0.103,1.302-0.475,1.618c-3.73,2.032-7.679,0.706-10.606-3.562c-1.955,3.658-4.998,5.697-8.653,5.697    c-4.341,0-7.628-1.964-9.774-4.671c-1.698,2.081-4.014,3.823-7.015,4.631c-4.268,1.146-8.069-0.635-10.464-4.793    c-2.095,2.755-5.105,4.963-9.138,5.614c-3.383,0.544-6.17-0.113-8.164-1.865c-1.1,1.706-2.589,2.874-4.411,3.42    C237.505,334.736,236.911,334.823,236.326,334.823z M241.981,318.855c-0.41,1.581-0.671,4.371,0.03,6.907    C242.528,323.054,242.323,320.387,241.981,318.855z M229.91,317.775c-0.606,0.288-1.062,3.199,0.058,7.091    c0.405-1.097,0.576-2.076,0.643-2.622C230.944,319.547,230.236,317.933,229.91,317.775z M278.234,316.124    c0.014,0.01-0.07,0.02-0.214,0.085c-1.128,0.513-1.577,2.752-1.046,5.209c0.105,0.487,0.247,0.983,0.426,1.481    c0.51-1.122,0.864-2.274,1.06-3.381C278.843,317.347,278.423,316.256,278.234,316.124z M260.981,315.42    c-0.89,0.776-1.321,3.299-0.753,6.245c0.037-0.104,0.072-0.202,0.105-0.296C261.387,318.333,261.254,316.138,260.981,315.42z     M295.173,314.305c-0.587,0.905-0.555,3.187,0.161,5.737C295.734,317.449,295.55,315.201,295.173,314.305z"/>
		<path style="fill:#241726;" d="M241.718,365.846c-0.631,0-1.158-0.494-1.191-1.131c-0.035-0.658,0.471-1.219,1.128-1.254    l48.376-2.513c0.734-0.03,1.219,0.473,1.254,1.13c0.035,0.658-0.471,1.219-1.128,1.254l-48.376,2.513    C241.76,365.846,241.736,365.846,241.718,365.846z"/>
		<path style="fill:#241726;" d="M242.344,359.564c-0.603,0-1.121-0.456-1.184-1.069c-0.07-0.655,0.408-1.242,1.062-1.309    l45.235-4.712c0.641-0.084,1.242,0.405,1.309,1.062c0.07,0.655-0.408,1.242-1.062,1.309l-45.235,4.712    C242.428,359.561,242.386,359.564,242.344,359.564z"/>
	</g>
</g>















</svg>
