<svg width="16" height="16" viewBox="0 0 16 16" fill="none" xmlns="http://www.w3.org/2000/svg">
<path d="M10.6667 14.6666H2.66671C2.31309 14.6666 1.97395 14.5262 1.7239 14.2761C1.47385 14.0261 1.33337 13.6869 1.33337 13.3333V5.33331H2.66671V13.3333H10.6667V14.6666ZM13.3334 12H5.33337C4.97975 12 4.64061 11.8595 4.39056 11.6095C4.14052 11.3594 4.00004 11.0203 4.00004 10.6666V2.66665C4.00004 2.31302 4.14052 1.97389 4.39056 1.72384C4.64061 1.47379 4.97975 1.33331 5.33337 1.33331H13.3334C13.687 1.33331 14.0261 1.47379 14.2762 1.72384C14.5262 1.97389 14.6667 2.31302 14.6667 2.66665V10.6666C14.6667 11.0203 14.5262 11.3594 14.2762 11.6095C14.0261 11.8595 13.687 12 13.3334 12ZM5.33337 2.66665V10.6666H13.3334V2.66665H5.33337ZM10 9.33331H8.66671V7.33331H6.66671V5.99998H8.66671V3.99998H10V5.99998H12V7.33331H10V9.33331Z" fill="#2267A0"/>
</svg>
