<svg width="18" height="19" viewBox="0 0 18 19" fill="none" xmlns="http://www.w3.org/2000/svg">
<path d="M3.75 16.1539V3.8462C3.75 3.43818 3.90804 3.04686 4.18934 2.75834C4.47064 2.46983 4.85218 2.30774 5.25 2.30774H12.75C13.1478 2.30774 13.5294 2.46983 13.8107 2.75834C14.092 3.04686 14.25 3.43818 14.25 3.8462V16.1539L12 14.6154L10.5 16.1539L9 14.6154L7.5 16.1539L6 14.6154L3.75 16.1539Z" stroke="#2267A0" stroke-width="1.2" stroke-linecap="round" stroke-linejoin="round"/>
<path d="M10.5 6.15385H8.625C8.32663 6.15385 8.04048 6.27541 7.8295 6.4918C7.61853 6.70819 7.5 7.00167 7.5 7.30769C7.5 7.61371 7.61853 7.9072 7.8295 8.12358C8.04048 8.33997 8.32663 8.46154 8.625 8.46154H9.375C9.67337 8.46154 9.95952 8.5831 10.1705 8.79949C10.3815 9.01588 10.5 9.30937 10.5 9.61538C10.5 9.9214 10.3815 10.2149 10.1705 10.4313C9.95952 10.6477 9.67337 10.7692 9.375 10.7692H7.5M9 10.7692V11.9231M9 5V6.15385" stroke="#2267A0" stroke-width="1.2" stroke-linecap="round" stroke-linejoin="round"/>
</svg>
