<svg width="489" height="392" viewBox="0 0 489 392" fill="none" xmlns="http://www.w3.org/2000/svg">
<g clip-path="url(#clip0_46_5326)">
<rect width="489" height="392" fill="white"/>
<path d="M423.636 392C459.735 392 489 389.944 489 387.407C489 384.87 459.735 382.814 423.636 382.814C387.536 382.814 358.271 384.87 358.271 387.407C358.271 389.944 387.536 392 423.636 392Z" fill="#E6E6E6"/>
<path d="M448.963 255.907L442.642 272.152C442.163 273.384 442.161 274.73 442.635 275.962C443.11 277.195 444.032 278.238 445.246 278.916C446.13 279.41 447.134 279.69 448.167 279.732C449.199 279.774 450.226 279.575 451.153 279.155C452.08 278.735 452.878 278.107 453.472 277.328C454.066 276.549 454.438 275.645 454.554 274.699L456.56 258.24L471.752 211.971L458.67 206.139L448.963 255.907Z" fill="#A0616A"/>
<path d="M443.688 378.579H452.972V295.372L431.871 294.983L443.688 378.579Z" fill="#A0616A"/>
<path d="M402.33 378.579H411.615V295.372L390.514 294.983L402.33 378.579Z" fill="#A0616A"/>
<path d="M454.45 304.121L430.395 301.788L425.33 277.292L416.046 302.177L387.349 299.455L399.165 258.24C420.765 244.717 441.28 245.013 460.78 258.24L454.45 304.121Z" fill="#2F2E41"/>
<path d="M413.665 382.123C413.808 383.178 413.686 384.25 413.309 385.256C412.931 386.261 412.308 387.173 411.487 387.922C410.666 388.67 409.67 389.235 408.575 389.572C407.48 389.909 406.315 390.011 405.171 389.868L388.067 387.73C386.537 387.51 385.165 386.74 384.25 385.589C383.336 384.438 382.955 383 383.191 381.59C383.403 380.319 384.102 379.159 385.162 378.322C386.222 377.484 387.572 377.024 388.968 377.024H391.788L401.066 369.235C401.158 374.54 405.398 373.362 412.406 372.845L413.665 382.123Z" fill="#2F2E41"/>
<path d="M455.023 382.123C455.166 383.178 455.044 384.25 454.666 385.256C454.289 386.261 453.665 387.173 452.845 387.922C452.024 388.67 451.027 389.235 449.932 389.572C448.837 389.909 447.672 390.011 446.528 389.868L429.424 387.73C427.894 387.51 426.522 386.74 425.608 385.589C424.694 384.438 424.313 383 424.548 381.59C424.76 380.319 425.46 379.159 426.519 378.322C427.579 377.484 428.929 377.024 430.325 377.024H433.146L442.424 369.235C442.515 374.54 446.756 373.362 453.764 372.845L455.023 382.123Z" fill="#2F2E41"/>
<path d="M422.06 162.591C430.276 162.591 436.936 156.455 436.936 148.885C436.936 141.316 430.276 135.179 422.06 135.179C413.844 135.179 407.184 141.316 407.184 148.885C407.184 156.455 413.844 162.591 422.06 162.591Z" fill="#A0616A"/>
<path d="M440.945 171.922L422.376 173.478V158.314L432.082 152.871L440.945 171.922Z" fill="#A0616A"/>
<path d="M462.89 264.072C444.209 251.469 421.778 252.75 397.055 262.517C408.257 233.302 413.028 206.074 404.229 183.04C404.229 178.97 405.7 175.016 408.409 171.802C411.118 168.587 414.911 166.295 419.19 165.286L422.376 164.535L437.991 165.313L452.654 173.232C455.644 174.847 458.126 177.151 459.856 179.919C461.586 182.686 462.504 185.82 462.52 189.014L462.89 264.072Z" fill="#E6E6E6"/>
<path d="M390.725 252.797L384.404 269.042C383.925 270.273 383.922 271.619 384.397 272.852C384.871 274.084 385.794 275.128 387.008 275.806C387.891 276.299 388.896 276.58 389.928 276.621C390.96 276.663 391.987 276.465 392.914 276.045C393.842 275.625 394.639 274.996 395.233 274.217C395.828 273.439 396.2 272.535 396.315 271.589L398.321 255.13L413.514 208.86L400.431 203.028L390.725 252.797Z" fill="#A0616A"/>
<path d="M475.129 220.914H454.45V174.256C458.026 176.086 461.133 178.604 463.561 181.638C465.988 184.673 467.678 188.153 468.517 191.842L475.129 220.914Z" fill="#E6E6E6"/>
<path d="M410.718 141.465C409.809 141.86 408.807 142.041 407.804 141.991C406.8 141.941 405.825 141.661 404.968 141.178C404.129 140.667 403.496 139.917 403.166 139.042C402.835 138.168 402.826 137.217 403.14 136.337C403.767 134.851 405.354 133.921 406.894 133.194C410.292 131.591 413.932 130.471 417.693 129.87C419.486 129.584 421.385 129.427 423.079 130.038C423.918 130.34 424.67 130.819 425.502 131.135C427.032 131.717 428.74 131.719 430.359 132.035C432.018 132.368 433.579 133.026 434.937 133.964C436.295 134.901 437.419 136.097 438.233 137.47C438.766 138.403 439.175 139.393 439.451 140.417C440.232 143.218 440.221 146.156 439.422 148.953C438.148 153.383 434.906 157.454 435.198 162.029C432.801 160.743 431.678 158.124 429.676 156.355C428.188 155.048 426.263 154.245 424.215 154.076C423.655 154.096 423.101 153.966 422.621 153.702C422.271 153.388 422.03 152.986 421.927 152.547L419.672 146.039C419.213 144.715 418.659 143.276 417.362 142.566C416.562 142.192 415.679 141.995 414.782 141.988C412.637 141.844 410.483 141.863 408.341 142.044" fill="#2F2E41"/>
<path d="M415.624 212.36L391.569 203.806L402.493 176.687C403.765 173.529 405.999 170.776 408.927 168.759C411.855 166.741 415.353 165.545 419 165.313L415.624 212.36Z" fill="#E6E6E6"/>
<path d="M286.211 290.332H22.0214C20.7676 290.331 19.5656 289.871 18.6791 289.055C17.7925 288.238 17.2938 287.13 17.2925 285.975V20.4951C17.2938 19.3399 17.7925 18.2325 18.6791 17.4157C19.5656 16.5989 20.7676 16.1394 22.0214 16.1382H286.211C287.465 16.1394 288.667 16.5989 289.553 17.4157C290.44 18.2325 290.939 19.3399 290.94 20.4951V285.975C290.939 287.13 290.44 288.238 289.553 289.055C288.667 289.871 287.465 290.331 286.211 290.332ZM22.0214 17.8809C21.2692 17.8817 20.5479 18.1574 20.016 18.6474C19.4841 19.1375 19.1849 19.802 19.1841 20.4951V285.975C19.1849 286.668 19.4841 287.333 20.016 287.823C20.5479 288.313 21.2692 288.589 22.0214 288.589H286.211C286.963 288.589 287.685 288.313 288.217 287.823C288.749 287.333 289.048 286.668 289.049 285.975V20.4951C289.048 19.802 288.749 19.1375 288.217 18.6474C287.685 18.1574 286.963 17.8817 286.211 17.8809H22.0214Z" fill="#E6E6E6"/>
<path d="M76.5383 115.095C79.9659 115.095 82.7445 112.535 82.7445 109.377C82.7445 106.219 79.9659 103.659 76.5383 103.659C73.1107 103.659 70.332 106.219 70.332 109.377C70.332 112.535 73.1107 115.095 76.5383 115.095Z" fill="#E6E6E6"/>
<path d="M102.398 115.095C105.825 115.095 108.604 112.535 108.604 109.377C108.604 106.219 105.825 103.659 102.398 103.659C98.97 103.659 96.1914 106.219 96.1914 109.377C96.1914 112.535 98.97 115.095 102.398 115.095Z" fill="#E6E6E6"/>
<path d="M128.257 115.095C131.685 115.095 134.463 112.535 134.463 109.377C134.463 106.219 131.685 103.659 128.257 103.659C124.829 103.659 122.051 106.219 122.051 109.377C122.051 112.535 124.829 115.095 128.257 115.095Z" fill="#5E9ED4"/>
<path d="M154.116 115.095C157.544 115.095 160.323 112.535 160.323 109.377C160.323 106.219 157.544 103.659 154.116 103.659C150.689 103.659 147.91 106.219 147.91 109.377C147.91 112.535 150.689 115.095 154.116 115.095Z" fill="#5E9ED4"/>
<path d="M179.976 115.095C183.403 115.095 186.182 112.535 186.182 109.377C186.182 106.219 183.403 103.659 179.976 103.659C176.548 103.659 173.77 106.219 173.77 109.377C173.77 112.535 176.548 115.095 179.976 115.095Z" fill="#5E9ED4"/>
<path d="M205.835 115.095C209.263 115.095 212.041 112.535 212.041 109.377C212.041 106.219 209.263 103.659 205.835 103.659C202.408 103.659 199.629 106.219 199.629 109.377C199.629 112.535 202.408 115.095 205.835 115.095Z" fill="#E6E6E6"/>
<path d="M231.694 115.095C235.122 115.095 237.901 112.535 237.901 109.377C237.901 106.219 235.122 103.659 231.694 103.659C228.267 103.659 225.488 106.219 225.488 109.377C225.488 112.535 228.267 115.095 231.694 115.095Z" fill="#E6E6E6"/>
<path d="M76.5383 133.202C79.9659 133.202 82.7445 130.642 82.7445 127.484C82.7445 124.326 79.9659 121.766 76.5383 121.766C73.1107 121.766 70.332 124.326 70.332 127.484C70.332 130.642 73.1107 133.202 76.5383 133.202Z" fill="#E6E6E6"/>
<path d="M102.398 133.202C105.825 133.202 108.604 130.642 108.604 127.484C108.604 124.326 105.825 121.766 102.398 121.766C98.97 121.766 96.1914 124.326 96.1914 127.484C96.1914 130.642 98.97 133.202 102.398 133.202Z" fill="#E6E6E6"/>
<path d="M128.257 133.202C131.685 133.202 134.463 130.642 134.463 127.484C134.463 124.326 131.685 121.766 128.257 121.766C124.829 121.766 122.051 124.326 122.051 127.484C122.051 130.642 124.829 133.202 128.257 133.202Z" fill="#E6E6E6"/>
<path d="M154.116 133.202C157.544 133.202 160.323 130.642 160.323 127.484C160.323 124.326 157.544 121.766 154.116 121.766C150.689 121.766 147.91 124.326 147.91 127.484C147.91 130.642 150.689 133.202 154.116 133.202Z" fill="#E6E6E6"/>
<path d="M179.976 133.202C183.403 133.202 186.182 130.642 186.182 127.484C186.182 124.326 183.403 121.766 179.976 121.766C176.548 121.766 173.77 124.326 173.77 127.484C173.77 130.642 176.548 133.202 179.976 133.202Z" fill="#E6E6E6"/>
<path d="M205.835 133.202C209.263 133.202 212.041 130.642 212.041 127.484C212.041 124.326 209.263 121.766 205.835 121.766C202.408 121.766 199.629 124.326 199.629 127.484C199.629 130.642 202.408 133.202 205.835 133.202Z" fill="#E6E6E6"/>
<path d="M231.694 133.202C235.122 133.202 237.901 130.642 237.901 127.484C237.901 124.326 235.122 121.766 231.694 121.766C228.267 121.766 225.488 124.326 225.488 127.484C225.488 130.642 228.267 133.202 231.694 133.202Z" fill="#E6E6E6"/>
<path d="M76.5383 151.31C79.9659 151.31 82.7445 148.75 82.7445 145.592C82.7445 142.434 79.9659 139.874 76.5383 139.874C73.1107 139.874 70.332 142.434 70.332 145.592C70.332 148.75 73.1107 151.31 76.5383 151.31Z" fill="#5E9ED4"/>
<path d="M102.398 151.31C105.825 151.31 108.604 148.75 108.604 145.592C108.604 142.434 105.825 139.874 102.398 139.874C98.97 139.874 96.1914 142.434 96.1914 145.592C96.1914 148.75 98.97 151.31 102.398 151.31Z" fill="#5E9ED4"/>
<path d="M128.257 151.31C131.685 151.31 134.463 148.75 134.463 145.592C134.463 142.434 131.685 139.874 128.257 139.874C124.829 139.874 122.051 142.434 122.051 145.592C122.051 148.75 124.829 151.31 128.257 151.31Z" fill="#5E9ED4"/>
<path d="M154.116 151.31C157.544 151.31 160.323 148.75 160.323 145.592C160.323 142.434 157.544 139.874 154.116 139.874C150.689 139.874 147.91 142.434 147.91 145.592C147.91 148.75 150.689 151.31 154.116 151.31Z" fill="#E6E6E6"/>
<path d="M179.976 151.31C183.403 151.31 186.182 148.75 186.182 145.592C186.182 142.434 183.403 139.874 179.976 139.874C176.548 139.874 173.77 142.434 173.77 145.592C173.77 148.75 176.548 151.31 179.976 151.31Z" fill="#E6E6E6"/>
<path d="M205.835 151.31C209.263 151.31 212.041 148.75 212.041 145.592C212.041 142.434 209.263 139.874 205.835 139.874C202.408 139.874 199.629 142.434 199.629 145.592C199.629 148.75 202.408 151.31 205.835 151.31Z" fill="#E6E6E6"/>
<path d="M231.694 151.31C235.122 151.31 237.901 148.75 237.901 145.592C237.901 142.434 235.122 139.874 231.694 139.874C228.267 139.874 225.488 142.434 225.488 145.592C225.488 148.75 228.267 151.31 231.694 151.31Z" fill="#E6E6E6"/>
<path d="M76.5383 169.416C79.9659 169.416 82.7445 166.856 82.7445 163.698C82.7445 160.541 79.9659 157.98 76.5383 157.98C73.1107 157.98 70.332 160.541 70.332 163.698C70.332 166.856 73.1107 169.416 76.5383 169.416Z" fill="#E6E6E6"/>
<path d="M102.398 169.416C105.825 169.416 108.604 166.856 108.604 163.698C108.604 160.541 105.825 157.98 102.398 157.98C98.97 157.98 96.1914 160.541 96.1914 163.698C96.1914 166.856 98.97 169.416 102.398 169.416Z" fill="#E6E6E6"/>
<path d="M76.5383 187.523C79.9659 187.523 82.7445 184.963 82.7445 181.805C82.7445 178.647 79.9659 176.087 76.5383 176.087C73.1107 176.087 70.332 178.647 70.332 181.805C70.332 184.963 73.1107 187.523 76.5383 187.523Z" fill="#E6E6E6"/>
<path d="M102.398 187.523C105.825 187.523 108.604 184.963 108.604 181.805C108.604 178.647 105.825 176.087 102.398 176.087C98.97 176.087 96.1914 178.647 96.1914 181.805C96.1914 184.963 98.97 187.523 102.398 187.523Z" fill="#E6E6E6"/>
<path d="M128.257 187.523C131.685 187.523 134.463 184.963 134.463 181.805C134.463 178.647 131.685 176.087 128.257 176.087C124.829 176.087 122.051 178.647 122.051 181.805C122.051 184.963 124.829 187.523 128.257 187.523Z" fill="#E6E6E6"/>
<path d="M128.257 169.416C131.685 169.416 134.463 166.856 134.463 163.698C134.463 160.541 131.685 157.98 128.257 157.98C124.829 157.98 122.051 160.541 122.051 163.698C122.051 166.856 124.829 169.416 128.257 169.416Z" fill="#E6E6E6"/>
<path d="M154.116 169.416C157.544 169.416 160.323 166.856 160.323 163.698C160.323 160.541 157.544 157.98 154.116 157.98C150.689 157.98 147.91 160.541 147.91 163.698C147.91 166.856 150.689 169.416 154.116 169.416Z" fill="#5E9ED4"/>
<path d="M179.976 169.416C183.403 169.416 186.182 166.856 186.182 163.698C186.182 160.541 183.403 157.98 179.976 157.98C176.548 157.98 173.77 160.541 173.77 163.698C173.77 166.856 176.548 169.416 179.976 169.416Z" fill="#5E9ED4"/>
<path d="M205.835 169.416C209.263 169.416 212.041 166.856 212.041 163.698C212.041 160.541 209.263 157.98 205.835 157.98C202.408 157.98 199.629 160.541 199.629 163.698C199.629 166.856 202.408 169.416 205.835 169.416Z" fill="#5E9ED4"/>
<path d="M231.694 169.416C235.122 169.416 237.901 166.856 237.901 163.698C237.901 160.541 235.122 157.98 231.694 157.98C228.267 157.98 225.488 160.541 225.488 163.698C225.488 166.856 228.267 169.416 231.694 169.416Z" fill="#E6E6E6"/>
<path d="M107.135 58.8347C106.152 58.8496 105.214 59.2201 104.524 59.8663C103.834 60.5124 103.447 61.3825 103.447 62.2889C103.447 63.1953 103.834 64.0653 104.524 64.7115C105.214 65.3576 106.152 65.7281 107.135 65.743H201.137C201.63 65.751 202.12 65.6694 202.578 65.5029C203.036 65.3364 203.455 65.0884 203.809 64.7728C204.163 64.4573 204.447 64.0805 204.643 63.6641C204.839 63.2476 204.944 62.7996 204.952 62.3457C204.96 61.8917 204.871 61.4408 204.69 61.0186C204.509 60.5964 204.239 60.2113 203.896 59.8852C203.553 59.5591 203.144 59.2985 202.692 59.1183C202.24 58.938 201.753 58.8417 201.26 58.8347C201.219 58.8341 201.178 58.8341 201.137 58.8347H107.135Z" fill="#3F3D56"/>
<path d="M222.455 57.8729C222.386 57.936 222.332 58.011 222.295 58.0934C222.258 58.1759 222.238 58.2643 222.238 58.3535C222.238 58.4428 222.258 58.5312 222.295 58.6137C222.332 58.6961 222.386 58.7711 222.455 58.8342L225.622 61.7521H217.812C217.616 61.7521 217.429 61.8237 217.29 61.9511C217.152 62.0786 217.074 62.2515 217.074 62.4318C217.074 62.612 217.152 62.7849 217.29 62.9124C217.429 63.0399 217.616 63.1115 217.812 63.1115H225.622L222.455 66.0294C222.386 66.0925 222.332 66.1674 222.295 66.2499C222.258 66.3323 222.238 66.4207 222.238 66.51C222.238 66.5992 222.258 66.6876 222.295 66.7701C222.332 66.8526 222.386 66.9275 222.455 66.9906C222.523 67.0537 222.604 67.1038 222.694 67.1379C222.783 67.1721 222.879 67.1897 222.976 67.1897C223.073 67.1897 223.169 67.1721 223.258 67.138C223.348 67.1038 223.429 67.0537 223.498 66.9906L227.924 62.9124C228.063 62.7849 228.14 62.612 228.14 62.4318C228.14 62.2515 228.063 62.0786 227.924 61.9511L223.498 57.8729C223.429 57.8098 223.348 57.7597 223.259 57.7256C223.169 57.6914 223.073 57.6738 222.976 57.6738C222.879 57.6738 222.783 57.6914 222.694 57.7256C222.604 57.7597 222.523 57.8098 222.455 57.8729Z" fill="#E6E6E6"/>
<path d="M85.7781 57.8729C85.8467 57.936 85.901 58.011 85.9381 58.0934C85.9752 58.1759 85.9942 58.2643 85.9942 58.3535C85.9942 58.4428 85.9752 58.5312 85.9381 58.6137C85.901 58.6961 85.8467 58.7711 85.7781 58.8342L82.6111 61.7521H90.4207C90.6164 61.7521 90.804 61.8237 90.9423 61.9511C91.0807 62.0786 91.1584 62.2515 91.1584 62.4318C91.1584 62.612 91.0807 62.7849 90.9423 62.9124C90.804 63.0399 90.6164 63.1115 90.4207 63.1115H82.6111L85.7781 66.0294C85.9165 66.1568 85.9942 66.3297 85.9942 66.51C85.9942 66.6903 85.9165 66.8631 85.7782 66.9906C85.6398 67.1181 85.4522 67.1897 85.2565 67.1897C85.0608 67.1897 84.8732 67.1181 84.7348 66.9906L80.3084 62.9124C80.17 62.7849 80.0923 62.612 80.0923 62.4318C80.0923 62.2515 80.17 62.0786 80.3084 61.9511L84.7348 57.8729C84.8033 57.8098 84.8847 57.7597 84.9742 57.7256C85.0637 57.6914 85.1596 57.6738 85.2565 57.6738C85.3534 57.6738 85.4493 57.6914 85.5388 57.7256C85.6283 57.7597 85.7096 57.8098 85.7781 57.8729Z" fill="#E6E6E6"/>
<path d="M101.88 224.018C100.114 224.017 98.3642 224.337 96.7317 224.959C95.0992 225.581 93.6157 226.493 92.3661 227.644C91.1165 228.795 90.1251 230.161 89.4488 231.664C88.7724 233.168 88.4243 234.78 88.4243 236.407C88.4243 238.035 88.7724 239.647 89.4488 241.15C90.1251 242.654 91.1165 244.02 92.3661 245.171C93.6157 246.321 95.0992 247.234 96.7317 247.856C98.3642 248.478 100.114 248.797 101.88 248.796H206.353C208.119 248.797 209.869 248.478 211.501 247.856C213.134 247.234 214.617 246.321 215.867 245.171C217.117 244.02 218.108 242.654 218.784 241.15C219.461 239.647 219.809 238.035 219.809 236.407C219.809 234.78 219.461 233.168 218.784 231.664C218.108 230.161 217.117 228.795 215.867 227.644C214.617 226.493 213.134 225.581 211.501 224.959C209.869 224.337 208.119 224.017 206.353 224.018H101.88Z" fill="#E6E6E6"/>
<path d="M21.6096 39.8191C17.3357 39.8191 13.1577 38.6514 9.60397 36.4637C6.05028 34.2761 3.28053 31.1666 1.64495 27.5286C0.00936352 23.8906 -0.41858 19.8875 0.415233 16.0254C1.24904 12.1633 3.30716 8.61578 6.32932 5.83138C9.35148 3.04698 13.2019 1.15078 17.3938 0.382566C21.5857 -0.385648 25.9306 0.00862355 29.8793 1.51553C33.8279 3.02244 37.2029 5.5743 39.5774 8.8484C41.9519 12.1225 43.2193 15.9718 43.2193 19.9095C43.2128 25.1881 40.934 30.2487 36.8828 33.9811C32.8316 37.7136 27.3389 39.8131 21.6096 39.8191Z" fill="#5E9ED4"/>
<path d="M30.1361 17.9457H23.7412V12.0538C23.7412 11.5329 23.5166 11.0334 23.1168 10.6651C22.7171 10.2968 22.1748 10.0898 21.6095 10.0898C21.0441 10.0898 20.5019 10.2968 20.1022 10.6651C19.7024 11.0334 19.4778 11.5329 19.4778 12.0538V17.9457H13.0828C12.5175 17.9457 11.9753 18.1526 11.5755 18.5209C11.1758 18.8892 10.9512 19.3888 10.9512 19.9096C10.9512 20.4305 11.1758 20.9301 11.5755 21.2984C11.9753 21.6667 12.5175 21.8736 13.0828 21.8736H19.4778V27.7655C19.4778 28.2864 19.7024 28.7859 20.1022 29.1542C20.5019 29.5225 21.0441 29.7295 21.6095 29.7295C22.1748 29.7295 22.7171 29.5225 23.1168 29.1542C23.5166 28.7859 23.7412 28.2864 23.7412 27.7655V21.8736H30.1361C30.7014 21.8736 31.2436 21.6667 31.6434 21.2984C32.0431 20.9301 32.2677 20.4305 32.2677 19.9096C32.2677 19.3888 32.0431 18.8892 31.6434 18.5209C31.2436 18.1526 30.7014 17.9457 30.1361 17.9457Z" fill="white"/>
<path d="M41.7344 363V345.938H47.582C49.5117 345.938 50.9805 346.324 51.9883 347.098C52.9961 347.871 53.5 349.023 53.5 350.555C53.5 351.336 53.2891 352.039 52.8672 352.664C52.4453 353.289 51.8281 353.773 51.0156 354.117C51.9375 354.367 52.6484 354.84 53.1484 355.535C53.6562 356.223 53.9102 357.051 53.9102 358.02C53.9102 359.621 53.3945 360.852 52.3633 361.711C51.3398 362.57 49.8711 363 47.957 363H41.7344ZM44.6992 355.301V360.633H47.9922C48.9219 360.633 49.6484 360.402 50.1719 359.941C50.6953 359.48 50.957 358.84 50.957 358.02C50.957 356.246 50.0508 355.34 48.2383 355.301H44.6992ZM44.6992 353.121H47.6055C48.5273 353.121 49.2461 352.914 49.7617 352.5C50.2852 352.078 50.5469 351.484 50.5469 350.719C50.5469 349.875 50.3047 349.266 49.8203 348.891C49.3438 348.516 48.5977 348.328 47.582 348.328H44.6992V353.121ZM64.2812 361.758C63.4453 362.742 62.2578 363.234 60.7188 363.234C59.3438 363.234 58.3008 362.832 57.5898 362.027C56.8867 361.223 56.5352 360.059 56.5352 358.535V350.32H59.3828V358.5C59.3828 360.109 60.0508 360.914 61.3867 360.914C62.7695 360.914 63.7031 360.418 64.1875 359.426V350.32H67.0352V363H64.3516L64.2812 361.758ZM77.043 359.555C77.043 359.047 76.832 358.66 76.4102 358.395C75.9961 358.129 75.3047 357.895 74.3359 357.691C73.3672 357.488 72.5586 357.23 71.9102 356.918C70.4883 356.23 69.7773 355.234 69.7773 353.93C69.7773 352.836 70.2383 351.922 71.1602 351.188C72.082 350.453 73.2539 350.086 74.6758 350.086C76.1914 350.086 77.4141 350.461 78.3438 351.211C79.2812 351.961 79.75 352.934 79.75 354.129H76.9023C76.9023 353.582 76.6992 353.129 76.293 352.77C75.8867 352.402 75.3477 352.219 74.6758 352.219C74.0508 352.219 73.5391 352.363 73.1406 352.652C72.75 352.941 72.5547 353.328 72.5547 353.812C72.5547 354.25 72.7383 354.59 73.1055 354.832C73.4727 355.074 74.2148 355.32 75.332 355.57C76.4492 355.812 77.3242 356.105 77.957 356.449C78.5977 356.785 79.0703 357.191 79.375 357.668C79.6875 358.145 79.8438 358.723 79.8438 359.402C79.8438 360.543 79.3711 361.469 78.4258 362.18C77.4805 362.883 76.2422 363.234 74.7109 363.234C73.6719 363.234 72.7461 363.047 71.9336 362.672C71.1211 362.297 70.4883 361.781 70.0352 361.125C69.582 360.469 69.3555 359.762 69.3555 359.004H72.1211C72.1602 359.676 72.4141 360.195 72.8828 360.562C73.3516 360.922 73.9727 361.102 74.7461 361.102C75.4961 361.102 76.0664 360.961 76.457 360.68C76.8477 360.391 77.043 360.016 77.043 359.555ZM87.543 360.961C88.2539 360.961 88.8438 360.754 89.3125 360.34C89.7812 359.926 90.0312 359.414 90.0625 358.805H92.7461C92.7148 359.594 92.4688 360.332 92.0078 361.02C91.5469 361.699 90.9219 362.238 90.1328 362.637C89.3438 363.035 88.4922 363.234 87.5781 363.234C85.8047 363.234 84.3984 362.66 83.3594 361.512C82.3203 360.363 81.8008 358.777 81.8008 356.754V356.461C81.8008 354.531 82.3164 352.988 83.3477 351.832C84.3789 350.668 85.7852 350.086 87.5664 350.086C89.0742 350.086 90.3008 350.527 91.2461 351.41C92.1992 352.285 92.6992 353.438 92.7461 354.867H90.0625C90.0312 354.141 89.7812 353.543 89.3125 353.074C88.8516 352.605 88.2617 352.371 87.543 352.371C86.6211 352.371 85.9102 352.707 85.4102 353.379C84.9102 354.043 84.6562 355.055 84.6484 356.414V356.871C84.6484 358.246 84.8945 359.273 85.3867 359.953C85.8867 360.625 86.6055 360.961 87.543 360.961ZM102.473 363C102.348 362.758 102.238 362.363 102.145 361.816C101.238 362.762 100.129 363.234 98.8164 363.234C97.543 363.234 96.5039 362.871 95.6992 362.145C94.8945 361.418 94.4922 360.52 94.4922 359.449C94.4922 358.098 94.9922 357.062 95.9922 356.344C97 355.617 98.4375 355.254 100.305 355.254H102.051V354.422C102.051 353.766 101.867 353.242 101.5 352.852C101.133 352.453 100.574 352.254 99.8242 352.254C99.1758 352.254 98.6445 352.418 98.2305 352.746C97.8164 353.066 97.6094 353.477 97.6094 353.977H94.7617C94.7617 353.281 94.9922 352.633 95.4531 352.031C95.9141 351.422 96.5391 350.945 97.3281 350.602C98.125 350.258 99.0117 350.086 99.9883 350.086C101.473 350.086 102.656 350.461 103.539 351.211C104.422 351.953 104.875 353 104.898 354.352V360.07C104.898 361.211 105.059 362.121 105.379 362.801V363H102.473ZM99.3438 360.949C99.9062 360.949 100.434 360.812 100.926 360.539C101.426 360.266 101.801 359.898 102.051 359.438V357.047H100.516C99.4609 357.047 98.668 357.23 98.1367 357.598C97.6055 357.965 97.3398 358.484 97.3398 359.156C97.3398 359.703 97.5195 360.141 97.8789 360.469C98.2461 360.789 98.7344 360.949 99.3438 360.949ZM124.961 356.789C124.961 358.75 124.516 360.316 123.625 361.488C122.734 362.652 121.539 363.234 120.039 363.234C118.648 363.234 117.535 362.777 116.699 361.863V367.875H113.852V350.32H116.477L116.594 351.609C117.43 350.594 118.566 350.086 120.004 350.086C121.551 350.086 122.762 350.664 123.637 351.82C124.52 352.969 124.961 354.566 124.961 356.613V356.789ZM122.125 356.543C122.125 355.277 121.871 354.273 121.363 353.531C120.863 352.789 120.145 352.418 119.207 352.418C118.043 352.418 117.207 352.898 116.699 353.859V359.484C117.215 360.469 118.059 360.961 119.23 360.961C120.137 360.961 120.844 360.598 121.352 359.871C121.867 359.137 122.125 358.027 122.125 356.543ZM126.848 356.543C126.848 355.301 127.094 354.184 127.586 353.191C128.078 352.191 128.77 351.426 129.66 350.895C130.551 350.355 131.574 350.086 132.73 350.086C134.441 350.086 135.828 350.637 136.891 351.738C137.961 352.84 138.539 354.301 138.625 356.121L138.637 356.789C138.637 358.039 138.395 359.156 137.91 360.141C137.434 361.125 136.746 361.887 135.848 362.426C134.957 362.965 133.926 363.234 132.754 363.234C130.965 363.234 129.531 362.641 128.453 361.453C127.383 360.258 126.848 358.668 126.848 356.684V356.543ZM129.695 356.789C129.695 358.094 129.965 359.117 130.504 359.859C131.043 360.594 131.793 360.961 132.754 360.961C133.715 360.961 134.461 360.586 134.992 359.836C135.531 359.086 135.801 357.988 135.801 356.543C135.801 355.262 135.523 354.246 134.969 353.496C134.422 352.746 133.676 352.371 132.73 352.371C131.801 352.371 131.062 352.742 130.516 353.484C129.969 354.219 129.695 355.32 129.695 356.789ZM147.684 352.922C147.309 352.859 146.922 352.828 146.523 352.828C145.219 352.828 144.34 353.328 143.887 354.328V363H141.039V350.32H143.758L143.828 351.738C144.516 350.637 145.469 350.086 146.688 350.086C147.094 350.086 147.43 350.141 147.695 350.25L147.684 352.922ZM158.488 363H155.641V345H158.488V363ZM161.066 356.543C161.066 355.301 161.312 354.184 161.805 353.191C162.297 352.191 162.988 351.426 163.879 350.895C164.77 350.355 165.793 350.086 166.949 350.086C168.66 350.086 170.047 350.637 171.109 351.738C172.18 352.84 172.758 354.301 172.844 356.121L172.855 356.789C172.855 358.039 172.613 359.156 172.129 360.141C171.652 361.125 170.965 361.887 170.066 362.426C169.176 362.965 168.145 363.234 166.973 363.234C165.184 363.234 163.75 362.641 162.672 361.453C161.602 360.258 161.066 358.668 161.066 356.684V356.543ZM163.914 356.789C163.914 358.094 164.184 359.117 164.723 359.859C165.262 360.594 166.012 360.961 166.973 360.961C167.934 360.961 168.68 360.586 169.211 359.836C169.75 359.086 170.02 357.988 170.02 356.543C170.02 355.262 169.742 354.246 169.188 353.496C168.641 352.746 167.895 352.371 166.949 352.371C166.02 352.371 165.281 352.742 164.734 353.484C164.188 354.219 163.914 355.32 163.914 356.789ZM182.371 359.555C182.371 359.047 182.16 358.66 181.738 358.395C181.324 358.129 180.633 357.895 179.664 357.691C178.695 357.488 177.887 357.23 177.238 356.918C175.816 356.23 175.105 355.234 175.105 353.93C175.105 352.836 175.566 351.922 176.488 351.188C177.41 350.453 178.582 350.086 180.004 350.086C181.52 350.086 182.742 350.461 183.672 351.211C184.609 351.961 185.078 352.934 185.078 354.129H182.23C182.23 353.582 182.027 353.129 181.621 352.77C181.215 352.402 180.676 352.219 180.004 352.219C179.379 352.219 178.867 352.363 178.469 352.652C178.078 352.941 177.883 353.328 177.883 353.812C177.883 354.25 178.066 354.59 178.434 354.832C178.801 355.074 179.543 355.32 180.66 355.57C181.777 355.812 182.652 356.105 183.285 356.449C183.926 356.785 184.398 357.191 184.703 357.668C185.016 358.145 185.172 358.723 185.172 359.402C185.172 360.543 184.699 361.469 183.754 362.18C182.809 362.883 181.57 363.234 180.039 363.234C179 363.234 178.074 363.047 177.262 362.672C176.449 362.297 175.816 361.781 175.363 361.125C174.91 360.469 174.684 359.762 174.684 359.004H177.449C177.488 359.676 177.742 360.195 178.211 360.562C178.68 360.922 179.301 361.102 180.074 361.102C180.824 361.102 181.395 360.961 181.785 360.68C182.176 360.391 182.371 360.016 182.371 359.555ZM194.395 363V352.43H192.461V350.32H194.395V349.453C194.402 348.461 194.613 347.609 195.027 346.898C195.441 346.188 196.027 345.652 196.785 345.293C197.543 344.934 198.453 344.754 199.516 344.754C200.141 344.754 200.738 344.82 201.309 344.953C201.887 345.086 202.484 345.254 203.102 345.457L202.668 347.812C201.59 347.438 200.605 347.25 199.715 347.25C198.848 347.25 198.219 347.441 197.828 347.824C197.438 348.199 197.242 348.766 197.242 349.523V350.32H199.738V352.43H197.242V363H194.395ZM204.449 363H201.602V350.32H204.449V363ZM210.637 363H207.789V345H210.637V363ZM217.316 347.238V350.32H219.555V352.43H217.316V359.508C217.316 359.992 217.41 360.344 217.598 360.562C217.793 360.773 218.137 360.879 218.629 360.879C218.957 360.879 219.289 360.84 219.625 360.762V362.965C218.977 363.145 218.352 363.234 217.75 363.234C215.562 363.234 214.469 362.027 214.469 359.613V352.43H212.383V350.32H214.469V347.238H217.316ZM228.379 352.922C228.004 352.859 227.617 352.828 227.219 352.828C225.914 352.828 225.035 353.328 224.582 354.328V363H221.734V350.32H224.453L224.523 351.738C225.211 350.637 226.164 350.086 227.383 350.086C227.789 350.086 228.125 350.141 228.391 350.25L228.379 352.922ZM229.223 356.543C229.223 355.301 229.469 354.184 229.961 353.191C230.453 352.191 231.145 351.426 232.035 350.895C232.926 350.355 233.949 350.086 235.105 350.086C236.816 350.086 238.203 350.637 239.266 351.738C240.336 352.84 240.914 354.301 241 356.121L241.012 356.789C241.012 358.039 240.77 359.156 240.285 360.141C239.809 361.125 239.121 361.887 238.223 362.426C237.332 362.965 236.301 363.234 235.129 363.234C233.34 363.234 231.906 362.641 230.828 361.453C229.758 360.258 229.223 358.668 229.223 356.684V356.543ZM232.07 356.789C232.07 358.094 232.34 359.117 232.879 359.859C233.418 360.594 234.168 360.961 235.129 360.961C236.09 360.961 236.836 360.586 237.367 359.836C237.906 359.086 238.176 357.988 238.176 356.543C238.176 355.262 237.898 354.246 237.344 353.496C236.797 352.746 236.051 352.371 235.105 352.371C234.176 352.371 233.438 352.742 232.891 353.484C232.344 354.219 232.07 355.32 232.07 356.789ZM250.527 359.555C250.527 359.047 250.316 358.66 249.895 358.395C249.48 358.129 248.789 357.895 247.82 357.691C246.852 357.488 246.043 357.23 245.395 356.918C243.973 356.23 243.262 355.234 243.262 353.93C243.262 352.836 243.723 351.922 244.645 351.188C245.566 350.453 246.738 350.086 248.16 350.086C249.676 350.086 250.898 350.461 251.828 351.211C252.766 351.961 253.234 352.934 253.234 354.129H250.387C250.387 353.582 250.184 353.129 249.777 352.77C249.371 352.402 248.832 352.219 248.16 352.219C247.535 352.219 247.023 352.363 246.625 352.652C246.234 352.941 246.039 353.328 246.039 353.812C246.039 354.25 246.223 354.59 246.59 354.832C246.957 355.074 247.699 355.32 248.816 355.57C249.934 355.812 250.809 356.105 251.441 356.449C252.082 356.785 252.555 357.191 252.859 357.668C253.172 358.145 253.328 358.723 253.328 359.402C253.328 360.543 252.855 361.469 251.91 362.18C250.965 362.883 249.727 363.234 248.195 363.234C247.156 363.234 246.23 363.047 245.418 362.672C244.605 362.297 243.973 361.781 243.52 361.125C243.066 360.469 242.84 359.762 242.84 359.004H245.605C245.645 359.676 245.898 360.195 246.367 360.562C246.836 360.922 247.457 361.102 248.23 361.102C248.98 361.102 249.551 360.961 249.941 360.68C250.332 360.391 250.527 360.016 250.527 359.555Z" fill="#E6E6E6"/>
</g>
<defs>
<clipPath id="clip0_46_5326">
<rect width="489" height="392" fill="white"/>
</clipPath>
</defs>
</svg>
