<svg width="50" height="50" viewBox="0 0 50 50" fill="none" xmlns="http://www.w3.org/2000/svg">
<path d="M24.2423 40.0234C22.7563 40.0234 21.4868 40.4953 20.436 41.4367C19.386 42.3773 18.8579 43.5164 18.8579 44.8594C18.8579 46.3727 19.3892 47.5602 20.4501 48.4242C21.5142 49.2883 22.7532 49.7242 24.1696 49.7242C25.6095 49.7242 26.8657 49.2945 27.9407 48.4422C29.0149 47.5859 29.5517 46.393 29.5517 44.8586C29.5517 43.5156 29.0384 42.3766 28.011 41.4359C26.9837 40.4961 25.729 40.0234 24.2399 40.0234" fill="#BE212F"/>
<path d="M39.4203 6.73203C38.0531 4.65703 36.0992 2.99766 33.6094 1.79531C31.1336 0.603906 28.25 0 25.0359 0C21.5758 0 18.4961 0.723437 15.8867 2.15078C13.2742 3.58047 11.2555 5.41484 9.88672 7.60234C8.51172 9.80078 7.8125 12.0117 7.8125 14.1758C7.8125 15.3297 8.29375 16.407 9.2375 17.3758C10.1859 18.3508 11.3656 18.8438 12.7438 18.8438C15.0953 18.8438 16.6977 17.4641 17.5133 14.7578C18.2562 12.5195 19.1727 10.8125 20.232 9.68125C21.2289 8.61563 22.8461 8.075 25.0359 8.075C26.925 8.075 28.4156 8.60469 29.5984 9.69609C30.7633 10.7727 31.3305 12.0555 31.3305 13.618C31.3305 14.407 31.1461 15.1156 30.7766 15.7859C30.3836 16.4891 29.8937 17.1352 29.3211 17.7102C28.7156 18.3164 27.7164 19.2266 26.3508 20.4234C24.7602 21.818 23.4766 23.0391 22.5422 24.0531C21.5656 25.107 20.7742 26.3461 20.1828 27.7344C19.5922 29.132 19.2922 30.8 19.2922 32.6945C19.2922 34.3109 19.743 35.5625 20.6336 36.4148C21.5148 37.2586 22.6125 37.6883 23.8977 37.6883C26.3547 37.6883 27.8984 36.3453 28.3578 33.8328C28.5906 32.7883 28.7672 32.0586 28.8844 31.6438C28.9906 31.2664 29.1445 30.8789 29.3422 30.4922C29.5344 30.1156 29.8383 29.6891 30.2484 29.2227C30.6758 28.7297 31.2531 28.1516 31.9609 27.5055C34.6086 25.1383 36.4766 23.4258 37.5125 22.4117C38.5812 21.3672 39.5133 20.1102 40.2828 18.6789C41.075 17.2141 41.4766 15.4883 41.4766 13.5547C41.4781 11.1086 40.7836 8.81094 39.4164 6.72891" fill="#BE212F"/>
</svg>
