<svg width="38" height="36" viewBox="0 0 38 36" fill="none" xmlns="http://www.w3.org/2000/svg">
<path d="M36.1 2.25H1.9C0.850844 2.25 0 3.25758 0 4.5V31.5C0 32.7424 0.850844 33.75 1.9 33.75H36.1C37.1492 33.75 38 32.7424 38 31.5V4.5C38 3.25758 37.1492 2.25 36.1 2.25ZM10.45 23.0541V24.1875C10.45 24.4983 10.2374 24.75 9.975 24.75H9.025C8.76256 24.75 8.55 24.4983 8.55 24.1875V23.0421C7.87966 23.0013 7.22772 22.7243 6.68741 22.2441C6.45584 22.038 6.44397 21.6274 6.65356 21.3905L7.35122 20.6023C7.51569 20.4166 7.76031 20.4082 7.95269 20.5509C8.18247 20.7211 8.44312 20.8125 8.71387 20.8125H10.3829C10.7688 20.8125 11.0835 20.3962 11.0835 19.8851C11.0835 19.4667 10.8692 19.0983 10.5628 18.99L7.89094 18.0408C6.78716 17.6484 6.01587 16.3941 6.01587 14.9899C6.01587 13.2659 7.14697 11.8652 8.54941 11.8209V10.6875C8.54941 10.3767 8.76197 10.125 9.02441 10.125H9.97441C10.2368 10.125 10.4494 10.3767 10.4494 10.6875V11.8329C11.1198 11.8737 11.7717 12.15 12.312 12.6309C12.5436 12.837 12.5554 13.2476 12.3458 13.4845L11.6482 14.2727C11.4837 14.4584 11.2391 14.4668 11.0467 14.3241C10.8169 14.1532 10.5563 14.0625 10.2855 14.0625H8.6165C8.23056 14.0625 7.91588 14.4788 7.91588 14.9899C7.91588 15.4083 8.13022 15.7767 8.43659 15.885L11.1085 16.8342C12.2122 17.2266 12.9835 18.4809 12.9835 19.8851C12.9835 21.6098 11.8524 23.0098 10.45 23.0541V23.0541ZM24.7 21.9375C24.7 22.2483 24.4874 22.5 24.225 22.5H17.575C17.3126 22.5 17.1 22.2483 17.1 21.9375V20.8125C17.1 20.5017 17.3126 20.25 17.575 20.25H24.225C24.4874 20.25 24.7 20.5017 24.7 20.8125V21.9375ZM34.2 21.9375C34.2 22.2483 33.9874 22.5 33.725 22.5H28.975C28.7126 22.5 28.5 22.2483 28.5 21.9375V20.8125C28.5 20.5017 28.7126 20.25 28.975 20.25H33.725C33.9874 20.25 34.2 20.5017 34.2 20.8125V21.9375ZM34.2 15.1875C34.2 15.4983 33.9874 15.75 33.725 15.75H17.575C17.3126 15.75 17.1 15.4983 17.1 15.1875V14.0625C17.1 13.7517 17.3126 13.5 17.575 13.5H33.725C33.9874 13.5 34.2 13.7517 34.2 14.0625V15.1875Z" fill="#535353"/>
</svg>
