<svg width="32" height="32" viewBox="0 0 32 32" fill="none" xmlns="http://www.w3.org/2000/svg">
<rect width="32" height="32" fill="#2267A0"/>
<g clip-path="url(#clip0)">
<path d="M6.2439 12.2276H26.5366V23.8235C26.5366 24.8909 25.5803 25.7561 24.4005 25.7561H8.37997C7.20025 25.7561 6.2439 24.8909 6.2439 23.8235V12.2276Z" fill="white"/>
<path d="M6.2439 12.2276H26.5366V23.8235C26.5366 24.8909 25.5803 25.7561 24.4005 25.7561H8.37997C7.20025 25.7561 6.2439 24.8909 6.2439 23.8235V12.2276Z" fill="white"/>
<path d="M17.4583 14.1603H16.3903C15.8004 14.1603 15.3223 14.5929 15.3223 15.1266V22.8571C15.3223 23.3908 15.8004 23.8235 16.3903 23.8235H17.4583C18.0482 23.8235 18.5264 23.3908 18.5264 22.8571V15.1266C18.5264 14.5929 18.0482 14.1603 17.4583 14.1603Z" fill="#2267A0"/>
<path d="M22.2644 19.475V18.5087C22.2644 17.975 21.7862 17.5424 21.1964 17.5424H12.6521C12.0622 17.5424 11.584 17.975 11.584 18.5087V19.475C11.584 20.0087 12.0622 20.4414 12.6521 20.4414H21.1964C21.7862 20.4414 22.2644 20.0087 22.2644 19.475Z" fill="#2267A0"/>
<path d="M6 10.625C6 9.17526 7.48453 8 9.31579 8H23.6842C25.5155 8 27 9.17526 27 10.625V11.5H6V10.625Z" fill="white"/>
<path d="M10 6.5C10 5.67157 10.5037 5 11.125 5H11.875C12.4963 5 13 5.67157 13 6.5V8H10V6.5Z" fill="white"/>
<path d="M20 6.5C20 5.67157 20.5037 5 21.125 5H21.875C22.4963 5 23 5.67157 23 6.5V8H20V6.5Z" fill="white"/>
</g>
<defs>
<clipPath id="clip0">
<rect width="20.2927" height="20.2927" fill="white" transform="translate(6.2439 5.46342)"/>
</clipPath>
</defs>
</svg>
