<svg width="34" height="43" viewBox="0 0 34 43" fill="none" xmlns="http://www.w3.org/2000/svg">
<path d="M29.75 35.8333V10.75C29.75 8.77379 28.4792 7.16667 26.9167 7.16667H24.0833V3.58334H21.25V7.16667H12.75V3.58334H9.91667V7.16667H7.08333C5.52075 7.16667 4.25 8.77379 4.25 10.75V35.8333C4.25 37.8095 5.52075 39.4167 7.08333 39.4167H26.9167C28.4792 39.4167 29.75 37.8095 29.75 35.8333ZM12.75 32.25H9.91667V28.6667H12.75V32.25ZM12.75 25.0833H9.91667V21.5H12.75V25.0833ZM18.4167 32.25H15.5833V28.6667H18.4167V32.25ZM18.4167 25.0833H15.5833V21.5H18.4167V25.0833ZM24.0833 32.25H21.25V28.6667H24.0833V32.25ZM24.0833 25.0833H21.25V21.5H24.0833V25.0833ZM26.9167 16.125H7.08333V12.5417H26.9167V16.125Z" fill="#535353"/>
</svg>
