<svg width="37" height="51" viewBox="0 0 37 51" fill="none" xmlns="http://www.w3.org/2000/svg">
<g clip-path="url(#clip0)">
<path fill-rule="evenodd" clip-rule="evenodd" d="M36.6624 16.4029C36.7701 16.5509 36.8555 16.7268 36.9138 16.9204C36.9721 17.114 37.0021 17.3216 37.0021 17.5312C37.0021 17.7409 36.9721 17.9485 36.9138 18.1421C36.8555 18.3357 36.7701 18.5116 36.6624 18.6596L29.7249 28.2221C29.6175 28.3705 29.4899 28.4883 29.3494 28.5686C29.209 28.649 29.0584 28.6903 28.9063 28.6903C28.7542 28.6903 28.6036 28.649 28.4631 28.5686C28.3227 28.4883 28.1951 28.3705 28.0877 28.2221L24.6189 23.4409C24.4018 23.1416 24.2798 22.7357 24.2798 22.3125C24.2798 21.8893 24.4018 21.4834 24.6189 21.1841C24.836 20.8849 25.1305 20.7167 25.4375 20.7167C25.7446 20.7167 26.039 20.8849 26.2562 21.1841L28.9063 24.8402L35.0251 16.4029C35.1326 16.2545 35.2601 16.1367 35.4006 16.0564C35.5411 15.976 35.6917 15.9347 35.8438 15.9347C35.9959 15.9347 36.1465 15.976 36.2869 16.0564C36.4274 16.1367 36.555 16.2545 36.6624 16.4029V16.4029Z" fill="#535353"/>
<path d="M2.3125 44.625C2.3125 44.625 0 44.625 0 41.4375C0 38.25 2.3125 28.6875 13.875 28.6875C25.4375 28.6875 27.75 38.25 27.75 41.4375C27.75 44.625 25.4375 44.625 25.4375 44.625H2.3125ZM13.875 25.5C15.7149 25.5 17.4795 24.4925 18.7806 22.6992C20.0816 20.9059 20.8125 18.4736 20.8125 15.9375C20.8125 13.4014 20.0816 10.9691 18.7806 9.17579C17.4795 7.38248 15.7149 6.375 13.875 6.375C12.0351 6.375 10.2705 7.38248 8.96945 9.17579C7.66841 10.9691 6.9375 13.4014 6.9375 15.9375C6.9375 18.4736 7.66841 20.9059 8.96945 22.6992C10.2705 24.4925 12.0351 25.5 13.875 25.5V25.5Z" fill="#535353"/>
</g>
<defs>
<clipPath id="clip0">
<rect width="37" height="51" fill="white"/>
</clipPath>
</defs>
</svg>
