<svg width="23" height="35" viewBox="0 0 23 35" fill="none" xmlns="http://www.w3.org/2000/svg">
<path d="M17.25 17.5H5.75V21.875H17.25V17.5ZM22.5807 7.17773L16.7169 0.478516C16.4474 0.170898 16.082 0 15.6987 0H15.3333V8.75H23V8.33301C23 7.90234 22.8503 7.48535 22.5807 7.17773ZM13.4167 9.29688V0H1.4375C0.640885 0 0 0.731445 0 1.64062V33.3594C0 34.2686 0.640885 35 1.4375 35H21.5625C22.3591 35 23 34.2686 23 33.3594V10.9375H14.8542C14.0635 10.9375 13.4167 10.1992 13.4167 9.29688ZM3.83333 4.92188C3.83333 4.61973 4.04776 4.375 4.3125 4.375H9.10417C9.36891 4.375 9.58333 4.61973 9.58333 4.92188V6.01562C9.58333 6.31777 9.36891 6.5625 9.10417 6.5625H4.3125C4.04776 6.5625 3.83333 6.31777 3.83333 6.01562V4.92188ZM3.83333 9.29688C3.83333 8.99473 4.04776 8.75 4.3125 8.75H9.10417C9.36891 8.75 9.58333 8.99473 9.58333 9.29688V10.3906C9.58333 10.6928 9.36891 10.9375 9.10417 10.9375H4.3125C4.04776 10.9375 3.83333 10.6928 3.83333 10.3906V9.29688ZM19.1667 30.0781C19.1667 30.3803 18.9522 30.625 18.6875 30.625H13.8958C13.6311 30.625 13.4167 30.3803 13.4167 30.0781V28.9844C13.4167 28.6822 13.6311 28.4375 13.8958 28.4375H18.6875C18.9522 28.4375 19.1667 28.6822 19.1667 28.9844V30.0781ZM19.1667 16.4062V22.9688C19.1667 23.573 18.7378 24.0625 18.2083 24.0625H4.79167C4.26219 24.0625 3.83333 23.573 3.83333 22.9688V16.4062C3.83333 15.802 4.26219 15.3125 4.79167 15.3125H18.2083C18.7378 15.3125 19.1667 15.802 19.1667 16.4062Z" fill="#535353"/>
</svg>
