<svg width="527" height="140" viewBox="0 0 527 140" fill="none" xmlns="http://www.w3.org/2000/svg">
<path d="M255.951 16.7475V6.5625C255.951 4.82202 255.297 3.15282 254.133 1.92211C252.968 0.691404 251.389 0 249.742 0C248.096 0 246.516 0.691404 245.352 1.92211C244.187 3.15282 243.533 4.82202 243.533 6.5625V26.5875L239.276 27.4875C237.971 27.764 236.811 28.5474 236.026 29.6831C235.24 30.8187 234.886 32.2243 235.032 33.6225L236.256 45.27C236.414 46.7589 236.907 48.1863 237.693 49.4325L242.778 57.495C243.264 58.2655 243.922 58.8973 244.694 59.3343C245.467 59.7713 246.329 59.9999 247.205 60H269.859C270.797 59.9997 271.719 59.7373 272.53 59.2394C273.341 58.7416 274.013 58.0259 274.479 57.165L279.428 48.0113C280.293 46.4112 280.83 44.6364 281.003 42.8025L281.965 32.6213C282.063 31.5786 281.954 30.5257 281.644 29.5304C281.334 28.5351 280.831 27.6195 280.165 26.8426C279.5 26.0656 278.688 25.4447 277.782 25.0196C276.876 24.5946 275.896 24.375 274.904 24.375H272.843C272.621 24.0576 272.391 23.7474 272.151 23.445C271.473 22.5862 270.342 21.315 269.029 20.76C267.737 20.2125 266.027 20.265 264.92 20.355L264.452 20.4C264.074 19.378 263.372 18.5268 262.465 17.9925C261.649 17.4949 260.766 17.1308 259.847 16.9125C258.747 16.68 257.225 16.695 256.121 16.74L255.951 16.7475Z" fill="#C4C4C4"/>
<rect x="246" y="64" width="26" height="13" fill="#C4C4C4"/>
<circle cx="266.5" cy="70.5" r="2.5" fill="white"/>
<path d="M4.05273 135H1.5918V120.781H4.05273V135ZM9.0625 124.434L9.13086 125.654C9.91211 124.71 10.9375 124.238 12.207 124.238C14.4076 124.238 15.5273 125.498 15.5664 128.018V135H13.1934V128.154C13.1934 127.484 13.0469 126.989 12.7539 126.67C12.4674 126.344 11.9954 126.182 11.3379 126.182C10.3809 126.182 9.66797 126.615 9.19922 127.48V135H6.82617V124.434H9.0625ZM17.5781 129.639C17.5781 127.998 17.9622 126.689 18.7305 125.713C19.5052 124.73 20.5306 124.238 21.8066 124.238C23.0111 124.238 23.9583 124.658 24.6484 125.498L24.7559 124.434H26.8945V134.678C26.8945 136.064 26.4616 137.158 25.5957 137.959C24.7363 138.76 23.5742 139.16 22.1094 139.16C21.3346 139.16 20.5762 138.997 19.834 138.672C19.0983 138.353 18.5384 137.933 18.1543 137.412L19.2773 135.986C20.0065 136.852 20.9049 137.285 21.9727 137.285C22.7604 137.285 23.3822 137.07 23.8379 136.641C24.2936 136.217 24.5215 135.592 24.5215 134.766V134.053C23.8379 134.814 22.9264 135.195 21.7871 135.195C20.5501 135.195 19.5378 134.704 18.75 133.721C17.9688 132.738 17.5781 131.377 17.5781 129.639ZM19.9414 129.844C19.9414 130.905 20.1562 131.742 20.5859 132.354C21.0221 132.959 21.6243 133.262 22.3926 133.262C23.3496 133.262 24.0592 132.852 24.5215 132.031V127.383C24.0723 126.582 23.3691 126.182 22.4121 126.182C21.6309 126.182 21.0221 126.491 20.5859 127.109C20.1562 127.728 19.9414 128.639 19.9414 129.844ZM34.873 126.602C34.5605 126.549 34.2383 126.523 33.9062 126.523C32.819 126.523 32.0866 126.94 31.709 127.773V135H29.3359V124.434H31.6016L31.6602 125.615C32.2331 124.697 33.0273 124.238 34.043 124.238C34.3815 124.238 34.6615 124.284 34.8828 124.375L34.873 126.602ZM40.8301 135.195C39.3262 135.195 38.1055 134.723 37.168 133.779C36.237 132.829 35.7715 131.566 35.7715 129.99V129.697C35.7715 128.643 35.9733 127.702 36.377 126.875C36.7871 126.042 37.36 125.394 38.0957 124.932C38.8314 124.469 39.6517 124.238 40.5566 124.238C41.9954 124.238 43.1055 124.697 43.8867 125.615C44.6745 126.533 45.0684 127.832 45.0684 129.512V130.469H38.1641C38.2357 131.341 38.5254 132.031 39.0332 132.539C39.5475 133.047 40.1921 133.301 40.9668 133.301C42.054 133.301 42.9395 132.861 43.623 131.982L44.9023 133.203C44.4792 133.835 43.9128 134.326 43.2031 134.678C42.5 135.023 41.709 135.195 40.8301 135.195ZM40.5469 126.143C39.8958 126.143 39.3685 126.37 38.9648 126.826C38.5677 127.282 38.3138 127.917 38.2031 128.73H42.7246V128.555C42.6725 127.76 42.4609 127.161 42.0898 126.758C41.7188 126.348 41.2044 126.143 40.5469 126.143ZM52.8418 132.129C52.8418 131.706 52.666 131.383 52.3145 131.162C51.9694 130.941 51.3932 130.745 50.5859 130.576C49.7786 130.407 49.1048 130.192 48.5645 129.932C47.3796 129.359 46.7871 128.529 46.7871 127.441C46.7871 126.53 47.1712 125.768 47.9395 125.156C48.7077 124.544 49.6842 124.238 50.8691 124.238C52.1322 124.238 53.151 124.551 53.9258 125.176C54.707 125.801 55.0977 126.611 55.0977 127.607H52.7246C52.7246 127.152 52.5553 126.774 52.2168 126.475C51.8783 126.169 51.429 126.016 50.8691 126.016C50.3483 126.016 49.9219 126.136 49.5898 126.377C49.2643 126.618 49.1016 126.94 49.1016 127.344C49.1016 127.708 49.2546 127.992 49.5605 128.193C49.8665 128.395 50.485 128.6 51.416 128.809C52.347 129.01 53.0762 129.255 53.6035 129.541C54.1374 129.821 54.5312 130.16 54.7852 130.557C55.0456 130.954 55.1758 131.436 55.1758 132.002C55.1758 132.952 54.7819 133.724 53.9941 134.316C53.2064 134.902 52.1745 135.195 50.8984 135.195C50.0326 135.195 49.2611 135.039 48.584 134.727C47.9069 134.414 47.3796 133.984 47.002 133.438C46.6243 132.891 46.4355 132.301 46.4355 131.67H48.7402C48.7728 132.23 48.9844 132.663 49.375 132.969C49.7656 133.268 50.2832 133.418 50.9277 133.418C51.5527 133.418 52.028 133.301 52.3535 133.066C52.679 132.826 52.8418 132.513 52.8418 132.129ZM61.9043 135.195C60.4004 135.195 59.1797 134.723 58.2422 133.779C57.3112 132.829 56.8457 131.566 56.8457 129.99V129.697C56.8457 128.643 57.0475 127.702 57.4512 126.875C57.8613 126.042 58.4342 125.394 59.1699 124.932C59.9056 124.469 60.7259 124.238 61.6309 124.238C63.0697 124.238 64.1797 124.697 64.9609 125.615C65.7487 126.533 66.1426 127.832 66.1426 129.512V130.469H59.2383C59.3099 131.341 59.5996 132.031 60.1074 132.539C60.6217 133.047 61.2663 133.301 62.041 133.301C63.1283 133.301 64.0137 132.861 64.6973 131.982L65.9766 133.203C65.5534 133.835 64.987 134.326 64.2773 134.678C63.5742 135.023 62.7832 135.195 61.9043 135.195ZM61.6211 126.143C60.9701 126.143 60.4427 126.37 60.0391 126.826C59.6419 127.282 59.388 127.917 59.2773 128.73H63.7988V128.555C63.7467 127.76 63.5352 127.161 63.1641 126.758C62.793 126.348 62.2786 126.143 61.6211 126.143ZM75.498 135H73.125V120H75.498V135ZM77.6465 129.619C77.6465 128.584 77.8516 127.653 78.2617 126.826C78.6719 125.993 79.248 125.355 79.9902 124.912C80.7324 124.463 81.5853 124.238 82.5488 124.238C83.9746 124.238 85.1302 124.697 86.0156 125.615C86.9076 126.533 87.3893 127.751 87.4609 129.268L87.4707 129.824C87.4707 130.866 87.2689 131.797 86.8652 132.617C86.4681 133.438 85.8952 134.072 85.1465 134.521C84.4043 134.971 83.5449 135.195 82.5684 135.195C81.0775 135.195 79.8828 134.701 78.9844 133.711C78.0924 132.715 77.6465 131.39 77.6465 129.736V129.619ZM80.0195 129.824C80.0195 130.911 80.2441 131.764 80.6934 132.383C81.1426 132.995 81.7676 133.301 82.5684 133.301C83.3691 133.301 83.9909 132.988 84.4336 132.363C84.8828 131.738 85.1074 130.824 85.1074 129.619C85.1074 128.551 84.8763 127.705 84.4141 127.08C83.9583 126.455 83.3366 126.143 82.5488 126.143C81.7741 126.143 81.1589 126.452 80.7031 127.07C80.2474 127.682 80.0195 128.6 80.0195 129.824ZM95.4004 132.129C95.4004 131.706 95.2246 131.383 94.873 131.162C94.528 130.941 93.9518 130.745 93.1445 130.576C92.3372 130.407 91.6634 130.192 91.123 129.932C89.9382 129.359 89.3457 128.529 89.3457 127.441C89.3457 126.53 89.7298 125.768 90.498 125.156C91.2663 124.544 92.2428 124.238 93.4277 124.238C94.6908 124.238 95.7096 124.551 96.4844 125.176C97.2656 125.801 97.6562 126.611 97.6562 127.607H95.2832C95.2832 127.152 95.1139 126.774 94.7754 126.475C94.4368 126.169 93.9876 126.016 93.4277 126.016C92.9069 126.016 92.4805 126.136 92.1484 126.377C91.8229 126.618 91.6602 126.94 91.6602 127.344C91.6602 127.708 91.8132 127.992 92.1191 128.193C92.4251 128.395 93.0436 128.6 93.9746 128.809C94.9056 129.01 95.6348 129.255 96.1621 129.541C96.696 129.821 97.0898 130.16 97.3438 130.557C97.6042 130.954 97.7344 131.436 97.7344 132.002C97.7344 132.952 97.3405 133.724 96.5527 134.316C95.765 134.902 94.7331 135.195 93.457 135.195C92.5911 135.195 91.8197 135.039 91.1426 134.727C90.4655 134.414 89.9382 133.984 89.5605 133.438C89.1829 132.891 88.9941 132.301 88.9941 131.67H91.2988C91.3314 132.23 91.543 132.663 91.9336 132.969C92.3242 133.268 92.8418 133.418 93.4863 133.418C94.1113 133.418 94.5866 133.301 94.9121 133.066C95.2376 132.826 95.4004 132.513 95.4004 132.129ZM105.42 135V126.191H103.809V124.434H105.42V123.711C105.426 122.884 105.602 122.174 105.947 121.582C106.292 120.99 106.781 120.544 107.412 120.244C108.044 119.945 108.802 119.795 109.688 119.795C110.208 119.795 110.706 119.85 111.182 119.961C111.663 120.072 112.161 120.212 112.676 120.381L112.314 122.344C111.416 122.031 110.596 121.875 109.854 121.875C109.131 121.875 108.607 122.035 108.281 122.354C107.956 122.666 107.793 123.138 107.793 123.77V124.434H109.873V126.191H107.793V135H105.42ZM113.799 135H111.426V124.434H113.799V135ZM118.955 135H116.582V120H118.955V135ZM124.521 121.865V124.434H126.387V126.191H124.521V132.09C124.521 132.493 124.6 132.786 124.756 132.969C124.919 133.145 125.205 133.232 125.615 133.232C125.889 133.232 126.165 133.2 126.445 133.135V134.971C125.905 135.12 125.384 135.195 124.883 135.195C123.06 135.195 122.148 134.189 122.148 132.178V126.191H120.41V124.434H122.148V121.865H124.521ZM133.74 126.602C133.428 126.549 133.105 126.523 132.773 126.523C131.686 126.523 130.954 126.94 130.576 127.773V135H128.203V124.434H130.469L130.527 125.615C131.1 124.697 131.895 124.238 132.91 124.238C133.249 124.238 133.529 124.284 133.75 124.375L133.74 126.602ZM134.443 129.619C134.443 128.584 134.648 127.653 135.059 126.826C135.469 125.993 136.045 125.355 136.787 124.912C137.529 124.463 138.382 124.238 139.346 124.238C140.771 124.238 141.927 124.697 142.812 125.615C143.704 126.533 144.186 127.751 144.258 129.268L144.268 129.824C144.268 130.866 144.066 131.797 143.662 132.617C143.265 133.438 142.692 134.072 141.943 134.521C141.201 134.971 140.342 135.195 139.365 135.195C137.874 135.195 136.68 134.701 135.781 133.711C134.889 132.715 134.443 131.39 134.443 129.736V129.619ZM136.816 129.824C136.816 130.911 137.041 131.764 137.49 132.383C137.939 132.995 138.564 133.301 139.365 133.301C140.166 133.301 140.788 132.988 141.23 132.363C141.68 131.738 141.904 130.824 141.904 129.619C141.904 128.551 141.673 127.705 141.211 127.08C140.755 126.455 140.133 126.143 139.346 126.143C138.571 126.143 137.956 126.452 137.5 127.07C137.044 127.682 136.816 128.6 136.816 129.824ZM152.197 132.129C152.197 131.706 152.021 131.383 151.67 131.162C151.325 130.941 150.749 130.745 149.941 130.576C149.134 130.407 148.46 130.192 147.92 129.932C146.735 129.359 146.143 128.529 146.143 127.441C146.143 126.53 146.527 125.768 147.295 125.156C148.063 124.544 149.04 124.238 150.225 124.238C151.488 124.238 152.507 124.551 153.281 125.176C154.062 125.801 154.453 126.611 154.453 127.607H152.08C152.08 127.152 151.911 126.774 151.572 126.475C151.234 126.169 150.785 126.016 150.225 126.016C149.704 126.016 149.277 126.136 148.945 126.377C148.62 126.618 148.457 126.94 148.457 127.344C148.457 127.708 148.61 127.992 148.916 128.193C149.222 128.395 149.84 128.6 150.771 128.809C151.702 129.01 152.432 129.255 152.959 129.541C153.493 129.821 153.887 130.16 154.141 130.557C154.401 130.954 154.531 131.436 154.531 132.002C154.531 132.952 154.137 133.724 153.35 134.316C152.562 134.902 151.53 135.195 150.254 135.195C149.388 135.195 148.617 135.039 147.939 134.727C147.262 134.414 146.735 133.984 146.357 133.438C145.98 132.891 145.791 132.301 145.791 131.67H148.096C148.128 132.23 148.34 132.663 148.73 132.969C149.121 133.268 149.639 133.418 150.283 133.418C150.908 133.418 151.383 133.301 151.709 133.066C152.035 132.826 152.197 132.513 152.197 132.129ZM170.84 129.824C170.84 131.458 170.469 132.764 169.727 133.74C168.984 134.71 167.988 135.195 166.738 135.195C165.579 135.195 164.652 134.814 163.955 134.053V139.062H161.582V124.434H163.77L163.867 125.508C164.564 124.661 165.511 124.238 166.709 124.238C167.998 124.238 169.007 124.72 169.736 125.684C170.472 126.641 170.84 127.972 170.84 129.678V129.824ZM168.477 129.619C168.477 128.564 168.265 127.728 167.842 127.109C167.425 126.491 166.826 126.182 166.045 126.182C165.075 126.182 164.378 126.582 163.955 127.383V132.07C164.385 132.891 165.088 133.301 166.064 133.301C166.82 133.301 167.409 132.998 167.832 132.393C168.262 131.781 168.477 130.856 168.477 129.619ZM179.17 135C179.066 134.798 178.975 134.469 178.896 134.014C178.141 134.801 177.217 135.195 176.123 135.195C175.062 135.195 174.196 134.893 173.525 134.287C172.855 133.682 172.52 132.933 172.52 132.041C172.52 130.915 172.936 130.052 173.77 129.453C174.609 128.848 175.807 128.545 177.363 128.545H178.818V127.852C178.818 127.305 178.665 126.868 178.359 126.543C178.053 126.211 177.588 126.045 176.963 126.045C176.423 126.045 175.98 126.182 175.635 126.455C175.29 126.722 175.117 127.064 175.117 127.48H172.744C172.744 126.901 172.936 126.361 173.32 125.859C173.704 125.352 174.225 124.954 174.883 124.668C175.547 124.382 176.286 124.238 177.1 124.238C178.337 124.238 179.323 124.551 180.059 125.176C180.794 125.794 181.172 126.667 181.191 127.793V132.559C181.191 133.509 181.325 134.268 181.592 134.834V135H179.17ZM176.562 133.291C177.031 133.291 177.471 133.177 177.881 132.949C178.298 132.721 178.61 132.415 178.818 132.031V130.039H177.539C176.66 130.039 175.999 130.192 175.557 130.498C175.114 130.804 174.893 131.237 174.893 131.797C174.893 132.253 175.042 132.617 175.342 132.891C175.648 133.158 176.055 133.291 176.562 133.291ZM189.209 126.602C188.896 126.549 188.574 126.523 188.242 126.523C187.155 126.523 186.423 126.94 186.045 127.773V135H183.672V124.434H185.938L185.996 125.615C186.569 124.697 187.363 124.238 188.379 124.238C188.717 124.238 188.997 124.284 189.219 124.375L189.209 126.602ZM196.729 135C196.624 134.798 196.533 134.469 196.455 134.014C195.7 134.801 194.775 135.195 193.682 135.195C192.62 135.195 191.755 134.893 191.084 134.287C190.413 133.682 190.078 132.933 190.078 132.041C190.078 130.915 190.495 130.052 191.328 129.453C192.168 128.848 193.366 128.545 194.922 128.545H196.377V127.852C196.377 127.305 196.224 126.868 195.918 126.543C195.612 126.211 195.146 126.045 194.521 126.045C193.981 126.045 193.538 126.182 193.193 126.455C192.848 126.722 192.676 127.064 192.676 127.48H190.303C190.303 126.901 190.495 126.361 190.879 125.859C191.263 125.352 191.784 124.954 192.441 124.668C193.105 124.382 193.844 124.238 194.658 124.238C195.895 124.238 196.882 124.551 197.617 125.176C198.353 125.794 198.73 126.667 198.75 127.793V132.559C198.75 133.509 198.883 134.268 199.15 134.834V135H196.729ZM194.121 133.291C194.59 133.291 195.029 133.177 195.439 132.949C195.856 132.721 196.169 132.415 196.377 132.031V130.039H195.098C194.219 130.039 193.558 130.192 193.115 130.498C192.673 130.804 192.451 131.237 192.451 131.797C192.451 132.253 192.601 132.617 192.9 132.891C193.206 133.158 193.613 133.291 194.121 133.291ZM205.576 133.301C206.169 133.301 206.66 133.128 207.051 132.783C207.441 132.438 207.65 132.012 207.676 131.504H209.912C209.886 132.161 209.681 132.777 209.297 133.35C208.913 133.916 208.392 134.365 207.734 134.697C207.077 135.029 206.367 135.195 205.605 135.195C204.128 135.195 202.956 134.717 202.09 133.76C201.224 132.803 200.791 131.481 200.791 129.795V129.551C200.791 127.943 201.221 126.657 202.08 125.693C202.939 124.723 204.111 124.238 205.596 124.238C206.852 124.238 207.874 124.606 208.662 125.342C209.456 126.071 209.873 127.031 209.912 128.223H207.676C207.65 127.617 207.441 127.119 207.051 126.729C206.667 126.338 206.175 126.143 205.576 126.143C204.808 126.143 204.215 126.423 203.799 126.982C203.382 127.536 203.171 128.379 203.164 129.512V129.893C203.164 131.038 203.369 131.895 203.779 132.461C204.196 133.021 204.795 133.301 205.576 133.301ZM211.26 129.619C211.26 128.584 211.465 127.653 211.875 126.826C212.285 125.993 212.861 125.355 213.604 124.912C214.346 124.463 215.199 124.238 216.162 124.238C217.588 124.238 218.743 124.697 219.629 125.615C220.521 126.533 221.003 127.751 221.074 129.268L221.084 129.824C221.084 130.866 220.882 131.797 220.479 132.617C220.081 133.438 219.508 134.072 218.76 134.521C218.018 134.971 217.158 135.195 216.182 135.195C214.691 135.195 213.496 134.701 212.598 133.711C211.706 132.715 211.26 131.39 211.26 129.736V129.619ZM213.633 129.824C213.633 130.911 213.857 131.764 214.307 132.383C214.756 132.995 215.381 133.301 216.182 133.301C216.982 133.301 217.604 132.988 218.047 132.363C218.496 131.738 218.721 130.824 218.721 129.619C218.721 128.551 218.49 127.705 218.027 127.08C217.572 126.455 216.95 126.143 216.162 126.143C215.387 126.143 214.772 126.452 214.316 127.07C213.861 127.682 213.633 128.6 213.633 129.824ZM225.293 124.434L225.361 125.654C226.143 124.71 227.168 124.238 228.438 124.238C230.638 124.238 231.758 125.498 231.797 128.018V135H229.424V128.154C229.424 127.484 229.277 126.989 228.984 126.67C228.698 126.344 228.226 126.182 227.568 126.182C226.611 126.182 225.898 126.615 225.43 127.48V135H223.057V124.434H225.293ZM240.146 132.129C240.146 131.706 239.971 131.383 239.619 131.162C239.274 130.941 238.698 130.745 237.891 130.576C237.083 130.407 236.41 130.192 235.869 129.932C234.684 129.359 234.092 128.529 234.092 127.441C234.092 126.53 234.476 125.768 235.244 125.156C236.012 124.544 236.989 124.238 238.174 124.238C239.437 124.238 240.456 124.551 241.23 125.176C242.012 125.801 242.402 126.611 242.402 127.607H240.029C240.029 127.152 239.86 126.774 239.521 126.475C239.183 126.169 238.734 126.016 238.174 126.016C237.653 126.016 237.227 126.136 236.895 126.377C236.569 126.618 236.406 126.94 236.406 127.344C236.406 127.708 236.559 127.992 236.865 128.193C237.171 128.395 237.79 128.6 238.721 128.809C239.652 129.01 240.381 129.255 240.908 129.541C241.442 129.821 241.836 130.16 242.09 130.557C242.35 130.954 242.48 131.436 242.48 132.002C242.48 132.952 242.087 133.724 241.299 134.316C240.511 134.902 239.479 135.195 238.203 135.195C237.337 135.195 236.566 135.039 235.889 134.727C235.212 134.414 234.684 133.984 234.307 133.438C233.929 132.891 233.74 132.301 233.74 131.67H236.045C236.077 132.23 236.289 132.663 236.68 132.969C237.07 133.268 237.588 133.418 238.232 133.418C238.857 133.418 239.333 133.301 239.658 133.066C239.984 132.826 240.146 132.513 240.146 132.129ZM250.957 133.965C250.26 134.785 249.271 135.195 247.988 135.195C246.842 135.195 245.973 134.86 245.381 134.189C244.795 133.519 244.502 132.549 244.502 131.279V124.434H246.875V131.25C246.875 132.591 247.432 133.262 248.545 133.262C249.697 133.262 250.475 132.848 250.879 132.021V124.434H253.252V135H251.016L250.957 133.965ZM258.193 135H255.82V120H258.193V135ZM263.76 121.865V124.434H265.625V126.191H263.76V132.09C263.76 132.493 263.838 132.786 263.994 132.969C264.157 133.145 264.443 133.232 264.854 133.232C265.127 133.232 265.404 133.2 265.684 133.135V134.971C265.143 135.12 264.622 135.195 264.121 135.195C262.298 135.195 261.387 134.189 261.387 132.178V126.191H259.648V124.434H261.387V121.865H263.76ZM273.76 135C273.656 134.798 273.564 134.469 273.486 134.014C272.731 134.801 271.807 135.195 270.713 135.195C269.652 135.195 268.786 134.893 268.115 134.287C267.445 133.682 267.109 132.933 267.109 132.041C267.109 130.915 267.526 130.052 268.359 129.453C269.199 128.848 270.397 128.545 271.953 128.545H273.408V127.852C273.408 127.305 273.255 126.868 272.949 126.543C272.643 126.211 272.178 126.045 271.553 126.045C271.012 126.045 270.57 126.182 270.225 126.455C269.88 126.722 269.707 127.064 269.707 127.48H267.334C267.334 126.901 267.526 126.361 267.91 125.859C268.294 125.352 268.815 124.954 269.473 124.668C270.137 124.382 270.876 124.238 271.689 124.238C272.926 124.238 273.913 124.551 274.648 125.176C275.384 125.794 275.762 126.667 275.781 127.793V132.559C275.781 133.509 275.915 134.268 276.182 134.834V135H273.76ZM271.152 133.291C271.621 133.291 272.061 133.177 272.471 132.949C272.887 132.721 273.2 132.415 273.408 132.031V130.039H272.129C271.25 130.039 270.589 130.192 270.146 130.498C269.704 130.804 269.482 131.237 269.482 131.797C269.482 132.253 269.632 132.617 269.932 132.891C270.238 133.158 270.645 133.291 271.152 133.291ZM283.799 126.602C283.486 126.549 283.164 126.523 282.832 126.523C281.745 126.523 281.012 126.94 280.635 127.773V135H278.262V124.434H280.527L280.586 125.615C281.159 124.697 281.953 124.238 282.969 124.238C283.307 124.238 283.587 124.284 283.809 124.375L283.799 126.602ZM292.803 135H290.43V120H292.803V135ZM301.709 135C301.605 134.798 301.514 134.469 301.436 134.014C300.68 134.801 299.756 135.195 298.662 135.195C297.601 135.195 296.735 134.893 296.064 134.287C295.394 133.682 295.059 132.933 295.059 132.041C295.059 130.915 295.475 130.052 296.309 129.453C297.148 128.848 298.346 128.545 299.902 128.545H301.357V127.852C301.357 127.305 301.204 126.868 300.898 126.543C300.592 126.211 300.127 126.045 299.502 126.045C298.962 126.045 298.519 126.182 298.174 126.455C297.829 126.722 297.656 127.064 297.656 127.48H295.283C295.283 126.901 295.475 126.361 295.859 125.859C296.243 125.352 296.764 124.954 297.422 124.668C298.086 124.382 298.825 124.238 299.639 124.238C300.876 124.238 301.862 124.551 302.598 125.176C303.333 125.794 303.711 126.667 303.73 127.793V132.559C303.73 133.509 303.864 134.268 304.131 134.834V135H301.709ZM299.102 133.291C299.57 133.291 300.01 133.177 300.42 132.949C300.837 132.721 301.149 132.415 301.357 132.031V130.039H300.078C299.199 130.039 298.538 130.192 298.096 130.498C297.653 130.804 297.432 131.237 297.432 131.797C297.432 132.253 297.581 132.617 297.881 132.891C298.187 133.158 298.594 133.291 299.102 133.291ZM312.139 132.129C312.139 131.706 311.963 131.383 311.611 131.162C311.266 130.941 310.69 130.745 309.883 130.576C309.076 130.407 308.402 130.192 307.861 129.932C306.676 129.359 306.084 128.529 306.084 127.441C306.084 126.53 306.468 125.768 307.236 125.156C308.005 124.544 308.981 124.238 310.166 124.238C311.429 124.238 312.448 124.551 313.223 125.176C314.004 125.801 314.395 126.611 314.395 127.607H312.021C312.021 127.152 311.852 126.774 311.514 126.475C311.175 126.169 310.726 126.016 310.166 126.016C309.645 126.016 309.219 126.136 308.887 126.377C308.561 126.618 308.398 126.94 308.398 127.344C308.398 127.708 308.551 127.992 308.857 128.193C309.163 128.395 309.782 128.6 310.713 128.809C311.644 129.01 312.373 129.255 312.9 129.541C313.434 129.821 313.828 130.16 314.082 130.557C314.342 130.954 314.473 131.436 314.473 132.002C314.473 132.952 314.079 133.724 313.291 134.316C312.503 134.902 311.471 135.195 310.195 135.195C309.329 135.195 308.558 135.039 307.881 134.727C307.204 134.414 306.676 133.984 306.299 133.438C305.921 132.891 305.732 132.301 305.732 131.67H308.037C308.07 132.23 308.281 132.663 308.672 132.969C309.062 133.268 309.58 133.418 310.225 133.418C310.85 133.418 311.325 133.301 311.65 133.066C311.976 132.826 312.139 132.513 312.139 132.129ZM321.084 129.619C321.084 128.584 321.289 127.653 321.699 126.826C322.109 125.993 322.686 125.355 323.428 124.912C324.17 124.463 325.023 124.238 325.986 124.238C327.412 124.238 328.568 124.697 329.453 125.615C330.345 126.533 330.827 127.751 330.898 129.268L330.908 129.824C330.908 130.866 330.706 131.797 330.303 132.617C329.906 133.438 329.333 134.072 328.584 134.521C327.842 134.971 326.982 135.195 326.006 135.195C324.515 135.195 323.32 134.701 322.422 133.711C321.53 132.715 321.084 131.39 321.084 129.736V129.619ZM323.457 129.824C323.457 130.911 323.682 131.764 324.131 132.383C324.58 132.995 325.205 133.301 326.006 133.301C326.807 133.301 327.428 132.988 327.871 132.363C328.32 131.738 328.545 130.824 328.545 129.619C328.545 128.551 328.314 127.705 327.852 127.08C327.396 126.455 326.774 126.143 325.986 126.143C325.212 126.143 324.596 126.452 324.141 127.07C323.685 127.682 323.457 128.6 323.457 129.824ZM338.447 126.602C338.135 126.549 337.812 126.523 337.48 126.523C336.393 126.523 335.661 126.94 335.283 127.773V135H332.91V124.434H335.176L335.234 125.615C335.807 124.697 336.602 124.238 337.617 124.238C337.956 124.238 338.236 124.284 338.457 124.375L338.447 126.602ZM339.307 129.639C339.307 128.011 339.684 126.706 340.439 125.723C341.195 124.733 342.207 124.238 343.477 124.238C344.596 124.238 345.501 124.629 346.191 125.41V120H348.564V135H346.416L346.299 133.906C345.589 134.766 344.642 135.195 343.457 135.195C342.22 135.195 341.217 134.697 340.449 133.701C339.688 132.705 339.307 131.351 339.307 129.639ZM341.68 129.844C341.68 130.918 341.885 131.758 342.295 132.363C342.712 132.962 343.301 133.262 344.062 133.262C345.033 133.262 345.742 132.829 346.191 131.963V127.451C345.755 126.605 345.052 126.182 344.082 126.182C343.314 126.182 342.721 126.488 342.305 127.1C341.888 127.705 341.68 128.62 341.68 129.844ZM355.693 135.195C354.189 135.195 352.969 134.723 352.031 133.779C351.1 132.829 350.635 131.566 350.635 129.99V129.697C350.635 128.643 350.837 127.702 351.24 126.875C351.65 126.042 352.223 125.394 352.959 124.932C353.695 124.469 354.515 124.238 355.42 124.238C356.859 124.238 357.969 124.697 358.75 125.615C359.538 126.533 359.932 127.832 359.932 129.512V130.469H353.027C353.099 131.341 353.389 132.031 353.896 132.539C354.411 133.047 355.055 133.301 355.83 133.301C356.917 133.301 357.803 132.861 358.486 131.982L359.766 133.203C359.342 133.835 358.776 134.326 358.066 134.678C357.363 135.023 356.572 135.195 355.693 135.195ZM355.41 126.143C354.759 126.143 354.232 126.37 353.828 126.826C353.431 127.282 353.177 127.917 353.066 128.73H357.588V128.555C357.536 127.76 357.324 127.161 356.953 126.758C356.582 126.348 356.068 126.143 355.41 126.143ZM363.984 124.434L364.053 125.654C364.834 124.71 365.859 124.238 367.129 124.238C369.329 124.238 370.449 125.498 370.488 128.018V135H368.115V128.154C368.115 127.484 367.969 126.989 367.676 126.67C367.389 126.344 366.917 126.182 366.26 126.182C365.303 126.182 364.59 126.615 364.121 127.48V135H361.748V124.434H363.984ZM377.568 135.195C376.064 135.195 374.844 134.723 373.906 133.779C372.975 132.829 372.51 131.566 372.51 129.99V129.697C372.51 128.643 372.712 127.702 373.115 126.875C373.525 126.042 374.098 125.394 374.834 124.932C375.57 124.469 376.39 124.238 377.295 124.238C378.734 124.238 379.844 124.697 380.625 125.615C381.413 126.533 381.807 127.832 381.807 129.512V130.469H374.902C374.974 131.341 375.264 132.031 375.771 132.539C376.286 133.047 376.93 133.301 377.705 133.301C378.792 133.301 379.678 132.861 380.361 131.982L381.641 133.203C381.217 133.835 380.651 134.326 379.941 134.678C379.238 135.023 378.447 135.195 377.568 135.195ZM377.285 126.143C376.634 126.143 376.107 126.37 375.703 126.826C375.306 127.282 375.052 127.917 374.941 128.73H379.463V128.555C379.411 127.76 379.199 127.161 378.828 126.758C378.457 126.348 377.943 126.143 377.285 126.143ZM389.58 132.129C389.58 131.706 389.404 131.383 389.053 131.162C388.708 130.941 388.132 130.745 387.324 130.576C386.517 130.407 385.843 130.192 385.303 129.932C384.118 129.359 383.525 128.529 383.525 127.441C383.525 126.53 383.91 125.768 384.678 125.156C385.446 124.544 386.423 124.238 387.607 124.238C388.87 124.238 389.889 124.551 390.664 125.176C391.445 125.801 391.836 126.611 391.836 127.607H389.463C389.463 127.152 389.294 126.774 388.955 126.475C388.617 126.169 388.167 126.016 387.607 126.016C387.087 126.016 386.66 126.136 386.328 126.377C386.003 126.618 385.84 126.94 385.84 127.344C385.84 127.708 385.993 127.992 386.299 128.193C386.605 128.395 387.223 128.6 388.154 128.809C389.085 129.01 389.814 129.255 390.342 129.541C390.876 129.821 391.27 130.16 391.523 130.557C391.784 130.954 391.914 131.436 391.914 132.002C391.914 132.952 391.52 133.724 390.732 134.316C389.945 134.902 388.913 135.195 387.637 135.195C386.771 135.195 385.999 135.039 385.322 134.727C384.645 134.414 384.118 133.984 383.74 133.438C383.363 132.891 383.174 132.301 383.174 131.67H385.479C385.511 132.23 385.723 132.663 386.113 132.969C386.504 133.268 387.021 133.418 387.666 133.418C388.291 133.418 388.766 133.301 389.092 133.066C389.417 132.826 389.58 132.513 389.58 132.129ZM398.525 129.639C398.525 128.011 398.903 126.706 399.658 125.723C400.413 124.733 401.426 124.238 402.695 124.238C403.815 124.238 404.72 124.629 405.41 125.41V120H407.783V135H405.635L405.518 133.906C404.808 134.766 403.861 135.195 402.676 135.195C401.439 135.195 400.436 134.697 399.668 133.701C398.906 132.705 398.525 131.351 398.525 129.639ZM400.898 129.844C400.898 130.918 401.104 131.758 401.514 132.363C401.93 132.962 402.52 133.262 403.281 133.262C404.251 133.262 404.961 132.829 405.41 131.963V127.451C404.974 126.605 404.271 126.182 403.301 126.182C402.533 126.182 401.94 126.488 401.523 127.1C401.107 127.705 400.898 128.62 400.898 129.844ZM414.912 135.195C413.408 135.195 412.188 134.723 411.25 133.779C410.319 132.829 409.854 131.566 409.854 129.99V129.697C409.854 128.643 410.055 127.702 410.459 126.875C410.869 126.042 411.442 125.394 412.178 124.932C412.913 124.469 413.734 124.238 414.639 124.238C416.077 124.238 417.188 124.697 417.969 125.615C418.757 126.533 419.15 127.832 419.15 129.512V130.469H412.246C412.318 131.341 412.607 132.031 413.115 132.539C413.63 133.047 414.274 133.301 415.049 133.301C416.136 133.301 417.021 132.861 417.705 131.982L418.984 133.203C418.561 133.835 417.995 134.326 417.285 134.678C416.582 135.023 415.791 135.195 414.912 135.195ZM414.629 126.143C413.978 126.143 413.451 126.37 413.047 126.826C412.65 127.282 412.396 127.917 412.285 128.73H416.807V128.555C416.755 127.76 416.543 127.161 416.172 126.758C415.801 126.348 415.286 126.143 414.629 126.143ZM426.816 135V126.191H425.205V124.434H426.816V123.467C426.816 122.295 427.142 121.39 427.793 120.752C428.444 120.114 429.355 119.795 430.527 119.795C430.944 119.795 431.387 119.854 431.855 119.971L431.797 121.826C431.536 121.774 431.234 121.748 430.889 121.748C429.756 121.748 429.189 122.331 429.189 123.496V124.434H431.338V126.191H429.189V135H426.816ZM439.385 135C439.281 134.798 439.189 134.469 439.111 134.014C438.356 134.801 437.432 135.195 436.338 135.195C435.277 135.195 434.411 134.893 433.74 134.287C433.07 133.682 432.734 132.933 432.734 132.041C432.734 130.915 433.151 130.052 433.984 129.453C434.824 128.848 436.022 128.545 437.578 128.545H439.033V127.852C439.033 127.305 438.88 126.868 438.574 126.543C438.268 126.211 437.803 126.045 437.178 126.045C436.637 126.045 436.195 126.182 435.85 126.455C435.505 126.722 435.332 127.064 435.332 127.48H432.959C432.959 126.901 433.151 126.361 433.535 125.859C433.919 125.352 434.44 124.954 435.098 124.668C435.762 124.382 436.501 124.238 437.314 124.238C438.551 124.238 439.538 124.551 440.273 125.176C441.009 125.794 441.387 126.667 441.406 127.793V132.559C441.406 133.509 441.54 134.268 441.807 134.834V135H439.385ZM436.777 133.291C437.246 133.291 437.686 133.177 438.096 132.949C438.512 132.721 438.825 132.415 439.033 132.031V130.039H437.754C436.875 130.039 436.214 130.192 435.771 130.498C435.329 130.804 435.107 131.237 435.107 131.797C435.107 132.253 435.257 132.617 435.557 132.891C435.863 133.158 436.27 133.291 436.777 133.291ZM448.232 133.301C448.825 133.301 449.316 133.128 449.707 132.783C450.098 132.438 450.306 132.012 450.332 131.504H452.568C452.542 132.161 452.337 132.777 451.953 133.35C451.569 133.916 451.048 134.365 450.391 134.697C449.733 135.029 449.023 135.195 448.262 135.195C446.784 135.195 445.612 134.717 444.746 133.76C443.88 132.803 443.447 131.481 443.447 129.795V129.551C443.447 127.943 443.877 126.657 444.736 125.693C445.596 124.723 446.768 124.238 448.252 124.238C449.508 124.238 450.531 124.606 451.318 125.342C452.113 126.071 452.529 127.031 452.568 128.223H450.332C450.306 127.617 450.098 127.119 449.707 126.729C449.323 126.338 448.831 126.143 448.232 126.143C447.464 126.143 446.872 126.423 446.455 126.982C446.038 127.536 445.827 128.379 445.82 129.512V129.893C445.82 131.038 446.025 131.895 446.436 132.461C446.852 133.021 447.451 133.301 448.232 133.301ZM457.334 121.865V124.434H459.199V126.191H457.334V132.09C457.334 132.493 457.412 132.786 457.568 132.969C457.731 133.145 458.018 133.232 458.428 133.232C458.701 133.232 458.978 133.2 459.258 133.135V134.971C458.717 135.12 458.197 135.195 457.695 135.195C455.872 135.195 454.961 134.189 454.961 132.178V126.191H453.223V124.434H454.961V121.865H457.334ZM467.422 133.965C466.725 134.785 465.736 135.195 464.453 135.195C463.307 135.195 462.438 134.86 461.846 134.189C461.26 133.519 460.967 132.549 460.967 131.279V124.434H463.34V131.25C463.34 132.591 463.896 133.262 465.01 133.262C466.162 133.262 466.94 132.848 467.344 132.021V124.434H469.717V135H467.48L467.422 133.965ZM477.666 126.602C477.354 126.549 477.031 126.523 476.699 126.523C475.612 126.523 474.88 126.94 474.502 127.773V135H472.129V124.434H474.395L474.453 125.615C475.026 124.697 475.82 124.238 476.836 124.238C477.174 124.238 477.454 124.284 477.676 124.375L477.666 126.602ZM485.186 135C485.081 134.798 484.99 134.469 484.912 134.014C484.157 134.801 483.232 135.195 482.139 135.195C481.077 135.195 480.212 134.893 479.541 134.287C478.87 133.682 478.535 132.933 478.535 132.041C478.535 130.915 478.952 130.052 479.785 129.453C480.625 128.848 481.823 128.545 483.379 128.545H484.834V127.852C484.834 127.305 484.681 126.868 484.375 126.543C484.069 126.211 483.604 126.045 482.979 126.045C482.438 126.045 481.995 126.182 481.65 126.455C481.305 126.722 481.133 127.064 481.133 127.48H478.76C478.76 126.901 478.952 126.361 479.336 125.859C479.72 125.352 480.241 124.954 480.898 124.668C481.562 124.382 482.301 124.238 483.115 124.238C484.352 124.238 485.339 124.551 486.074 125.176C486.81 125.794 487.188 126.667 487.207 127.793V132.559C487.207 133.509 487.34 134.268 487.607 134.834V135H485.186ZM482.578 133.291C483.047 133.291 483.486 133.177 483.896 132.949C484.313 132.721 484.626 132.415 484.834 132.031V130.039H483.555C482.676 130.039 482.015 130.192 481.572 130.498C481.13 130.804 480.908 131.237 480.908 131.797C480.908 132.253 481.058 132.617 481.357 132.891C481.663 133.158 482.07 133.291 482.578 133.291ZM494.033 133.301C494.626 133.301 495.117 133.128 495.508 132.783C495.898 132.438 496.107 132.012 496.133 131.504H498.369C498.343 132.161 498.138 132.777 497.754 133.35C497.37 133.916 496.849 134.365 496.191 134.697C495.534 135.029 494.824 135.195 494.062 135.195C492.585 135.195 491.413 134.717 490.547 133.76C489.681 132.803 489.248 131.481 489.248 129.795V129.551C489.248 127.943 489.678 126.657 490.537 125.693C491.396 124.723 492.568 124.238 494.053 124.238C495.309 124.238 496.331 124.606 497.119 125.342C497.913 126.071 498.33 127.031 498.369 128.223H496.133C496.107 127.617 495.898 127.119 495.508 126.729C495.124 126.338 494.632 126.143 494.033 126.143C493.265 126.143 492.673 126.423 492.256 126.982C491.839 127.536 491.628 128.379 491.621 129.512V129.893C491.621 131.038 491.826 131.895 492.236 132.461C492.653 133.021 493.252 133.301 494.033 133.301ZM502.686 135H500.312V124.434H502.686V135ZM500.166 121.689C500.166 121.325 500.28 121.022 500.508 120.781C500.742 120.54 501.074 120.42 501.504 120.42C501.934 120.42 502.266 120.54 502.5 120.781C502.734 121.022 502.852 121.325 502.852 121.689C502.852 122.048 502.734 122.347 502.5 122.588C502.266 122.822 501.934 122.939 501.504 122.939C501.074 122.939 500.742 122.822 500.508 122.588C500.28 122.347 500.166 122.048 500.166 121.689ZM504.834 129.619C504.834 128.584 505.039 127.653 505.449 126.826C505.859 125.993 506.436 125.355 507.178 124.912C507.92 124.463 508.773 124.238 509.736 124.238C511.162 124.238 512.318 124.697 513.203 125.615C514.095 126.533 514.577 127.751 514.648 129.268L514.658 129.824C514.658 130.866 514.456 131.797 514.053 132.617C513.656 133.438 513.083 134.072 512.334 134.521C511.592 134.971 510.732 135.195 509.756 135.195C508.265 135.195 507.07 134.701 506.172 133.711C505.28 132.715 504.834 131.39 504.834 129.736V129.619ZM507.207 129.824C507.207 130.911 507.432 131.764 507.881 132.383C508.33 132.995 508.955 133.301 509.756 133.301C510.557 133.301 511.178 132.988 511.621 132.363C512.07 131.738 512.295 130.824 512.295 129.619C512.295 128.551 512.064 127.705 511.602 127.08C511.146 126.455 510.524 126.143 509.736 126.143C508.962 126.143 508.346 126.452 507.891 127.07C507.435 127.682 507.207 128.6 507.207 129.824ZM510.391 120H513.096L510.391 122.959H508.486L510.391 120ZM518.867 124.434L518.936 125.654C519.717 124.71 520.742 124.238 522.012 124.238C524.212 124.238 525.332 125.498 525.371 128.018V135H522.998V128.154C522.998 127.484 522.852 126.989 522.559 126.67C522.272 126.344 521.8 126.182 521.143 126.182C520.186 126.182 519.473 126.615 519.004 127.48V135H516.631V124.434H518.867Z" fill="#C4C4C4"/>
</svg>
