<svg width="52" height="50" viewBox="0 0 52 50" fill="none" xmlns="http://www.w3.org/2000/svg">
<g filter="url(#filter0_i)">
<path d="M26 44.4444C37.1684 44.4444 46.2222 35.7389 46.2222 25C46.2222 14.2611 37.1684 5.55554 26 5.55554C14.8316 5.55554 5.77777 14.2611 5.77777 25C5.77777 35.7389 14.8316 44.4444 26 44.4444Z" fill="white"/>
</g>
<path d="M25.5185 38.8889C33.7619 38.8889 40.4444 32.4633 40.4444 24.537C40.4444 16.6107 33.7619 10.1852 25.5185 10.1852C17.2752 10.1852 10.5926 16.6107 10.5926 24.537C10.5926 32.4633 17.2752 38.8889 25.5185 38.8889Z" fill="#2267A0"/>
<path d="M22.1481 32.8704C22.1481 32.0988 22.7259 29.2593 25.037 24.0741L22.6296 23.6111H22.1481V23.1481L22.6296 22.2222L23.1111 21.7593L24.0741 21.2963H25.037H26.9629H27.9259H29.3704L29.8518 21.7593V23.1481L29.3704 24.537L28.4074 26.3889L27.4444 27.7778L26.9629 29.1667V30.5556H29.3704V31.0185L28.8889 32.4074L27.9259 33.7963L27.4444 34.2593L26 34.7222H24.5555L23.1111 34.2593L22.6296 33.7963L22.1481 32.8704Z" fill="white" stroke="white"/>
<path d="M27.4445 17.5926C28.774 17.5926 29.8519 16.5562 29.8519 15.2778C29.8519 13.9993 28.774 12.963 27.4445 12.963C26.1149 12.963 25.037 13.9993 25.037 15.2778C25.037 16.5562 26.1149 17.5926 27.4445 17.5926Z" fill="white"/>
<defs>
<filter id="filter0_i" x="5.77777" y="5.55554" width="40.4445" height="42.8889" filterUnits="userSpaceOnUse" color-interpolation-filters="sRGB">
<feFlood flood-opacity="0" result="BackgroundImageFix"/>
<feBlend mode="normal" in="SourceGraphic" in2="BackgroundImageFix" result="shape"/>
<feColorMatrix in="SourceAlpha" type="matrix" values="0 0 0 0 0 0 0 0 0 0 0 0 0 0 0 0 0 0 127 0" result="hardAlpha"/>
<feOffset dy="4"/>
<feGaussianBlur stdDeviation="3"/>
<feComposite in2="hardAlpha" operator="arithmetic" k2="-1" k3="1"/>
<feColorMatrix type="matrix" values="0 0 0 0 0 0 0 0 0 0 0 0 0 0 0 0 0 0 0.25 0"/>
<feBlend mode="normal" in2="shape" result="effect1_innerShadow"/>
</filter>
</defs>
</svg>
