<svg width="32" height="32" viewBox="0 0 32 32" fill="none" xmlns="http://www.w3.org/2000/svg">
<g clip-path="url(#clip0)">
<path d="M28.1599 1.28H8.9599C7.54605 1.28 6.3999 2.42615 6.3999 3.84V23.04C6.3999 24.4538 7.54605 25.6 8.9599 25.6H28.1599C29.5738 25.6 30.7199 24.4538 30.7199 23.04V3.84C30.7199 2.42615 29.5738 1.28 28.1599 1.28Z" stroke="#ABABAB" stroke-width="2"/>
<path d="M3.84 8.96H0V32H3.84V8.96Z" fill="#ABABAB"/>
<path d="M21.76 32V28.16H9.53674e-06V32H21.76Z" fill="#ABABAB"/>
<path d="M15.0395 12.9792C14.4149 12.3197 13.3739 12.2913 12.7143 12.9159C12.0547 13.5405 12.0264 14.5815 12.651 15.2411L15.9803 18.7569C16.6049 19.4165 17.6459 19.4449 18.3055 18.8203C18.9651 18.1956 18.9935 17.1546 18.3689 16.495L15.0395 12.9792Z" fill="#ABABAB"/>
<path d="M27.023 10.4706C27.6682 9.8296 27.6716 8.78689 27.0306 8.14169C26.3895 7.49648 25.3468 7.49311 24.7016 8.13415L16.4326 16.3498C15.7874 16.9908 15.784 18.0335 16.4251 18.6788C17.0661 19.324 18.1088 19.3273 18.754 18.6863L27.023 10.4706Z" fill="#ABABAB"/>
</g>
<defs>
<clipPath id="clip0">
<rect width="32" height="32" fill="white"/>
</clipPath>
</defs>
</svg>
