<svg width="50" height="55" viewBox="0 0 50 55" fill="none" xmlns="http://www.w3.org/2000/svg">
<g clip-path="url(#clip0)">
<path d="M3.57143 49.8435C3.57143 51.211 4.13584 52.5226 5.1405 53.4895C6.14516 54.4565 7.50777 54.9998 8.92857 54.9998H41.0714C42.4922 54.9998 43.8548 54.4565 44.8595 53.4895C45.8642 52.5226 46.4286 51.211 46.4286 49.8435V13.7498H3.57143V49.8435ZM33.9286 22.3435C33.9286 21.8877 34.1167 21.4505 34.4516 21.1282C34.7865 20.8059 35.2407 20.6248 35.7143 20.6248C36.1879 20.6248 36.6421 20.8059 36.977 21.1282C37.3119 21.4505 37.5 21.8877 37.5 22.3435V46.406C37.5 46.8619 37.3119 47.299 36.977 47.6214C36.6421 47.9437 36.1879 48.1248 35.7143 48.1248C35.2407 48.1248 34.7865 47.9437 34.4516 47.6214C34.1167 47.299 33.9286 46.8619 33.9286 46.406V22.3435ZM23.2143 22.3435C23.2143 21.8877 23.4024 21.4505 23.7373 21.1282C24.0722 20.8059 24.5264 20.6248 25 20.6248C25.4736 20.6248 25.9278 20.8059 26.2627 21.1282C26.5976 21.4505 26.7857 21.8877 26.7857 22.3435V46.406C26.7857 46.8619 26.5976 47.299 26.2627 47.6214C25.9278 47.9437 25.4736 48.1248 25 48.1248C24.5264 48.1248 24.0722 47.9437 23.7373 47.6214C23.4024 47.299 23.2143 46.8619 23.2143 46.406V22.3435ZM12.5 22.3435C12.5 21.8877 12.6881 21.4505 13.023 21.1282C13.3579 20.8059 13.8121 20.6248 14.2857 20.6248C14.7593 20.6248 15.2135 20.8059 15.5484 21.1282C15.8833 21.4505 16.0714 21.8877 16.0714 22.3435V46.406C16.0714 46.8619 15.8833 47.299 15.5484 47.6214C15.2135 47.9437 14.7593 48.1248 14.2857 48.1248C13.8121 48.1248 13.3579 47.9437 13.023 47.6214C12.6881 47.299 12.5 46.8619 12.5 46.406V22.3435ZM48.2143 3.43727H34.8214L33.7723 1.42849C33.5501 0.999028 33.2078 0.637778 32.7838 0.385375C32.3599 0.132972 31.8712 -0.00056941 31.3728 -0.000225307H18.6161C18.1187 -0.0020655 17.6309 0.130978 17.2085 0.383661C16.7861 0.636345 16.4462 0.998449 16.2277 1.42849L15.1786 3.43727H1.78571C1.31211 3.43727 0.85791 3.61836 0.523024 3.94068C0.188137 4.26301 0 4.70018 0 5.15602L0 8.59352C0 9.04937 0.188137 9.48654 0.523024 9.80886C0.85791 10.1312 1.31211 10.3123 1.78571 10.3123H48.2143C48.6879 10.3123 49.1421 10.1312 49.477 9.80886C49.8119 9.48654 50 9.04937 50 8.59352V5.15602C50 4.70018 49.8119 4.26301 49.477 3.94068C49.1421 3.61836 48.6879 3.43727 48.2143 3.43727V3.43727Z" fill="#0F4F96"/>
</g>
<defs>
<clipPath id="clip0">
<rect width="50" height="55" fill="white"/>
</clipPath>
</defs>
</svg>
