<svg width="182" height="26" viewBox="0 0 182 26" fill="none" xmlns="http://www.w3.org/2000/svg">
<rect width="26" height="26" rx="3" fill="#3871A7"/>
<line x1="5" y1="12.5" x2="21" y2="12.5" stroke="white" stroke-width="3"/>
<path d="M37.5679 19V5.49219H41.3809C42.556 5.49219 43.5951 5.75195 44.498 6.27148C45.401 6.79102 46.0968 7.53011 46.5854 8.48877C47.0802 9.44743 47.3307 10.5483 47.3369 11.7915V12.6543C47.3369 13.9284 47.0895 15.0448 46.5947 16.0034C46.1061 16.9621 45.4041 17.6981 44.4888 18.2114C43.5796 18.7248 42.5189 18.9876 41.3066 19H37.5679ZM39.3491 6.95801V17.5435H41.2231C42.5962 17.5435 43.6631 17.1167 44.4238 16.2632C45.1908 15.4097 45.5742 14.1943 45.5742 12.6172V11.8286C45.5742 10.2948 45.2124 9.10417 44.4888 8.25684C43.7713 7.40332 42.7508 6.97038 41.4272 6.95801H39.3491ZM53.9331 19.1855C52.5724 19.1855 51.4653 18.7402 50.6118 17.8496C49.7583 16.9528 49.3315 15.756 49.3315 14.2593V13.9438C49.3315 12.9481 49.5202 12.0605 49.8975 11.2812C50.2809 10.4958 50.8128 9.88346 51.4932 9.44434C52.1797 8.99902 52.9219 8.77637 53.7197 8.77637C55.0247 8.77637 56.0391 9.20622 56.7627 10.0659C57.4863 10.9256 57.8481 12.1564 57.8481 13.7583V14.4727H51.0479C51.0726 15.4622 51.3602 16.2632 51.9106 16.8755C52.4673 17.4816 53.1724 17.7847 54.0259 17.7847C54.632 17.7847 55.1453 17.661 55.5659 17.4136C55.9865 17.1662 56.3545 16.8384 56.6699 16.4302L57.7183 17.2466C56.8771 18.5392 55.6154 19.1855 53.9331 19.1855ZM53.7197 10.1865C53.027 10.1865 52.4456 10.4401 51.9756 10.9473C51.5055 11.4482 51.2148 12.1533 51.1035 13.0625H56.1318V12.9326C56.0824 12.0605 55.8473 11.3864 55.4268 10.9102C55.0062 10.4277 54.4372 10.1865 53.7197 10.1865ZM65.6875 16.3374C65.6875 15.8735 65.5112 15.5148 65.1587 15.2612C64.8123 15.0015 64.2031 14.7788 63.3311 14.5933C62.4652 14.4077 61.7756 14.1851 61.2622 13.9253C60.755 13.6655 60.3778 13.3563 60.1304 12.9976C59.8892 12.6388 59.7686 12.2121 59.7686 11.7173C59.7686 10.8947 60.1149 10.1989 60.8076 9.62988C61.5065 9.06087 62.3971 8.77637 63.4795 8.77637C64.6175 8.77637 65.5391 9.07015 66.2441 9.65771C66.9554 10.2453 67.311 10.9967 67.311 11.9121H65.5854C65.5854 11.4421 65.3844 11.0369 64.9824 10.6968C64.5866 10.3566 64.0856 10.1865 63.4795 10.1865C62.8548 10.1865 62.3662 10.3226 62.0137 10.5947C61.6611 10.8669 61.4849 11.2225 61.4849 11.6616C61.4849 12.076 61.6488 12.3883 61.9766 12.5986C62.3044 12.8089 62.895 13.0099 63.7485 13.2017C64.6082 13.3934 65.304 13.6222 65.8359 13.8882C66.3678 14.1541 66.7606 14.4757 67.0142 14.853C67.2739 15.2241 67.4038 15.6787 67.4038 16.2168C67.4038 17.1136 67.0451 17.8341 66.3276 18.3784C65.6102 18.9165 64.6794 19.1855 63.5352 19.1855C62.7311 19.1855 62.0199 19.0433 61.4014 18.7588C60.7829 18.4743 60.2974 18.0785 59.9448 17.5713C59.5985 17.0579 59.4253 16.5044 59.4253 15.9106H61.1416C61.1725 16.4858 61.4014 16.9435 61.8281 17.2837C62.2611 17.6177 62.8301 17.7847 63.5352 17.7847C64.1846 17.7847 64.7041 17.6548 65.0938 17.395C65.4896 17.1291 65.6875 16.7765 65.6875 16.3374ZM71.2539 8.96191L71.3003 10.0752C72.0363 9.20931 73.029 8.77637 74.2783 8.77637C75.6823 8.77637 76.6379 9.31445 77.145 10.3906C77.479 9.9082 77.9119 9.51855 78.4438 9.22168C78.9819 8.9248 79.6159 8.77637 80.3457 8.77637C82.5475 8.77637 83.667 9.94222 83.7041 12.2739V19H81.9878V12.376C81.9878 11.6585 81.8239 11.1235 81.4961 10.771C81.1683 10.4123 80.6178 10.2329 79.8447 10.2329C79.2077 10.2329 78.6789 10.4246 78.2583 10.8081C77.8377 11.1854 77.5934 11.6956 77.5254 12.3389V19H75.7998V12.4224C75.7998 10.9627 75.0854 10.2329 73.6567 10.2329C72.5311 10.2329 71.7611 10.7122 71.3467 11.6709V19H69.6304V8.96191H71.2539ZM92.499 19C92.4001 18.8021 92.3197 18.4495 92.2578 17.9424C91.46 18.7712 90.5075 19.1855 89.4004 19.1855C88.4108 19.1855 87.5975 18.9072 86.9604 18.3506C86.3296 17.7878 86.0142 17.0765 86.0142 16.2168C86.0142 15.1715 86.41 14.3613 87.2017 13.7861C87.9995 13.2048 89.119 12.9141 90.5601 12.9141H92.23V12.1255C92.23 11.5256 92.0506 11.0493 91.6919 10.6968C91.3332 10.3381 90.8044 10.1587 90.1055 10.1587C89.4932 10.1587 88.9798 10.3133 88.5654 10.6226C88.151 10.9318 87.9438 11.306 87.9438 11.7451H86.2183C86.2183 11.2441 86.3945 10.7617 86.7471 10.2979C87.1058 9.8278 87.5882 9.45671 88.1943 9.18457C88.8066 8.91243 89.4777 8.77637 90.2075 8.77637C91.3641 8.77637 92.2702 9.06706 92.9258 9.64844C93.5814 10.2236 93.9215 11.0184 93.9463 12.0327V16.6528C93.9463 17.5744 94.0638 18.3073 94.2988 18.8516V19H92.499ZM89.6509 17.6919C90.189 17.6919 90.6992 17.5527 91.1816 17.2744C91.6641 16.9961 92.0135 16.6343 92.23 16.189V14.1294H90.8848C88.7819 14.1294 87.7305 14.7448 87.7305 15.9756C87.7305 16.5137 87.9098 16.9342 88.2686 17.2373C88.6273 17.5404 89.0881 17.6919 89.6509 17.6919ZM101.489 10.502C101.229 10.4587 100.948 10.437 100.645 10.437C99.5189 10.437 98.755 10.9163 98.353 11.875V19H96.6367V8.96191H98.3066L98.3345 10.1216C98.8973 9.22477 99.6951 8.77637 100.728 8.77637C101.062 8.77637 101.316 8.81966 101.489 8.90625V10.502ZM106.916 17.7847C107.528 17.7847 108.063 17.5991 108.521 17.228C108.979 16.8569 109.232 16.3931 109.282 15.8364H110.905C110.874 16.4116 110.676 16.959 110.312 17.4785C109.947 17.998 109.458 18.4124 108.846 18.7217C108.24 19.0309 107.596 19.1855 106.916 19.1855C105.549 19.1855 104.461 18.731 103.65 17.8218C102.846 16.9064 102.444 15.6571 102.444 14.0737V13.7861C102.444 12.8089 102.624 11.9399 102.982 11.1792C103.341 10.4185 103.854 9.8278 104.522 9.40723C105.197 8.98665 105.991 8.77637 106.907 8.77637C108.032 8.77637 108.966 9.11344 109.708 9.7876C110.457 10.4618 110.856 11.3369 110.905 12.4131H109.282C109.232 11.7637 108.985 11.2318 108.54 10.8174C108.1 10.3968 107.556 10.1865 106.907 10.1865C106.035 10.1865 105.357 10.502 104.875 11.1328C104.399 11.7575 104.161 12.6636 104.161 13.8511V14.1758C104.161 15.3324 104.399 16.223 104.875 16.8477C105.351 17.4723 106.032 17.7847 106.916 17.7847ZM119.032 19C118.933 18.8021 118.853 18.4495 118.791 17.9424C117.993 18.7712 117.041 19.1855 115.934 19.1855C114.944 19.1855 114.131 18.9072 113.494 18.3506C112.863 17.7878 112.547 17.0765 112.547 16.2168C112.547 15.1715 112.943 14.3613 113.735 13.7861C114.533 13.2048 115.652 12.9141 117.093 12.9141H118.763V12.1255C118.763 11.5256 118.584 11.0493 118.225 10.6968C117.866 10.3381 117.338 10.1587 116.639 10.1587C116.026 10.1587 115.513 10.3133 115.099 10.6226C114.684 10.9318 114.477 11.306 114.477 11.7451H112.751C112.751 11.2441 112.928 10.7617 113.28 10.2979C113.639 9.8278 114.121 9.45671 114.728 9.18457C115.34 8.91243 116.011 8.77637 116.741 8.77637C117.897 8.77637 118.803 9.06706 119.459 9.64844C120.115 10.2236 120.455 11.0184 120.479 12.0327V16.6528C120.479 17.5744 120.597 18.3073 120.832 18.8516V19H119.032ZM116.184 17.6919C116.722 17.6919 117.232 17.5527 117.715 17.2744C118.197 16.9961 118.547 16.6343 118.763 16.189V14.1294H117.418C115.315 14.1294 114.264 14.7448 114.264 15.9756C114.264 16.5137 114.443 16.9342 114.802 17.2373C115.16 17.5404 115.621 17.6919 116.184 17.6919ZM128.022 10.502C127.762 10.4587 127.481 10.437 127.178 10.437C126.052 10.437 125.288 10.9163 124.886 11.875V19H123.17V8.96191H124.84L124.868 10.1216C125.431 9.22477 126.228 8.77637 127.261 8.77637C127.595 8.77637 127.849 8.81966 128.022 8.90625V10.502ZM136.65 6.53125V8.96191H138.524V10.2886H136.65V16.5137C136.65 16.9157 136.733 17.2188 136.9 17.4229C137.067 17.6208 137.352 17.7197 137.754 17.7197C137.952 17.7197 138.224 17.6826 138.57 17.6084V19C138.119 19.1237 137.68 19.1855 137.253 19.1855C136.486 19.1855 135.908 18.9536 135.518 18.4897C135.128 18.0259 134.934 17.3672 134.934 16.5137V10.2886H133.106V8.96191H134.934V6.53125H136.65ZM139.897 13.8882C139.897 12.9048 140.089 12.0203 140.472 11.2349C140.862 10.4494 141.4 9.84326 142.086 9.4165C142.779 8.98975 143.568 8.77637 144.452 8.77637C145.819 8.77637 146.923 9.24951 147.764 10.1958C148.611 11.1421 149.035 12.4007 149.035 13.9717V14.0923C149.035 15.0695 148.847 15.9478 148.469 16.7271C148.098 17.5002 147.563 18.1032 146.864 18.5361C146.172 18.9691 145.374 19.1855 144.471 19.1855C143.11 19.1855 142.006 18.7124 141.159 17.7661C140.318 16.8198 139.897 15.5674 139.897 14.0088V13.8882ZM141.623 14.0923C141.623 15.2056 141.879 16.0993 142.393 16.7734C142.912 17.4476 143.605 17.7847 144.471 17.7847C145.343 17.7847 146.035 17.4445 146.549 16.7642C147.062 16.0776 147.319 15.119 147.319 13.8882C147.319 12.7873 147.056 11.8966 146.53 11.2163C146.011 10.5298 145.318 10.1865 144.452 10.1865C143.605 10.1865 142.921 10.5236 142.402 11.1978C141.882 11.8719 141.623 12.8368 141.623 14.0923ZM150.77 13.8975C150.77 12.3574 151.135 11.1204 151.865 10.1865C152.595 9.24642 153.55 8.77637 154.731 8.77637C155.907 8.77637 156.837 9.17839 157.524 9.98242V4.75H159.24V19H157.663L157.58 17.9238C156.893 18.765 155.938 19.1855 154.713 19.1855C153.55 19.1855 152.601 18.7093 151.865 17.7568C151.135 16.8044 150.77 15.5612 150.77 14.0273V13.8975ZM152.486 14.0923C152.486 15.2303 152.721 16.1209 153.191 16.7642C153.661 17.4074 154.311 17.729 155.14 17.729C156.228 17.729 157.023 17.2404 157.524 16.2632V11.6523C157.011 10.7061 156.222 10.2329 155.158 10.2329C154.317 10.2329 153.661 10.5576 153.191 11.207C152.721 11.8564 152.486 12.8182 152.486 14.0923ZM161.458 13.8882C161.458 12.9048 161.649 12.0203 162.033 11.2349C162.422 10.4494 162.96 9.84326 163.647 9.4165C164.34 8.98975 165.128 8.77637 166.013 8.77637C167.38 8.77637 168.484 9.24951 169.325 10.1958C170.172 11.1421 170.596 12.4007 170.596 13.9717V14.0923C170.596 15.0695 170.407 15.9478 170.03 16.7271C169.659 17.5002 169.124 18.1032 168.425 18.5361C167.732 18.9691 166.934 19.1855 166.031 19.1855C164.671 19.1855 163.567 18.7124 162.719 17.7661C161.878 16.8198 161.458 15.5674 161.458 14.0088V13.8882ZM163.183 14.0923C163.183 15.2056 163.44 16.0993 163.953 16.7734C164.473 17.4476 165.165 17.7847 166.031 17.7847C166.903 17.7847 167.596 17.4445 168.109 16.7642C168.623 16.0776 168.879 15.119 168.879 13.8882C168.879 12.7873 168.617 11.8966 168.091 11.2163C167.571 10.5298 166.879 10.1865 166.013 10.1865C165.165 10.1865 164.482 10.5236 163.962 11.1978C163.443 11.8719 163.183 12.8368 163.183 14.0923ZM178.593 16.3374C178.593 15.8735 178.417 15.5148 178.064 15.2612C177.718 15.0015 177.108 14.7788 176.236 14.5933C175.37 14.4077 174.681 14.1851 174.167 13.9253C173.66 13.6655 173.283 13.3563 173.036 12.9976C172.794 12.6388 172.674 12.2121 172.674 11.7173C172.674 10.8947 173.02 10.1989 173.713 9.62988C174.412 9.06087 175.302 8.77637 176.385 8.77637C177.523 8.77637 178.444 9.07015 179.149 9.65771C179.861 10.2453 180.216 10.9967 180.216 11.9121H178.491C178.491 11.4421 178.29 11.0369 177.888 10.6968C177.492 10.3566 176.991 10.1865 176.385 10.1865C175.76 10.1865 175.271 10.3226 174.919 10.5947C174.566 10.8669 174.39 11.2225 174.39 11.6616C174.39 12.076 174.554 12.3883 174.882 12.5986C175.21 12.8089 175.8 13.0099 176.654 13.2017C177.514 13.3934 178.209 13.6222 178.741 13.8882C179.273 14.1541 179.666 14.4757 179.919 14.853C180.179 15.2241 180.309 15.6787 180.309 16.2168C180.309 17.1136 179.95 17.8341 179.233 18.3784C178.515 18.9165 177.585 19.1855 176.44 19.1855C175.636 19.1855 174.925 19.0433 174.307 18.7588C173.688 18.4743 173.203 18.0785 172.85 17.5713C172.504 17.0579 172.331 16.5044 172.331 15.9106H174.047C174.078 16.4858 174.307 16.9435 174.733 17.2837C175.166 17.6177 175.735 17.7847 176.44 17.7847C177.09 17.7847 177.609 17.6548 177.999 17.395C178.395 17.1291 178.593 16.7765 178.593 16.3374Z" fill="#3871A7"/>
</svg>
