<svg width="150" height="26" viewBox="0 0 150 26" fill="none" xmlns="http://www.w3.org/2000/svg">
<path d="M24.4722 10.6279C24.4722 16.0404 19.1932 20.5727 12.4861 20.5727C5.77905 20.5727 0.5 16.0404 0.5 10.6279C0.5 5.21539 5.77905 0.68306 12.4861 0.68306C19.1932 0.68306 24.4722 5.21539 24.4722 10.6279Z" fill="#3871A7" stroke="#3871A7"/>
<line y1="-1" x2="6.75362" y2="-1" transform="matrix(0.715666 0.698443 -0.812684 0.582705 6.44434 8.26935)" stroke="white" stroke-width="2"/>
<line y1="-1" x2="14.5394" y2="-1" transform="matrix(0.831073 -0.556164 0.691157 0.722704 11.2773 12.9864)" stroke="white" stroke-width="2"/>
<line y1="-1" x2="4.84648" y2="-1" transform="matrix(0.831073 -0.556164 0.691157 0.722704 23.3613 4.90009)" stroke="#3871A7" stroke-width="2"/>
<path d="M28.4999 19.3881C28.4999 22.5676 25.3848 25.2897 21.3471 25.2897C17.3094 25.2897 14.1943 22.5676 14.1943 19.3881C14.1943 16.2085 17.3094 13.4864 21.3471 13.4864C25.3848 13.4864 28.4999 16.2085 28.4999 19.3881Z" fill="white" stroke="white"/>
<line x1="17.7227" y1="19.3988" x2="25.7782" y2="19.3988" stroke="#3871A7" stroke-width="2"/>
<line x1="21.9443" y1="16.3557" x2="21.9443" y2="23.0943" stroke="#3871A7" stroke-width="2"/>
<path d="M40.8687 5.64499L45.2847 16.6665L49.7007 5.64499H52.0107V19.1528H50.2295V13.8925L50.3965 8.21481L45.9619 19.1528H44.5981L40.1729 8.24265L40.3491 13.8925V19.1528H38.5679V5.64499H40.8687ZM61.084 19.1528C60.985 18.9549 60.9046 18.6023 60.8428 18.0952C60.0449 18.924 59.0924 19.3383 57.9854 19.3383C56.9958 19.3383 56.1825 19.06 55.5454 18.5034C54.9146 17.9406 54.5991 17.2293 54.5991 16.3696C54.5991 15.3244 54.995 14.5141 55.7866 13.9389C56.5845 13.3576 57.7039 13.0669 59.145 13.0669H60.8149V12.2783C60.8149 11.6784 60.6356 11.2021 60.2769 10.8496C59.9181 10.4909 59.3893 10.3115 58.6904 10.3115C58.0781 10.3115 57.5648 10.4661 57.1504 10.7754C56.736 11.0846 56.5288 11.4588 56.5288 11.8979H54.8032C54.8032 11.3969 54.9795 10.9145 55.332 10.4507C55.6908 9.9806 56.1732 9.60951 56.7793 9.33737C57.3916 9.06524 58.0627 8.92917 58.7925 8.92917C59.9491 8.92917 60.8551 9.21986 61.5107 9.80124C62.1663 10.3764 62.5065 11.1712 62.5312 12.1855V16.8056C62.5312 17.7272 62.6488 18.4601 62.8838 19.0044V19.1528H61.084ZM58.2358 17.8447C58.7739 17.8447 59.2842 17.7055 59.7666 17.4272C60.249 17.1489 60.5985 16.7871 60.8149 16.3418V14.2822H59.4697C57.3669 14.2822 56.3154 14.8976 56.3154 16.1284C56.3154 16.6665 56.4948 17.087 56.8535 17.3901C57.2122 17.6932 57.673 17.8447 58.2358 17.8447ZM70.0737 10.6548C69.814 10.6115 69.5326 10.5898 69.2295 10.5898C68.1038 10.5898 67.34 11.0691 66.938 12.0278V19.1528H65.2217V9.11472H66.8916L66.9194 10.2744C67.4823 9.37757 68.2801 8.92917 69.313 8.92917C69.647 8.92917 69.9006 8.97246 70.0737 9.05905V10.6548ZM75.501 17.9375C76.1133 17.9375 76.6483 17.7519 77.106 17.3808C77.5636 17.0097 77.8172 16.5459 77.8667 15.9892H79.4902C79.4593 16.5644 79.2614 17.1118 78.8965 17.6313C78.5316 18.1508 78.043 18.5652 77.4307 18.8745C76.8245 19.1837 76.1813 19.3383 75.501 19.3383C74.1341 19.3383 73.0456 18.8838 72.2354 17.9746C71.4313 17.0592 71.0293 15.8099 71.0293 14.2265V13.9389C71.0293 12.9617 71.2087 12.0927 71.5674 11.332C71.9261 10.5713 72.4395 9.9806 73.1074 9.56003C73.7816 9.13946 74.5763 8.92917 75.4917 8.92917C76.6174 8.92917 77.5513 9.26625 78.2935 9.9404C79.0418 10.6146 79.4408 11.4897 79.4902 12.5659H77.8667C77.8172 11.9165 77.5698 11.3846 77.1245 10.9702C76.6854 10.5496 76.1411 10.3393 75.4917 10.3393C74.6196 10.3393 73.9424 10.6548 73.46 11.2856C72.9837 11.9103 72.7456 12.8164 72.7456 14.0039V14.3286C72.7456 15.4852 72.9837 16.3758 73.46 17.0005C73.9362 17.6251 74.6165 17.9375 75.501 17.9375ZM87.6172 19.1528C87.5182 18.9549 87.4378 18.6023 87.376 18.0952C86.5781 18.924 85.6257 19.3383 84.5186 19.3383C83.529 19.3383 82.7157 19.06 82.0786 18.5034C81.4478 17.9406 81.1323 17.2293 81.1323 16.3696C81.1323 15.3244 81.5282 14.5141 82.3198 13.9389C83.1177 13.3576 84.2371 13.0669 85.6782 13.0669H87.3481V12.2783C87.3481 11.6784 87.1688 11.2021 86.8101 10.8496C86.4513 10.4909 85.9225 10.3115 85.2236 10.3115C84.6113 10.3115 84.098 10.4661 83.6836 10.7754C83.2692 11.0846 83.062 11.4588 83.062 11.8979H81.3364C81.3364 11.3969 81.5127 10.9145 81.8652 10.4507C82.224 9.9806 82.7064 9.60951 83.3125 9.33737C83.9248 9.06524 84.5959 8.92917 85.3257 8.92917C86.4823 8.92917 87.3883 9.21986 88.0439 9.80124C88.6995 10.3764 89.0397 11.1712 89.0645 12.1855V16.8056C89.0645 17.7272 89.182 18.4601 89.417 19.0044V19.1528H87.6172ZM84.769 17.8447C85.3071 17.8447 85.8174 17.7055 86.2998 17.4272C86.7822 17.1489 87.1317 16.7871 87.3481 16.3418V14.2822H86.0029C83.9001 14.2822 82.8486 14.8976 82.8486 16.1284C82.8486 16.6665 83.028 17.087 83.3867 17.3901C83.7454 17.6932 84.2062 17.8447 84.769 17.8447ZM96.6069 10.6548C96.3472 10.6115 96.0658 10.5898 95.7627 10.5898C94.637 10.5898 93.8732 11.0691 93.4712 12.0278V19.1528H91.7549V9.11472H93.4248L93.4526 10.2744C94.0155 9.37757 94.8133 8.92917 95.8462 8.92917C96.1802 8.92917 96.4338 8.97246 96.6069 9.05905V10.6548ZM105.235 6.68405V9.11472H107.109V10.4414H105.235V16.6665C105.235 17.0685 105.318 17.3716 105.485 17.5757C105.652 17.7736 105.937 17.8725 106.339 17.8725C106.537 17.8725 106.809 17.8354 107.155 17.7612V19.1528C106.704 19.2765 106.265 19.3383 105.838 19.3383C105.071 19.3383 104.493 19.1064 104.103 18.6425C103.713 18.1787 103.519 17.52 103.519 16.6665V10.4414H101.691V9.11472H103.519V6.68405H105.235ZM108.482 14.041C108.482 13.0576 108.674 12.1731 109.057 11.3877C109.447 10.6022 109.985 9.99606 110.671 9.56931C111.364 9.14255 112.153 8.92917 113.037 8.92917C114.404 8.92917 115.508 9.40231 116.349 10.3486C117.196 11.2949 117.62 12.5535 117.62 14.1245V14.2451C117.62 15.2223 117.431 16.1006 117.054 16.8799C116.683 17.653 116.148 18.256 115.449 18.6889C114.757 19.1219 113.959 19.3383 113.056 19.3383C111.695 19.3383 110.591 18.8652 109.744 17.9189C108.903 16.9726 108.482 15.7202 108.482 14.1616V14.041ZM110.208 14.2451C110.208 15.3584 110.464 16.2521 110.978 16.9262C111.497 17.6004 112.19 17.9375 113.056 17.9375C113.928 17.9375 114.62 17.5973 115.134 16.917C115.647 16.2304 115.904 15.2718 115.904 14.041C115.904 12.9401 115.641 12.0494 115.115 11.3691C114.596 10.6826 113.903 10.3393 113.037 10.3393C112.19 10.3393 111.506 10.6764 110.987 11.3506C110.467 12.0247 110.208 12.9896 110.208 14.2451ZM119.355 14.0503C119.355 12.5102 119.72 11.2732 120.45 10.3393C121.18 9.39922 122.135 8.92917 123.316 8.92917C124.492 8.92917 125.422 9.33119 126.109 10.1352V4.9028H127.825V19.1528H126.248L126.165 18.0766C125.478 18.9178 124.522 19.3383 123.298 19.3383C122.135 19.3383 121.186 18.8621 120.45 17.9096C119.72 16.9572 119.355 15.714 119.355 14.1801V14.0503ZM121.071 14.2451C121.071 15.3831 121.306 16.2737 121.776 16.917C122.246 17.5602 122.896 17.8818 123.725 17.8818C124.813 17.8818 125.608 17.3932 126.109 16.416V11.8051C125.596 10.8589 124.807 10.3857 123.743 10.3857C122.902 10.3857 122.246 10.7104 121.776 11.3598C121.306 12.0092 121.071 12.971 121.071 14.2451ZM130.042 14.041C130.042 13.0576 130.234 12.1731 130.618 11.3877C131.007 10.6022 131.545 9.99606 132.232 9.56931C132.925 9.14255 133.713 8.92917 134.598 8.92917C135.965 8.92917 137.069 9.40231 137.91 10.3486C138.757 11.2949 139.181 12.5535 139.181 14.1245V14.2451C139.181 15.2223 138.992 16.1006 138.615 16.8799C138.244 17.653 137.709 18.256 137.01 18.6889C136.317 19.1219 135.519 19.3383 134.616 19.3383C133.256 19.3383 132.152 18.8652 131.304 17.9189C130.463 16.9726 130.042 15.7202 130.042 14.1616V14.041ZM131.768 14.2451C131.768 15.3584 132.025 16.2521 132.538 16.9262C133.058 17.6004 133.75 17.9375 134.616 17.9375C135.488 17.9375 136.181 17.5973 136.694 16.917C137.208 16.2304 137.464 15.2718 137.464 14.041C137.464 12.9401 137.201 12.0494 136.676 11.3691C136.156 10.6826 135.464 10.3393 134.598 10.3393C133.75 10.3393 133.067 10.6764 132.547 11.3506C132.028 12.0247 131.768 12.9896 131.768 14.2451ZM147.178 16.4902C147.178 16.0263 147.001 15.6676 146.649 15.414C146.303 15.1543 145.693 14.9316 144.821 14.7461C143.955 14.5605 143.266 14.3379 142.752 14.0781C142.245 13.8183 141.868 13.5091 141.621 13.1504C141.379 12.7916 141.259 12.3649 141.259 11.8701C141.259 11.0475 141.605 10.3517 142.298 9.78268C142.997 9.21367 143.887 8.92917 144.97 8.92917C146.108 8.92917 147.029 9.22295 147.734 9.81052C148.446 10.3981 148.801 11.1495 148.801 12.0649H147.076C147.076 11.5949 146.875 11.1897 146.473 10.8496C146.077 10.5094 145.576 10.3393 144.97 10.3393C144.345 10.3393 143.856 10.4754 143.504 10.7475C143.151 11.0197 142.975 11.3753 142.975 11.8144C142.975 12.2288 143.139 12.5411 143.467 12.7514C143.795 12.9617 144.385 13.1627 145.239 13.3545C146.098 13.5462 146.794 13.775 147.326 14.041C147.858 14.3069 148.251 14.6286 148.504 15.0058C148.764 15.3769 148.894 15.8315 148.894 16.3696C148.894 17.2664 148.535 17.9869 147.818 18.5312C147.1 19.0693 146.17 19.3383 145.025 19.3383C144.221 19.3383 143.51 19.1961 142.892 18.9116C142.273 18.6271 141.788 18.2313 141.435 17.7241C141.089 17.2107 140.916 16.6572 140.916 16.0634H142.632C142.663 16.6386 142.892 17.0963 143.318 17.4365C143.751 17.7705 144.32 17.9375 145.025 17.9375C145.675 17.9375 146.194 17.8076 146.584 17.5478C146.98 17.2819 147.178 16.9293 147.178 16.4902Z" fill="#3871A7"/>
</svg>
