<svg width="391" height="58" viewBox="0 0 391 58" fill="none" xmlns="http://www.w3.org/2000/svg">
<path d="M214.5 56.36C188.545 56.36 163.455 57.36 137.5 57.36L67.5 55.36L0 48.86V10.36C25.1524 7.47768 46.9868 5.22558 67.5 3.5681C91.5772 1.62265 113.834 0.496403 137.5 0.131749C160.779 -0.226949 185.421 0.151274 214.5 1.21159C282.413 3.4694 318.489 8.1093 364.5 15.86C374.89 17.6102 381.173 21.3841 388.5 25.86C390.522 26.6068 391.054 31.9184 388.5 33.36C380.13 38.0847 379.82 39.2691 364.5 42.36C307.5 53.86 276.864 57.0062 214.5 56.36Z" fill="#EFF7FF"/>
</svg>
