<svg width="51" height="50" viewBox="0 0 51 50" fill="none" xmlns="http://www.w3.org/2000/svg">
<g clip-path="url(#clip0)">
<path d="M21.769 36.6935C21.769 31.7396 24.5305 27.2465 28.9372 24.9423C29.231 24.7696 29.5247 24.6544 29.8186 24.5391C27.6446 23.5598 25.4119 23.0991 23.0616 23.0991H18.5962C9.60654 23.0415 2.26208 30.242 2.26208 39.0552V43.0874C2.26208 44.0667 3.02593 44.8155 4.0247 44.8155H24.5892C24.413 44.5851 24.1779 44.2971 24.0017 44.0091C22.5328 41.8778 21.769 39.3433 21.769 36.6935Z" fill="#4DCFE0"/>
<path d="M20.8289 21.1981C23.708 21.1981 26.4695 20.046 28.4671 18.0875C30.5236 16.0714 31.6399 13.4217 31.6399 10.5991C31.6399 7.77654 30.5235 5.06918 28.4671 3.11068C26.4108 1.09452 23.708 0 20.8289 0C17.9499 0 15.1884 1.09452 13.1907 3.11057C11.1931 5.06918 10.0179 7.83409 10.0179 10.5991C10.0179 16.417 14.8946 21.1981 20.8289 21.1981Z" fill="#4DCFE0"/>
<path d="M35.0478 23.3295C33.1677 23.3295 31.2874 23.7327 29.5248 24.4816C29.2311 24.5968 28.9373 24.7696 28.6434 24.8848C24.2367 27.2465 21.4752 31.7396 21.4752 36.636C21.4752 39.2858 22.2391 41.8203 23.7079 43.9516C23.8842 44.2396 24.0605 44.4701 24.2954 44.7581C26.8807 48.0415 30.8173 50 35.1065 50C42.6272 50 48.7378 44.0092 48.7378 36.636C48.7378 29.2628 42.5685 23.3295 35.0478 23.3295Z" fill="#D4E1F4"/>
<path d="M36.8105 41.4746V38.4216H39.9246C40.9235 38.4216 41.6872 37.6727 41.6872 36.6935C41.6872 35.7143 40.9233 34.9655 39.9246 34.9655H36.8105V31.9124C36.8105 30.9331 36.0467 30.1844 35.0479 30.1844C34.049 30.1844 33.2853 30.9333 33.2853 31.9124V34.9655H30.1712C29.1723 34.9655 28.4086 35.7143 28.4086 36.6935C28.4086 37.6727 29.1724 38.4216 30.1712 38.4216H33.2853V41.4746C33.2853 42.4539 34.0491 43.2026 35.0479 43.2026C36.0467 43.2028 36.8105 42.4539 36.8105 41.4746Z" fill="#3A2C51"/>
</g>
<defs>
<clipPath id="clip0">
<rect width="51" height="50" fill="white"/>
</clipPath>
</defs>
</svg>
