<svg width="50" height="50" viewBox="0 0 50 50" fill="none" xmlns="http://www.w3.org/2000/svg">
<path d="M44.5495 47.0817L49.0698 5.11957L17.8012 1.75117L13.2809 43.7133L44.5495 47.0817Z" fill="#132F3B"/>
<path d="M3.89045 44.3055L35.2599 42.101L32.3015 0.00339194L0.932019 2.2079L3.89045 44.3055Z" fill="#388CB2"/>
<path d="M24.9736 42.8247L35.2634 42.1011L32.3028 0L24.9736 0.515427V42.8247Z" fill="#265D77"/>
<path d="M9.65515 49.9997H38.1731V8.30435H9.65515V49.9997Z" fill="#B7E4F8"/>
<path d="M38.1732 8.30435H24.9736V50H38.1732V8.30435Z" fill="#6FC8F1"/>
<path d="M33.4747 29.2848H14.3541V32.2165H33.4747V29.2848Z" fill="#265D77"/>
<path d="M33.4747 34.4993H14.3541V37.431H33.4747V34.4993Z" fill="#265D77"/>
<path d="M33.4747 39.7138H14.3541V42.6456H33.4747V39.7138Z" fill="#265D77"/>
<path d="M33.4743 29.2848H24.9736V32.2165H33.4743V29.2848Z" fill="#132F3B"/>
<path d="M33.4743 39.7138H24.9736V42.6456H33.4743V39.7138Z" fill="#132F3B"/>
<path d="M33.4743 34.4993H24.9736V37.431H33.4743V34.4993Z" fill="#132F3B"/>
<path d="M14.0582 20.8424C14.0582 18.0061 16.2349 16.0141 19.2031 16.0141C21.0105 16.0141 22.4352 16.6737 23.3455 17.8609L21.3799 19.6154C20.8389 18.9294 20.1927 18.5336 19.3615 18.5336C18.0687 18.5336 17.1981 19.4307 17.1981 20.8422C17.1981 22.2537 18.0687 23.1507 19.3615 23.1507C20.1927 23.1507 20.839 22.7549 21.3799 22.0689L23.3455 23.8234C22.4352 25.0106 21.0104 25.6703 19.2031 25.6703C16.2349 25.6707 14.0582 23.6787 14.0582 20.8424Z" fill="#265D77"/>
<path d="M34.1104 16.2251L30.2056 25.4596H27.1449L23.24 16.2251H26.5907L28.7939 21.6207L31.0498 16.2251H34.1104V16.2251Z" fill="#265D77"/>
<path d="M31.0499 16.2251L28.794 21.6208L26.5909 16.2251H24.9736V20.3248L27.145 25.4596H30.2056L34.1104 16.2251H31.0499Z" fill="#132F3B"/>
</svg>
