<svg width="67" height="55" viewBox="0 0 67 55" fill="none" xmlns="http://www.w3.org/2000/svg">
<path d="M4.1875 8.59375H62.8125C65.125 8.59375 67 10.1329 67 12.0312V42.9688C67 44.8671 65.125 46.4062 62.8125 46.4062H4.1875C1.87497 46.4062 0 44.8671 0 42.9688V12.0312C0 10.1329 1.87497 8.59375 4.1875 8.59375Z" fill="#82B1FF"/>
<path d="M24.0781 18.9062C24.0781 22.2288 20.7974 24.9219 16.75 24.9219C12.7026 24.9219 9.42188 22.2288 9.42188 18.9062C9.42188 15.5837 12.7026 12.8906 16.75 12.8906C20.7974 12.8906 24.0781 15.5837 24.0781 18.9062Z" fill="#E4EDFB"/>
<path d="M29.3125 39.5312H4.1875V34.375C4.1875 31.5275 6.99995 29.2188 10.4688 29.2188H23.0312C26.5 29.2188 29.3125 31.5275 29.3125 34.375V39.5312Z" fill="#E4EDFB"/>
<path d="M35.5938 15.4688H60.7188C61.875 15.4688 62.8125 16.2383 62.8125 17.1875C62.8125 18.1367 61.875 18.9062 60.7188 18.9062H35.5938C34.4375 18.9062 33.5 18.1367 33.5 17.1875C33.5 16.2383 34.4375 15.4688 35.5938 15.4688Z" fill="#448AFF"/>
<path d="M35.5938 22.3438H39.7812C40.9375 22.3438 41.875 23.1133 41.875 24.0625C41.875 25.0117 40.9375 25.7812 39.7812 25.7812H35.5938C34.4375 25.7812 33.5 25.0117 33.5 24.0625C33.5 23.1133 34.4375 22.3438 35.5938 22.3438Z" fill="#448AFF"/>
<path d="M48.1562 22.3438H60.7188C61.875 22.3438 62.8125 23.1133 62.8125 24.0625C62.8125 25.0117 61.875 25.7812 60.7188 25.7812H48.1562C47 25.7812 46.0625 25.0117 46.0625 24.0625C46.0625 23.1133 47 22.3438 48.1562 22.3438Z" fill="#448AFF"/>
<path d="M35.5938 29.2188H39.7812C40.9375 29.2188 41.875 29.9883 41.875 30.9375C41.875 31.8867 40.9375 32.6562 39.7812 32.6562H35.5938C34.4375 32.6562 33.5 31.8867 33.5 30.9375C33.5 29.9883 34.4375 29.2188 35.5938 29.2188Z" fill="#448AFF"/>
<path d="M48.1562 29.2188H60.7188C61.875 29.2188 62.8125 29.9883 62.8125 30.9375C62.8125 31.8867 61.875 32.6562 60.7188 32.6562H48.1562C47 32.6562 46.0625 31.8867 46.0625 30.9375C46.0625 29.9883 47 29.2188 48.1562 29.2188Z" fill="#448AFF"/>
<path d="M50.25 36.0938H54.4375V39.5312H50.25V36.0938Z" fill="white"/>
<path d="M41.875 36.0938H46.0625V39.5312H41.875V36.0938Z" fill="white"/>
<path d="M33.5 36.0938H37.6875V39.5312H33.5V36.0938Z" fill="white"/>
</svg>
