<svg width="118" height="34" viewBox="0 0 118 34" fill="none" xmlns="http://www.w3.org/2000/svg">
<g clip-path="url(#clip0)">
<path d="M16 0.966003C7.159 0.966003 -0.0350037 8.158 -0.0350037 17C-0.0350037 25.842 7.159 33.034 16 33.034C24.841 33.034 32.035 25.842 32.035 17C32.035 8.158 24.841 0.966003 16 0.966003ZM16 31.966C7.748 31.966 1.035 25.252 1.035 17C1.035 8.748 7.748 2.034 16 2.034C24.252 2.034 30.965 8.748 30.965 17C30.965 25.252 24.252 31.966 16 31.966Z" fill="#037AE9"/>
<path d="M19.5 8.00001H16.832C13.434 7.96601 13 10.069 13 12.345V14H11.5C11.4322 13.991 11.3632 13.9976 11.2984 14.0196C11.2336 14.0415 11.1748 14.0781 11.1264 14.1264C11.0781 14.1748 11.0415 14.2337 11.0196 14.2984C10.9976 14.3632 10.9909 14.4322 11 14.5V17.5C10.9909 17.5678 10.9976 17.6368 11.0196 17.7016C11.0415 17.7664 11.0781 17.8252 11.1264 17.8736C11.1748 17.922 11.2336 17.9585 11.2984 17.9804C11.3632 18.0024 11.4322 18.0091 11.5 18H13V25.5C12.9917 25.5679 12.999 25.6369 13.0213 25.7015C13.0437 25.7662 13.0806 25.8249 13.1291 25.8731C13.1776 25.9214 13.2366 25.9579 13.3014 25.9799C13.3662 26.0019 13.4351 26.0087 13.503 26H16.558C16.853 26.034 17.092 25.795 16.998 25.5L17 18H19.5C19.5678 18.0091 19.6368 18.0024 19.7016 17.9804C19.7663 17.9585 19.8252 17.922 19.8736 17.8736C19.9219 17.8252 19.9585 17.7664 19.9804 17.7016C20.0024 17.6368 20.0091 17.5678 20 17.5V14.5C20.0091 14.4322 20.0024 14.3632 19.9804 14.2984C19.9585 14.2337 19.9219 14.1748 19.8736 14.1264C19.8252 14.0781 19.7663 14.0415 19.7016 14.0196C19.6368 13.9976 19.5678 13.991 19.5 14H16.997L17 12.5C17.097 11.861 17.097 11.965 17.69 12H19.479C19.618 11.969 19.766 11.986 19.87 11.885C19.974 11.784 20.034 11.646 19.999 11.5V8.50001C20.0082 8.43227 20.0017 8.36331 19.9799 8.29851C19.9581 8.23371 19.9216 8.17481 19.8733 8.12642C19.825 8.07803 19.7662 8.04144 19.7015 8.01952C19.6367 7.99759 19.5678 7.99091 19.5 8.00001Z" fill="#037AE9"/>
</g>
<g clip-path="url(#clip1)">
<path d="M58 0.966003C49.159 0.966003 41.965 8.158 41.965 17C41.965 25.842 49.159 33.034 58 33.034C66.841 33.034 74.035 25.842 74.035 17C74.035 8.158 66.841 0.966003 58 0.966003ZM58 31.966C49.748 31.966 43.035 25.252 43.035 17C43.035 8.748 49.748 2.034 58 2.034C66.252 2.034 72.965 8.748 72.965 17C72.965 25.252 66.252 31.966 58 31.966Z" fill="#037AE9"/>
<path d="M66.794 12.046C66.9049 11.8407 66.9963 11.6254 67.067 11.403C67.0997 11.2998 67.1004 11.1892 67.0689 11.0856C67.0374 10.9821 66.9753 10.8905 66.8906 10.823C66.806 10.7555 66.703 10.7153 66.595 10.7076C66.487 10.6999 66.3793 10.7252 66.286 10.78C65.7736 11.0844 65.2189 11.3112 64.64 11.453C63.9373 10.8188 63.0246 10.4672 62.078 10.466C61.5637 10.4664 61.0548 10.5706 60.5818 10.7725C60.1088 10.9743 59.6814 11.2696 59.3252 11.6406C58.969 12.0116 58.6915 12.4507 58.5091 12.9315C58.3268 13.4124 58.2434 13.9251 58.264 14.439C56.015 14.1559 53.9613 13.0179 52.529 11.261C52.4741 11.1944 52.404 11.1421 52.3245 11.1085C52.2451 11.0748 52.1587 11.0608 52.0727 11.0677C51.9868 11.0746 51.9037 11.1021 51.8306 11.1479C51.7575 11.1938 51.6966 11.2566 51.653 11.331C51.325 11.8939 51.1467 12.5315 51.1352 13.1829C51.1236 13.8343 51.2792 14.4778 51.587 15.052C51.5115 15.0647 51.439 15.0912 51.373 15.13C51.2921 15.1816 51.2256 15.2527 51.1794 15.3367C51.1333 15.4208 51.1091 15.5151 51.109 15.611C51.109 16.746 51.614 17.788 52.428 18.496L52.393 18.531C52.3315 18.6005 52.2893 18.6849 52.2703 18.7757C52.2514 18.8665 52.2564 18.9607 52.285 19.049C52.4547 19.5785 52.7381 20.0646 53.1154 20.4731C53.4926 20.8816 53.9546 21.2027 54.469 21.414C53.4126 21.9293 52.2303 22.1303 51.063 21.993C50.943 21.9808 50.8223 22.0087 50.7199 22.0724C50.6175 22.1361 50.5391 22.232 50.497 22.345C50.4566 22.4589 50.4558 22.5831 50.4948 22.6974C50.5339 22.8118 50.6104 22.9096 50.712 22.975C52.299 23.9936 54.1452 24.5347 56.031 24.534C62.211 24.534 65.905 19.514 65.905 14.661L65.904 14.497C66.5029 14.0294 67.0232 13.469 67.445 12.837C67.5089 12.7415 67.5403 12.6279 67.5346 12.5131C67.5289 12.3983 67.4864 12.2884 67.4133 12.1997C67.3403 12.1109 67.2406 12.0481 67.1291 12.0204C67.0175 11.9927 66.9 12.0017 66.794 12.046Z" fill="#037AE9"/>
</g>
<path d="M101 1C92.1783 1 85 8.17675 85 17C85 25.8233 92.1783 33 101 33C109.822 33 117 25.8233 117 17C117 8.17675 109.822 1 101 1ZM101 31.9343C92.766 31.9343 86.0677 25.2345 86.0677 17C86.0677 8.7655 92.766 2.06574 101 2.06574C109.234 2.06574 115.932 8.7655 115.932 17C115.932 25.2345 109.234 31.9343 101 31.9343Z" fill="#037AE9"/>
<path d="M106 14C106.552 14 107 13.5523 107 13C107 12.4477 106.552 12 106 12C105.448 12 105 12.4477 105 13C105 13.5523 105.448 14 106 14Z" fill="#037AE9"/>
<path d="M101.5 13C100.61 13 99.74 13.2639 98.9999 13.7584C98.2599 14.2529 97.6831 14.9557 97.3425 15.7779C97.002 16.6002 96.9128 17.505 97.0865 18.3779C97.2601 19.2508 97.6887 20.0526 98.318 20.682C98.9474 21.3113 99.7492 21.7399 100.622 21.9135C101.495 22.0872 102.4 21.9981 103.222 21.6575C104.044 21.3169 104.747 20.7401 105.242 20.0001C105.736 19.26 106 18.39 106 17.5C106 16.3065 105.526 15.1619 104.682 14.318C103.838 13.4741 102.693 13 101.5 13ZM101.5 20.4211C100.922 20.4211 100.357 20.2498 99.8771 19.9288C99.3967 19.6079 99.0223 19.1516 98.8012 18.6179C98.5801 18.0841 98.5223 17.4968 98.635 16.9301C98.7477 16.3635 99.0259 15.843 99.4345 15.4344C99.843 15.0259 100.363 14.7477 100.93 14.635C101.497 14.5223 102.084 14.5801 102.618 14.8012C103.152 15.0223 103.608 15.3967 103.929 15.8771C104.25 16.3575 104.421 16.9223 104.421 17.5C104.421 18.2747 104.113 19.0177 103.566 19.5655C103.018 20.1134 102.275 20.4211 101.5 20.4211Z" fill="#037AE9"/>
<path d="M101.5 10.4413C103.502 10.4413 103.74 10.4493 104.531 10.488C105.006 10.494 105.477 10.5872 105.923 10.7633C106.247 10.8965 106.54 11.1004 106.786 11.3619C107.031 11.6235 107.222 11.9369 107.347 12.282C107.512 12.7577 107.599 13.2601 107.605 13.7673C107.641 14.6107 107.649 14.864 107.649 17.0007C107.649 19.1373 107.641 19.3893 107.605 20.2327C107.599 20.7399 107.512 21.2423 107.347 21.718C107.222 22.0631 107.031 22.3765 106.786 22.6381C106.54 22.8996 106.247 23.1035 105.923 23.2367C105.477 23.4128 105.006 23.506 104.531 23.512C103.74 23.5507 103.502 23.5587 101.5 23.5587C99.4975 23.5587 99.26 23.5507 98.4694 23.512C97.9938 23.506 97.5228 23.4128 97.0769 23.2367C96.7533 23.1035 96.4595 22.8996 96.2143 22.6381C95.9691 22.3765 95.7779 22.0631 95.6531 21.718C95.488 21.2423 95.4006 20.7399 95.395 20.2327C95.3587 19.3893 95.3513 19.136 95.3513 17C95.3513 14.864 95.3587 14.6107 95.395 13.7673C95.4006 13.2601 95.488 12.7577 95.6531 12.282C95.7779 11.9369 95.9691 11.6235 96.2143 11.3619C96.4595 11.1004 96.7533 10.8965 97.0769 10.7633C97.5228 10.5872 97.9938 10.494 98.4694 10.488C99.26 10.4493 99.4975 10.4413 101.5 10.4413V10.4413ZM101.5 9C99.4631 9 99.2075 9.00933 98.4075 9.048C97.7855 9.0614 97.1701 9.18718 96.5875 9.42C96.0892 9.62553 95.6367 9.93985 95.2589 10.3428C94.8811 10.7458 94.5864 11.2285 94.3938 11.76C94.1754 12.3816 94.0575 13.0383 94.045 13.702C94.0088 14.5553 94 14.8267 94 17C94 19.1733 94.0088 19.4453 94.045 20.2987C94.0576 20.9622 94.1755 21.6186 94.3938 22.24C94.5864 22.7715 94.8811 23.2542 95.2589 23.6572C95.6367 24.0601 96.0892 24.3745 96.5875 24.58C97.1703 24.8129 97.7859 24.9387 98.4081 24.952C99.2081 24.9907 99.4631 25 101.5 25C103.537 25 103.792 24.9907 104.592 24.952C105.215 24.9387 105.83 24.8129 106.413 24.58C106.911 24.3745 107.364 24.0601 107.742 23.6572C108.12 23.2542 108.414 22.7715 108.607 22.24C108.825 21.6183 108.943 20.9617 108.955 20.298C108.991 19.4447 109 19.1733 109 17C109 14.8267 108.991 14.5547 108.955 13.7013C108.942 13.0378 108.825 12.3814 108.606 11.76C108.414 11.2285 108.119 10.7458 107.741 10.3428C107.363 9.93985 106.911 9.62553 106.413 9.42C105.83 9.18733 105.214 9.06178 104.592 9.04867C103.792 9.00867 103.537 9 101.5 9Z" fill="#037AE9"/>
<defs>
<clipPath id="clip0">
<rect width="32" height="32" fill="white" transform="translate(0 1)"/>
</clipPath>
<clipPath id="clip1">
<rect width="32" height="32" fill="white" transform="translate(42 1)"/>
</clipPath>
</defs>
</svg>
