<svg width="15" height="15" viewBox="0 0 15 15" fill="none" xmlns="http://www.w3.org/2000/svg">
<g clip-path="url(#clip0)">
<path d="M7.5 15C11.6422 15 15.0001 11.6422 15.0001 7.5C15.0001 3.35787 11.6422 0 7.5 0C3.35787 0 0 3.35787 0 7.5C0 11.6422 3.35787 15 7.5 15Z" fill="#E24C4B"/>
<path d="M15 7.5C15 11.625 11.625 15 7.5 15C5.10937 15 2.99999 13.9219 1.6406 12.1876C2.90623 13.2188 4.54686 13.8282 6.32813 13.8282C10.4531 13.8282 13.8281 10.4532 13.8281 6.32819C13.8281 4.54692 13.2188 2.90629 12.1875 1.64066C13.9219 2.99999 15 5.10937 15 7.5Z" fill="#D1403F"/>
<path d="M10.9219 10.9219C10.6406 11.2031 10.1719 11.2031 9.89063 10.9219L7.5 8.53125L5.1094 10.9219C4.82816 11.2031 4.35939 11.2031 4.07815 10.9219C3.79691 10.6406 3.79691 10.1719 4.07815 9.89063L6.46875 7.5L4.07815 5.10941C3.79691 4.82817 3.79691 4.3594 4.07815 4.07816C4.35939 3.79692 4.82816 3.79692 5.1094 4.07816L7.5 6.46875L9.89063 4.07816C10.1719 3.79692 10.6406 3.79692 10.9219 4.07816C11.2031 4.3594 11.2031 4.82817 10.9219 5.10941L8.53125 7.5L10.9219 9.89063C11.2031 10.1719 11.2031 10.6406 10.9219 10.9219Z" fill="white"/>
</g>
<defs>
<clipPath id="clip0">
<rect width="15" height="15" fill="white"/>
</clipPath>
</defs>
</svg>
