<svg width="15" height="15" viewBox="0 0 15 15" fill="none" xmlns="http://www.w3.org/2000/svg">
<g clip-path="url(#clip0)">
<path d="M7.5 15C11.6421 15 15 11.6421 15 7.5C15 3.35786 11.6421 0 7.5 0C3.35786 0 0 3.35786 0 7.5C0 11.6421 3.35786 15 7.5 15Z" fill="#32BA7C"/>
<path d="M5.58359 10.8833L9.44006 14.7397C12.6341 13.888 15 10.9779 15 7.5C15 7.42906 15 7.35806 15 7.28706L11.9716 4.49528L5.58359 10.8833Z" fill="#0AA06E"/>
<path d="M7.68925 9.17981C8.0205 9.51106 8.0205 10.0789 7.68925 10.4101L7.00312 11.0963C6.67194 11.4274 6.1041 11.4274 5.77287 11.0963L2.76814 8.06781C2.43691 7.73663 2.43691 7.16881 2.76814 6.83756L3.45426 6.15144C3.78549 5.82021 4.35331 5.82021 4.68454 6.15144L7.68925 9.17981Z" fill="white"/>
<path d="M10.3154 3.95112C10.6467 3.61989 11.2145 3.61989 11.5457 3.95112L12.2319 4.63724C12.5631 4.96847 12.5631 5.53629 12.2319 5.86753L7.02681 11.0489C6.69556 11.3801 6.12776 11.3801 5.79653 11.0489L5.11041 10.3628C4.77918 10.0316 4.77918 9.46375 5.11041 9.1325L10.3154 3.95112Z" fill="white"/>
</g>
<defs>
<clipPath id="clip0">
<rect width="15" height="15" fill="white"/>
</clipPath>
</defs>
</svg>
