<svg width="26" height="24" viewBox="0 0 26 24" fill="none" xmlns="http://www.w3.org/2000/svg">
<path d="M19.5 14.25H17.0625V12H15.4375V14.25H13V15.75H15.4375V18H17.0625V15.75H19.5V14.25Z" fill="#E8CC5A"/>
<path d="M25.1875 22.1895L21.3777 18.6735C22.3958 17.4638 22.8762 15.9414 22.721 14.4163C22.5658 12.8912 21.7867 11.478 20.5424 10.4645C19.298 9.45106 17.6819 8.9135 16.0233 8.96131C14.3646 9.00912 12.788 9.63872 11.6146 10.7219C10.4411 11.8051 9.75908 13.2604 9.70728 14.7914C9.65549 16.3225 10.2378 17.8143 11.3358 18.9629C12.4337 20.1116 13.9647 20.8307 15.6169 20.974C17.2691 21.1172 18.9183 20.6738 20.2288 19.734L24.0386 23.25L25.1875 22.1895ZM16.25 19.5C15.2858 19.5 14.3433 19.236 13.5416 18.7416C12.7399 18.2471 12.115 17.5443 11.7461 16.722C11.3771 15.8998 11.2805 14.995 11.4686 14.1221C11.6567 13.2491 12.121 12.4473 12.8028 11.818C13.4846 11.1887 14.3533 10.7601 15.2989 10.5864C16.2446 10.4128 17.2248 10.5019 18.1156 10.8425C19.0063 11.1831 19.7677 11.7599 20.3034 12.4999C20.8391 13.2399 21.125 14.11 21.125 15C21.1235 16.193 20.6094 17.3368 19.6955 18.1804C18.7815 19.024 17.5424 19.4986 16.25 19.5Z" fill="#E8CC5A"/>
<path d="M3.25 6H1.625V3C1.62543 2.6023 1.79677 2.221 2.10143 1.93978C2.40608 1.65856 2.81916 1.5004 3.25 1.5H6.5V3H3.25V6Z" fill="#E8CC5A"/>
<path d="M21.125 6H19.5V3H16.25V1.5H19.5C19.9308 1.5004 20.3439 1.65856 20.6486 1.93978C20.9532 2.221 21.1246 2.6023 21.125 3V6Z" fill="#E8CC5A"/>
<path d="M9.75 1.5H13V3H9.75V1.5Z" fill="#E8CC5A"/>
<path d="M6.5 19.5H3.25C2.81916 19.4996 2.40608 19.3414 2.10143 19.0602C1.79677 18.779 1.62543 18.3977 1.625 18V15H3.25V18H6.5V19.5Z" fill="#E8CC5A"/>
<path d="M1.625 9H3.25V12H1.625V9Z" fill="#E8CC5A"/>
</svg>
