<svg width="24" height="24" viewBox="0 0 24 24" fill="none" xmlns="http://www.w3.org/2000/svg">
<rect width="24" height="24" fill="white"/>
<path d="M17.5 12C18.9587 12 20.3576 12.5794 21.3891 13.6109C22.4205 14.6423 23 16.0413 23 17.5C23 18.9586 22.4205 20.3576 21.3891 21.389C20.3576 22.4205 18.9587 23 17.5 23C16.0413 23 14.6424 22.4205 13.6109 21.389C12.5795 20.3576 12 18.9586 12 17.5C12 16.0413 12.5795 14.6423 13.6109 13.6109C14.6424 12.5794 16.0413 12 17.5 12ZM17.5 14L17.41 14.007C17.3101 14.0252 17.2181 14.0734 17.1463 14.1453C17.0745 14.2171 17.0263 14.309 17.008 14.409L17 14.5V17H14.498L14.408 17.009C14.3081 17.0272 14.2161 17.0754 14.1443 17.1473C14.0725 17.2191 14.0243 17.311 14.006 17.411L13.998 17.501L14.006 17.591C14.0243 17.6909 14.0725 17.7828 14.1443 17.8546C14.2161 17.9265 14.3081 17.9747 14.408 17.993L14.498 18.001H17V20.504L17.008 20.594C17.0263 20.6939 17.0745 20.7858 17.1463 20.8576C17.2181 20.9295 17.3101 20.9777 17.41 20.996L17.5 21.004L17.59 20.996C17.6899 20.9777 17.7819 20.9295 17.8537 20.8576C17.9255 20.7858 17.9737 20.6939 17.992 20.594L18 20.504V18H20.504L20.594 17.993C20.6939 17.9747 20.7859 17.9265 20.8577 17.8546C20.9295 17.7828 20.9777 17.6909 20.996 17.591L21.004 17.501L20.996 17.411C20.9777 17.3109 20.9293 17.2188 20.8573 17.147C20.7853 17.0752 20.6931 17.027 20.593 17.009L20.503 17.001H18V14.501L17.992 14.411C17.9739 14.3109 17.9258 14.2187 17.8539 14.1467C17.7821 14.0747 17.69 14.0263 17.59 14.008L17.5 14ZM13.925 2.50195C14.317 2.50192 14.7023 2.60433 15.0426 2.79903C15.3829 2.99372 15.6664 3.27395 15.865 3.61195L16.679 4.99995H18.75C19.1768 4.99995 19.5994 5.08402 19.9937 5.24734C20.388 5.41067 20.7463 5.65007 21.0481 5.95186C21.3499 6.25365 21.5893 6.61192 21.7526 7.00623C21.9159 7.40054 22 7.82316 22 8.24995V12.81C21.554 12.3817 21.0492 12.019 20.501 11.733L20.5 8.24995C20.5 7.78582 20.3156 7.3407 19.9874 7.01252C19.6592 6.68433 19.2141 6.49995 18.75 6.49995H16.25C16.1193 6.50002 15.9908 6.46591 15.8773 6.40101C15.7638 6.33611 15.6692 6.24267 15.603 6.12995L14.571 4.37295C14.5048 4.26038 14.4104 4.16704 14.2971 4.10214C14.1838 4.03725 14.0556 4.00306 13.925 4.00295H10.122C10.0126 4.00304 9.90448 4.02708 9.80532 4.07338C9.70616 4.11967 9.61833 4.18711 9.548 4.27095L9.483 4.36095L8.39 6.14095C8.32298 6.25027 8.22904 6.34059 8.11717 6.40326C8.0053 6.46594 7.87923 6.49888 7.751 6.49895H5.251C5.02102 6.49882 4.79327 6.54402 4.58077 6.63197C4.36827 6.71992 4.17518 6.84889 4.01256 7.01152C3.84994 7.17414 3.72097 7.36722 3.63302 7.57972C3.54507 7.79222 3.49987 8.01997 3.5 8.24995V17.75C3.5 18.716 4.284 19.5 5.25 19.5H11.313C11.486 20.033 11.725 20.537 12.022 21H5.25C4.38805 21 3.5614 20.6575 2.9519 20.048C2.34241 19.4386 2 18.6119 2 17.75V8.24995C2 7.388 2.34241 6.56135 2.9519 5.95186C3.5614 5.34236 4.38805 4.99995 5.25 4.99995H7.33L8.205 3.57595C8.40619 3.24817 8.68804 2.97743 9.02364 2.78959C9.35925 2.60174 9.7374 2.50305 10.122 2.50295H13.925V2.50195ZM12 7.99995C12.9514 7.99989 13.8783 8.3012 14.6477 8.86066C15.4172 9.42011 15.9897 10.2089 16.283 11.114C15.783 11.209 15.303 11.361 14.85 11.563C14.6284 10.8839 14.1717 10.3063 13.5621 9.93396C12.9525 9.56167 12.23 9.41919 11.5247 9.53216C10.8194 9.64513 10.1776 10.0061 9.71472 10.5502C9.25189 11.0943 8.99844 11.7857 9 12.5C9 13.93 10 15.125 11.338 15.427C11.1779 15.9026 11.0738 16.3952 11.028 16.895C9.94588 16.6547 8.99048 16.0236 8.34486 15.1225C7.69923 14.2215 7.4088 13.1139 7.52921 12.012C7.64962 10.9101 8.17241 9.89139 8.99739 9.15105C9.82238 8.41071 10.8915 8.00083 12 7.99995Z" fill="#676565"/>
</svg>
