<svg width="36" height="36" viewBox="0 0 36 36" fill="none" xmlns="http://www.w3.org/2000/svg">
<path d="M20.12 34H5.9C5.52348 34.012 5.14838 33.9483 4.797 33.8125C4.44562 33.6767 4.12513 33.4716 3.85459 33.2095C3.58405 32.9473 3.36898 32.6334 3.22217 32.2865C3.07536 31.9396 2.99981 31.5667 3 31.19V4.85997C3.02866 4.09245 3.36062 3.36765 3.92304 2.84459C4.48547 2.32153 5.23242 2.04295 6 2.06997H20.22C20.5882 2.06173 20.9542 2.12833 21.2959 2.26575C21.6375 2.40317 21.9478 2.60854 22.2077 2.86942C22.4676 3.13029 22.6719 3.44124 22.8081 3.7834C22.9443 4.12557 23.0096 4.49182 23 4.85997V31.19C22.9988 31.5646 22.9229 31.9351 22.7768 32.2801C22.6308 32.625 22.4175 32.9374 22.1494 33.199C21.8813 33.4606 21.5637 33.6662 21.2153 33.8037C20.8668 33.9412 20.4945 34.0079 20.12 34ZM5.9 3.99997C5.78409 3.99597 5.66854 4.01518 5.56016 4.05648C5.45178 4.09777 5.35276 4.16033 5.2689 4.24045C5.18505 4.32058 5.11806 4.41666 5.07188 4.52306C5.0257 4.62945 5.00126 4.744 5 4.85997V31.19C5 31.4207 5.09166 31.642 5.25482 31.8052C5.41797 31.9683 5.63926 32.06 5.87 32.06H20.12C20.3594 32.0632 20.5909 31.975 20.7675 31.8133C20.944 31.6516 21.0522 31.4287 21.07 31.19V4.85997C21.0498 4.62305 20.9405 4.40259 20.7643 4.24301C20.588 4.08343 20.3578 3.99658 20.12 3.99997H5.9Z" fill="#E8CC5A"/>
<path d="M29.5298 34C29.0677 34.004 28.6093 33.9164 28.1812 33.7422C27.7531 33.5681 27.3637 33.3109 27.0355 32.9855C26.7073 32.6601 26.4469 32.273 26.2691 31.8464C26.0913 31.4198 25.9998 30.9622 25.9998 30.5V23C25.9998 22.4696 25.7891 21.9609 25.414 21.5858C25.039 21.2107 24.5303 21 23.9998 21H22.5698C22.3046 21 22.0503 20.8946 21.8627 20.7071C21.6752 20.5196 21.5698 20.2652 21.5698 20C21.5698 19.7348 21.6752 19.4804 21.8627 19.2929C22.0503 19.1054 22.3046 19 22.5698 19H23.9998C25.0607 19 26.0781 19.4214 26.8283 20.1716C27.5784 20.9217 27.9998 21.9391 27.9998 23V30.5C27.9998 30.8978 28.1579 31.2794 28.4392 31.5607C28.7205 31.842 29.102 32 29.4998 32C29.8976 32 30.2792 31.842 30.5605 31.5607C30.8418 31.2794 30.9998 30.8978 30.9998 30.5V17.3L27.8698 10.3C27.6828 9.90992 27.3891 9.58079 27.0228 9.35072C26.6564 9.12064 26.2324 8.99905 25.7998 9H25.0698C24.8046 9 24.5503 8.89464 24.3627 8.70711C24.1752 8.51957 24.0698 8.26522 24.0698 8C24.0698 7.73478 24.1752 7.48043 24.3627 7.29289C24.5503 7.10536 24.8046 7 25.0698 7H25.7998C26.6313 6.99957 27.4451 7.24022 28.1426 7.69281C28.8401 8.14539 29.3914 8.7905 29.7298 9.55L32.9398 16.71C32.9985 16.8388 33.0292 16.9785 33.0298 17.12V30.5C33.0298 31.4283 32.6611 32.3185 32.0047 32.9749C31.3483 33.6313 30.4581 34 29.5298 34Z" fill="#E8CC5A"/>
<path d="M18 9H8C7.73478 9 7.48043 8.89464 7.29289 8.70711C7.10536 8.51957 7 8.26522 7 8C7 7.73478 7.10536 7.48043 7.29289 7.29289C7.48043 7.10536 7.73478 7 8 7H18C18.2652 7 18.5196 7.10536 18.7071 7.29289C18.8946 7.48043 19 7.73478 19 8C19 8.26522 18.8946 8.51957 18.7071 8.70711C18.5196 8.89464 18.2652 9 18 9Z" fill="#E8CC5A"/>
<path d="M18 13H8C7.73478 13 7.48043 12.8946 7.29289 12.7071C7.10536 12.5196 7 12.2652 7 12C7 11.7348 7.10536 11.4804 7.29289 11.2929C7.48043 11.1054 7.73478 11 8 11H18C18.2652 11 18.5196 11.1054 18.7071 11.2929C18.8946 11.4804 19 11.7348 19 12C19 12.2652 18.8946 12.5196 18.7071 12.7071C18.5196 12.8946 18.2652 13 18 13Z" fill="#E8CC5A"/>
<path d="M25 12.08C24.7348 12.08 24.4804 11.9747 24.2929 11.7871C24.1054 11.5996 24 11.3452 24 11.08V5.08002C24 4.8148 24.1054 4.56045 24.2929 4.37291C24.4804 4.18537 24.7348 4.08002 25 4.08002C25.2652 4.08002 25.5196 4.18537 25.7071 4.37291C25.8946 4.56045 26 4.8148 26 5.08002V11.08C26 11.3452 25.8946 11.5996 25.7071 11.7871C25.5196 11.9747 25.2652 12.08 25 12.08Z" fill="#E8CC5A"/>
</svg>
