<svg width="36" height="36" viewBox="0 0 36 36" fill="none" xmlns="http://www.w3.org/2000/svg">
<path d="M20.12 34H5.9C5.52348 34.012 5.14838 33.9483 4.797 33.8125C4.44562 33.6767 4.12513 33.4716 3.85459 33.2095C3.58405 32.9473 3.36898 32.6334 3.22217 32.2865C3.07536 31.9396 2.99981 31.5667 3 31.19V4.85997C3.02866 4.09245 3.36062 3.36765 3.92304 2.84459C4.48547 2.32153 5.23242 2.04295 6 2.06997H20.22C20.5882 2.06173 20.9542 2.12833 21.2959 2.26575C21.6375 2.40317 21.9478 2.60854 22.2077 2.86942C22.4676 3.13029 22.6719 3.44124 22.8081 3.7834C22.9443 4.12557 23.0096 4.49182 23 4.85997V31.19C22.9988 31.5646 22.9229 31.9351 22.7768 32.2801C22.6308 32.625 22.4175 32.9374 22.1494 33.199C21.8813 33.4606 21.5637 33.6662 21.2153 33.8037C20.8668 33.9412 20.4945 34.0079 20.12 34ZM5.9 3.99997C5.78409 3.99597 5.66854 4.01518 5.56016 4.05648C5.45178 4.09777 5.35276 4.16033 5.2689 4.24045C5.18505 4.32058 5.11806 4.41666 5.07188 4.52306C5.0257 4.62945 5.00126 4.744 5 4.85997V31.19C5 31.4207 5.09166 31.642 5.25482 31.8052C5.41797 31.9683 5.63926 32.06 5.87 32.06H20.12C20.3594 32.0632 20.5909 31.975 20.7675 31.8133C20.944 31.6516 21.0522 31.4287 21.07 31.19V4.85997C21.0498 4.62305 20.9405 4.40259 20.7643 4.24301C20.588 4.08343 20.3578 3.99658 20.12 3.99997H5.9Z" fill="#676565"/>
<path d="M29.5301 34C29.0679 34.004 28.6096 33.9164 28.1815 33.7422C27.7534 33.5681 27.364 33.3109 27.0358 32.9855C26.7076 32.6601 26.4471 32.273 26.2693 31.8464C26.0916 31.4198 26.0001 30.9622 26.0001 30.5V23C26.0001 22.4696 25.7894 21.9609 25.4143 21.5858C25.0392 21.2107 24.5305 21 24.0001 21H22.5701C22.3049 21 22.0505 20.8946 21.863 20.7071C21.6754 20.5196 21.5701 20.2652 21.5701 20C21.5701 19.7348 21.6754 19.4804 21.863 19.2929C22.0505 19.1054 22.3049 19 22.5701 19H24.0001C25.0609 19 26.0783 19.4214 26.8285 20.1716C27.5786 20.9217 28.0001 21.9391 28.0001 23V30.5C28.0001 30.8978 28.1581 31.2794 28.4394 31.5607C28.7207 31.842 29.1022 32 29.5001 32C29.8979 32 30.2794 31.842 30.5607 31.5607C30.842 31.2794 31.0001 30.8978 31.0001 30.5V17.3L27.8701 10.3C27.6831 9.90992 27.3894 9.58079 27.023 9.35072C26.6567 9.12064 26.2327 8.99905 25.8001 9H25.0701C24.8049 9 24.5505 8.89464 24.363 8.70711C24.1754 8.51957 24.0701 8.26522 24.0701 8C24.0701 7.73478 24.1754 7.48043 24.363 7.29289C24.5505 7.10536 24.8049 7 25.0701 7H25.8001C26.6315 6.99957 27.4453 7.24022 28.1428 7.69281C28.8403 8.14539 29.3917 8.7905 29.7301 9.55L32.9401 16.71C32.9987 16.8388 33.0294 16.9785 33.0301 17.12V30.5C33.0301 31.4283 32.6613 32.3185 32.0049 32.9749C31.3486 33.6313 30.4583 34 29.5301 34Z" fill="#676565"/>
<path d="M18 9H8C7.73478 9 7.48043 8.89464 7.29289 8.70711C7.10536 8.51957 7 8.26522 7 8C7 7.73478 7.10536 7.48043 7.29289 7.29289C7.48043 7.10536 7.73478 7 8 7H18C18.2652 7 18.5196 7.10536 18.7071 7.29289C18.8946 7.48043 19 7.73478 19 8C19 8.26522 18.8946 8.51957 18.7071 8.70711C18.5196 8.89464 18.2652 9 18 9Z" fill="#676565"/>
<path d="M18 13H8C7.73478 13 7.48043 12.8946 7.29289 12.7071C7.10536 12.5196 7 12.2652 7 12C7 11.7348 7.10536 11.4804 7.29289 11.2929C7.48043 11.1054 7.73478 11 8 11H18C18.2652 11 18.5196 11.1054 18.7071 11.2929C18.8946 11.4804 19 11.7348 19 12C19 12.2652 18.8946 12.5196 18.7071 12.7071C18.5196 12.8946 18.2652 13 18 13Z" fill="#676565"/>
<path d="M25 12.08C24.7348 12.08 24.4804 11.9747 24.2929 11.7871C24.1054 11.5996 24 11.3452 24 11.08V5.08002C24 4.8148 24.1054 4.56045 24.2929 4.37291C24.4804 4.18537 24.7348 4.08002 25 4.08002C25.2652 4.08002 25.5196 4.18537 25.7071 4.37291C25.8946 4.56045 26 4.8148 26 5.08002V11.08C26 11.3452 25.8946 11.5996 25.7071 11.7871C25.5196 11.9747 25.2652 12.08 25 12.08Z" fill="#676565"/>
</svg>
