<svg width="37" height="37" viewBox="0 0 37 37" fill="none" xmlns="http://www.w3.org/2000/svg">
<path d="M33.5312 28.9062H31.2188V26.5938H32.375V21.9688H27.75V23.125H25.4375V20.8125C25.4375 20.5058 25.5593 20.2117 25.7762 19.9949C25.993 19.7781 26.2871 19.6562 26.5938 19.6562H33.5312C33.8379 19.6562 34.132 19.7781 34.3488 19.9949C34.5657 20.2117 34.6875 20.5058 34.6875 20.8125V27.75C34.6875 28.0567 34.5657 28.3508 34.3488 28.5676C34.132 28.7844 33.8379 28.9062 33.5312 28.9062Z" fill="#E8CC5A"/>
<path d="M27.75 34.6875H20.8125C20.5058 34.6875 20.2117 34.5657 19.9949 34.3488C19.7781 34.132 19.6562 33.8379 19.6562 33.5312V26.5938C19.6562 26.2871 19.7781 25.993 19.9949 25.7762C20.2117 25.5593 20.5058 25.4375 20.8125 25.4375H27.75C28.0567 25.4375 28.3508 25.5593 28.5676 25.7762C28.7844 25.993 28.9062 26.2871 28.9062 26.5938V33.5312C28.9062 33.8379 28.7844 34.132 28.5676 34.3488C28.3508 34.5657 28.0567 34.6875 27.75 34.6875ZM21.9688 32.375H26.5938V27.75H21.9688V32.375Z" fill="#E8CC5A"/>
<path d="M17.3437 22.9608C16.5083 22.7431 15.7506 22.2955 15.1568 21.6688C14.5629 21.0421 14.1567 20.2614 13.9842 19.4155C13.8118 18.5695 13.88 17.6921 14.1811 16.883C14.4822 16.0738 15.0041 15.3653 15.6877 14.8379C16.3712 14.3105 17.189 13.9853 18.048 13.8992C18.9071 13.8132 19.7731 13.9698 20.5476 14.3512C21.3222 14.7325 21.9743 15.3235 22.4299 16.0569C22.8855 16.7902 23.1263 17.6367 23.125 18.5H25.4375C25.4388 17.177 25.0619 15.8813 24.351 14.7655C23.6402 13.6497 22.6251 12.7604 21.4256 12.2025C20.226 11.6446 18.8919 11.4413 17.5806 11.6167C16.2693 11.792 15.0354 12.3386 14.0245 13.1921C13.0137 14.0456 12.2679 15.1703 11.8752 16.4336C11.4825 17.697 11.4592 19.0463 11.8081 20.3224C12.1569 21.5986 12.8634 22.7484 13.8442 23.6362C14.825 24.5241 16.0393 25.113 17.3437 25.3335V22.9608Z" fill="#E8CC5A"/>
<path d="M33.404 15.6672L30.733 18.0144L29.0912 16.3725L31.8777 13.9213L29.149 9.20375L25.1715 10.545C24.2398 9.76946 23.1845 9.15583 22.0496 8.72969L21.2287 4.625H15.7712L14.9502 8.72969C13.8062 9.14392 12.7452 9.75863 11.8168 10.545L7.85086 9.20375L5.12211 13.9213L8.26711 16.6847C8.0532 17.8816 8.0532 19.1069 8.26711 20.3037L5.12211 23.0787L7.85086 27.7963L11.8284 26.455C12.7601 27.2305 13.8154 27.8442 14.9502 28.2703L15.7712 32.375H17.3437V34.6875H15.7712C15.2364 34.6871 14.7184 34.5013 14.3052 34.1619C13.892 33.8225 13.6092 33.3504 13.5049 32.8259L12.9152 29.9122C12.3918 29.6569 11.8858 29.3672 11.4005 29.045L8.59086 29.9931C8.35194 30.0709 8.10212 30.1099 7.85086 30.1088C7.4447 30.1115 7.04516 30.0058 6.6935 29.8026C6.34185 29.5993 6.05085 29.3059 5.85055 28.9525L3.1218 24.235C2.85192 23.7714 2.75163 23.2283 2.83811 22.6988C2.9246 22.1694 3.19247 21.6865 3.59586 21.3328L5.81586 19.3903C5.79274 19.0897 5.78117 18.8006 5.78117 18.5C5.78117 18.1994 5.8043 17.9103 5.82742 17.6213L3.59586 15.6672C3.19247 15.3135 2.9246 14.8306 2.83811 14.3012C2.75163 13.7717 2.85192 13.2286 3.1218 12.765L5.85055 8.0475C6.05085 7.69415 6.34185 7.40068 6.6935 7.19742C7.04516 6.99415 7.4447 6.88845 7.85086 6.89125C8.10212 6.89009 8.35194 6.92913 8.59086 7.00688L11.389 7.955C11.8782 7.63276 12.388 7.34307 12.9152 7.08781L13.5049 4.17406C13.6092 3.6496 13.892 3.17748 14.3052 2.83807C14.7184 2.49866 15.2364 2.31293 15.7712 2.3125H21.2287C21.7634 2.31293 22.2815 2.49866 22.6947 2.83807C23.1078 3.17748 23.3907 3.6496 23.4949 4.17406L24.0846 7.08781C24.6081 7.34313 25.1141 7.63283 25.5993 7.955L28.409 7.00688C28.6479 6.92913 28.8977 6.89009 29.149 6.89125C29.5551 6.88845 29.9547 6.99415 30.3063 7.19742C30.658 7.40068 30.949 7.69415 31.1493 8.0475L33.878 12.765C34.1479 13.2286 34.2482 13.7717 34.1617 14.3012C34.0753 14.8306 33.8074 15.3135 33.404 15.6672Z" fill="#E8CC5A"/>
</svg>
