<svg width="37" height="37" viewBox="0 0 37 37" fill="none" xmlns="http://www.w3.org/2000/svg">
<path d="M33.5312 28.9062H31.2188V26.5938H32.375V21.9688H27.75V23.125H25.4375V20.8125C25.4375 20.5058 25.5593 20.2117 25.7762 19.9949C25.993 19.7781 26.2871 19.6562 26.5938 19.6562H33.5312C33.8379 19.6562 34.132 19.7781 34.3488 19.9949C34.5657 20.2117 34.6875 20.5058 34.6875 20.8125V27.75C34.6875 28.0567 34.5657 28.3508 34.3488 28.5676C34.132 28.7844 33.8379 28.9062 33.5312 28.9062Z" fill="#676565"/>
<path d="M27.75 34.6875H20.8125C20.5058 34.6875 20.2117 34.5657 19.9949 34.3488C19.7781 34.132 19.6562 33.8379 19.6562 33.5312V26.5938C19.6562 26.2871 19.7781 25.993 19.9949 25.7762C20.2117 25.5593 20.5058 25.4375 20.8125 25.4375H27.75C28.0567 25.4375 28.3508 25.5593 28.5676 25.7762C28.7844 25.993 28.9062 26.2871 28.9062 26.5938V33.5312C28.9062 33.8379 28.7844 34.132 28.5676 34.3488C28.3508 34.5657 28.0567 34.6875 27.75 34.6875ZM21.9688 32.375H26.5938V27.75H21.9688V32.375Z" fill="#676565"/>
<path d="M17.3437 22.9608C16.5083 22.7431 15.7506 22.2954 15.1568 21.6687C14.5629 21.0421 14.1567 20.2614 13.9842 19.4154C13.8118 18.5695 13.88 17.6921 14.1811 16.8829C14.4822 16.0738 15.0041 15.3653 15.6877 14.8379C16.3712 14.3104 17.189 13.9852 18.048 13.8992C18.9071 13.8132 19.7731 13.9697 20.5476 14.3511C21.3222 14.7325 21.9743 15.3235 22.4299 16.0568C22.8855 16.7902 23.1263 17.6366 23.125 18.5H25.4375C25.4388 17.177 25.0619 15.8812 24.351 14.7655C23.6402 13.6497 22.6251 12.7604 21.4256 12.2025C20.226 11.6446 18.8919 11.4413 17.5806 11.6167C16.2693 11.792 15.0354 12.3386 14.0245 13.1921C13.0137 14.0456 12.2679 15.1703 11.8752 16.4336C11.4825 17.697 11.4592 19.0463 11.8081 20.3224C12.1569 21.5986 12.8634 22.7483 13.8442 23.6362C14.825 24.524 16.0393 25.1129 17.3437 25.3334V22.9608Z" fill="#676565"/>
<path d="M33.4042 15.6672L30.7333 18.0144L29.0914 16.3725L31.878 13.9213L29.1492 9.20375L25.1717 10.545C24.24 9.76946 23.1847 9.15583 22.0499 8.72969L21.2289 4.625H15.7714L14.9505 8.72969C13.8065 9.14392 12.7454 9.75863 11.817 10.545L7.85111 9.20375L5.12236 13.9213L8.26736 16.6847C8.05344 17.8816 8.05344 19.1069 8.26736 20.3037L5.12236 23.0787L7.85111 27.7963L11.8286 26.455C12.7603 27.2305 13.8156 27.8442 14.9505 28.2703L15.7714 32.375H17.3439V34.6875H15.7714C15.2367 34.6871 14.7186 34.5013 14.3054 34.1619C13.8922 33.8225 13.6094 33.3504 13.5052 32.8259L12.9155 29.9122C12.392 29.6569 11.886 29.3672 11.4008 29.045L8.59111 29.9931C8.35218 30.0709 8.10236 30.1099 7.85111 30.1088C7.44494 30.1115 7.0454 30.0058 6.69375 29.8026C6.3421 29.5993 6.05109 29.3059 5.85079 28.9525L3.12204 24.235C2.85216 23.7714 2.75187 23.2283 2.83836 22.6988C2.92484 22.1694 3.19272 21.6865 3.59611 21.3328L5.81611 19.3903C5.79298 19.0897 5.78142 18.8006 5.78142 18.5C5.78142 18.1994 5.80454 17.9103 5.82767 17.6213L3.59611 15.6672C3.19272 15.3135 2.92484 14.8306 2.83836 14.3012C2.75187 13.7717 2.85216 13.2286 3.12204 12.765L5.85079 8.0475C6.05109 7.69415 6.3421 7.40068 6.69375 7.19742C7.0454 6.99415 7.44494 6.88845 7.85111 6.89125C8.10236 6.89009 8.35218 6.92913 8.59111 7.00688L11.3892 7.955C11.8784 7.63276 12.3883 7.34307 12.9155 7.08781L13.5052 4.17406C13.6094 3.6496 13.8922 3.17748 14.3054 2.83807C14.7186 2.49866 15.2367 2.31293 15.7714 2.3125H21.2289C21.7636 2.31293 22.2817 2.49866 22.6949 2.83807C23.1081 3.17748 23.3909 3.6496 23.4952 4.17406L24.0849 7.08781C24.6083 7.34313 25.1143 7.63283 25.5995 7.955L28.4092 7.00688C28.6482 6.92913 28.898 6.89009 29.1492 6.89125C29.5554 6.88845 29.9549 6.99415 30.3066 7.19742C30.6582 7.40068 30.9492 7.69415 31.1495 8.0475L33.8783 12.765C34.1482 13.2286 34.2485 13.7717 34.162 14.3012C34.0755 14.8306 33.8076 15.3135 33.4042 15.6672Z" fill="#676565"/>
</svg>
