<svg width="37" height="38" viewBox="0 0 37 38" fill="none" xmlns="http://www.w3.org/2000/svg">
<path d="M6.07031 3.26562L5.41934 3.89619L3.79366 5.56581L3.17969 6.23438L3.64912 7.01338L6.07031 11.1696L6.39522 11.7634H9.79344L14.4184 16.4766C10.286 20.7397 5.02853 26.1571 4.84353 26.3482C3.03169 28.2079 3.02822 31.255 4.87822 33.0279C6.68544 34.8591 9.63041 34.9066 11.3474 33.0279L11.3821 32.9899L18.5 25.6429L25.6549 33.0268L25.7624 33.1016C27.5777 34.8591 30.4649 34.8828 32.1588 33.0268V32.9911H32.1935C33.9648 31.1303 33.9833 28.1058 32.1588 26.3471L32.1218 26.3114L26.0885 20.1507C30.1481 19.7612 33.3278 16.2402 33.3867 11.9866H33.4226C33.4272 11.9629 33.4226 11.9356 33.4226 11.9118V11.875C33.5359 10.5022 33.2468 9.18888 32.5554 8.05244L31.7622 6.7925L26.3775 12.3215L24.7518 10.5771L30.244 4.93644L28.6542 4.26906C27.64 3.81085 26.5454 3.57041 25.4375 3.5625C20.9929 3.5625 17.3438 7.31025 17.3438 11.875C17.3438 12.3714 17.4478 12.8024 17.5241 13.2478C17.0188 13.7679 16.6396 14.1942 16.043 14.8069L11.4538 10.0938V6.56806L10.8757 6.23438L6.82881 3.74775L6.07031 3.26562ZM25.4375 5.9375C25.5994 5.9375 25.7127 6.03487 25.8711 6.04912L21.4993 10.5391L22.2937 11.3929L25.5462 14.8438L26.3405 15.6976L30.9297 10.9844C30.9528 11.2575 31.1424 11.457 31.1101 11.7634V11.875C31.1101 15.1454 28.5131 17.8125 25.3288 17.8125C24.9045 17.8125 24.3899 17.7104 23.8118 17.5893L23.1967 17.4788L22.7631 17.9241L9.72059 31.3571H9.68359V31.3951C8.86266 32.3178 7.42544 32.3404 6.46806 31.3571V31.3203H6.43106C5.53266 30.4772 5.51069 29.0011 6.46806 28.0179C6.90628 27.5666 15.392 18.7767 19.5476 14.5101L20.0182 14.0279L19.8366 13.3594C19.7269 12.8723 19.6664 12.3749 19.6562 11.875C19.6562 8.60463 22.2532 5.9375 25.4375 5.9375ZM6.43106 6.23438L9.14131 7.942V9.1295L8.88925 9.38838H7.733L6.07031 6.60606L6.43106 6.23438ZM23.3412 20.6696L30.5331 28.0179V28.0547H30.5678C31.4673 28.8978 31.4893 30.3739 30.5331 31.3571H30.4961V31.3951C29.6752 32.3178 28.2379 32.3404 27.2806 31.3571L20.1257 23.9732L23.3412 20.6696Z" fill="#E8CC5A"/>
</svg>
