<svg width="33" height="30" viewBox="0 0 33 30" fill="none" xmlns="http://www.w3.org/2000/svg">
<path d="M28.5978 13.5515C29.2355 14.318 29.2355 15.3527 28.5978 16.118C26.5892 18.5274 21.7702 23.4883 16.144 23.4883C10.5177 23.4883 5.69871 18.5274 3.6901 16.118C3.37985 15.751 3.21143 15.2995 3.21143 14.8347C3.21143 14.37 3.37985 13.9185 3.6901 13.5515C5.69871 11.1421 10.5177 6.18115 16.144 6.18115C21.7702 6.18115 26.5892 11.1421 28.5978 13.5515V13.5515Z" stroke="#E8CC5A" stroke-width="2" stroke-linecap="round" stroke-linejoin="round"/>
<path d="M16.1439 18.5433C18.373 18.5433 20.18 16.8829 20.18 14.8347C20.18 12.7864 18.373 11.126 16.1439 11.126C13.9149 11.126 12.1079 12.7864 12.1079 14.8347C12.1079 16.8829 13.9149 18.5433 16.1439 18.5433Z" stroke="#E8CC5A" stroke-width="2" stroke-linecap="round" stroke-linejoin="round"/>
</svg>
