<svg width="41" height="38" viewBox="0 0 41 38" fill="none" xmlns="http://www.w3.org/2000/svg">
<path d="M18.7915 20.5834H22.2082V23.7501H18.7915V20.5834ZM18.7915 7.91675H22.2082V17.4167H18.7915V7.91675ZM29.0415 7.53675C32.219 9.80092 34.1665 13.6326 34.1665 17.4167C34.1643 19.6815 33.5071 21.9042 32.2632 23.8535C31.0193 25.8028 29.2343 27.4074 27.094 28.5001H13.9057C11.7654 27.4074 9.9804 25.8028 8.73651 23.8535C7.49262 21.9042 6.83536 19.6815 6.83317 17.4167C6.83317 13.6326 8.69525 9.76925 11.9582 7.53675V3.16675H8.5415V6.11175C5.38109 8.99341 3.4165 12.9834 3.4165 17.4167C3.4165 21.8501 5.38109 25.8401 8.5415 28.7217V34.8334H11.9582V31.6667H15.3748V34.8334H18.7915V31.6667H22.2082V34.8334H25.6248V31.6667H29.0415V34.8334H32.4582V28.7217C35.6186 25.8401 37.5832 21.8501 37.5832 17.4167C37.5832 12.9834 35.6186 8.99341 32.4582 6.11175V3.16675H29.0415V7.53675Z" fill="#E8CC5A"/>
</svg>
