<svg width="41" height="38" viewBox="0 0 41 38" fill="none" xmlns="http://www.w3.org/2000/svg">
<path d="M18.7917 20.5834H22.2084V23.75H18.7917V20.5834ZM18.7917 7.91669H22.2084V17.4167H18.7917V7.91669ZM29.0417 7.53669C32.2192 9.80085 34.1667 13.6325 34.1667 17.4167C34.1646 19.6814 33.5073 21.9041 32.2634 23.8534C31.0195 25.8027 29.2345 27.4073 27.0942 28.5H13.9059C11.7657 27.4073 9.98065 25.8027 8.73676 23.8534C7.49287 21.9041 6.8356 19.6814 6.83341 17.4167C6.83341 13.6325 8.6955 9.76919 11.9584 7.53669V3.16669H8.54175V6.11169C5.38133 8.99335 3.41675 12.9834 3.41675 17.4167C3.41675 21.85 5.38133 25.84 8.54175 28.7217V34.8334H11.9584V31.6667H15.3751V34.8334H18.7917V31.6667H22.2084V34.8334H25.6251V31.6667H29.0417V34.8334H32.4584V28.7217C35.6188 25.84 37.5834 21.85 37.5834 17.4167C37.5834 12.9834 35.6188 8.99335 32.4584 6.11169V3.16669H29.0417V7.53669Z" fill="#676565"/>
</svg>
