<svg width="69" height="45" viewBox="0 0 69 45" fill="none" xmlns="http://www.w3.org/2000/svg">
<rect width="69" height="45" fill="white"/>
<g clip-path="url(#clip0)">
<path fill-rule="evenodd" clip-rule="evenodd" d="M44.7677 8.58747C46.933 6.48746 50.8426 10.2198 54.0818 14.4833C57.3209 18.7468 59.5294 20.7727 56.7003 23.5164C53.8713 26.2602 47.8327 27.3511 44.7677 23.5164C41.7026 19.6817 42.6024 10.6874 44.7677 8.58747V8.58747Z" fill="url(#paint0_linear)"/>
<path fill-rule="evenodd" clip-rule="evenodd" d="M33.534 14.1974C31.6734 12.5288 34.9802 9.51583 38.7576 7.01965C42.535 4.52344 44.33 2.82147 46.7609 5.00168C49.1918 7.18186 50.1584 11.8354 46.7609 14.1975C43.3634 16.5595 35.3946 15.8661 33.534 14.1975V14.1974Z" fill="#F4F4FC"/>
<path d="M45.3386 5.50984L46.0591 4.83722L46.7796 5.50984L47.5001 4.83722L48.2206 5.50984L48.9411 4.83722" stroke="#D3629D" stroke-width="0.2"/>
<path d="M45.3386 6.11257L46.0591 5.43994L46.7796 6.11257L47.5001 5.43994L48.2206 6.11257L48.9411 5.43994" stroke="#D3629D" stroke-width="0.2"/>
<path d="M45.3386 6.71535L46.0591 6.04272L46.7796 6.71535L47.5001 6.04272L48.2206 6.71535L48.9411 6.04272" stroke="#D3629D" stroke-width="0.2"/>
<path d="M45.3386 7.31807L46.0591 6.64545L46.7796 7.31807L47.5001 6.64545L48.2206 7.31807L48.9411 6.64545" stroke="#D3629D" stroke-width="0.2"/>
<path fill-rule="evenodd" clip-rule="evenodd" d="M56.924 25.4308C56.9525 25.4308 56.9799 25.4414 57.0001 25.4602C57.0202 25.4791 57.0316 25.5046 57.0316 25.5313C57.0316 25.5579 57.0202 25.5835 57.0001 25.6023C56.9799 25.6211 56.9525 25.6317 56.924 25.6317C56.8954 25.6317 56.8681 25.6211 56.8479 25.6023C56.8277 25.5835 56.8164 25.5579 56.8164 25.5313C56.8164 25.5046 56.8277 25.4791 56.8479 25.4602C56.8681 25.4414 56.8954 25.4308 56.924 25.4308ZM56.1349 25.4308C56.1634 25.4308 56.1908 25.4414 56.211 25.4602C56.2311 25.4791 56.2425 25.5046 56.2425 25.5313C56.2425 25.5579 56.2311 25.5835 56.211 25.6023C56.1908 25.6211 56.1634 25.6317 56.1349 25.6317C56.1063 25.6317 56.079 25.6211 56.0588 25.6023C56.0386 25.5835 56.0273 25.5579 56.0273 25.5313C56.0273 25.5046 56.0386 25.4791 56.0588 25.4602C56.079 25.4414 56.1063 25.4308 56.1349 25.4308ZM55.3458 25.4308C55.3743 25.4308 55.4017 25.4414 55.4219 25.4602C55.442 25.4791 55.4534 25.5046 55.4534 25.5313C55.4534 25.5579 55.442 25.5835 55.4219 25.6023C55.4017 25.6211 55.3743 25.6317 55.3458 25.6317C55.3172 25.6317 55.2899 25.6211 55.2697 25.6023C55.2495 25.5835 55.2382 25.5579 55.2382 25.5313C55.2382 25.5046 55.2495 25.4791 55.2697 25.4602C55.2899 25.4414 55.3172 25.4308 55.3458 25.4308ZM54.5567 25.4308C54.5852 25.4308 54.6126 25.4414 54.6328 25.4602C54.653 25.4791 54.6643 25.5046 54.6643 25.5313C54.6643 25.5579 54.653 25.5835 54.6328 25.6023C54.6126 25.6211 54.5852 25.6317 54.5567 25.6317C54.5281 25.6317 54.5008 25.6211 54.4806 25.6023C54.4604 25.5835 54.4491 25.5579 54.4491 25.5313C54.4491 25.5046 54.4604 25.4791 54.4806 25.4602C54.5008 25.4414 54.5281 25.4308 54.5567 25.4308ZM53.7676 25.4308C53.7961 25.4308 53.8235 25.4414 53.8437 25.4602C53.8639 25.4791 53.8752 25.5046 53.8752 25.5313C53.8752 25.5579 53.8639 25.5835 53.8437 25.6023C53.8235 25.6211 53.7961 25.6317 53.7676 25.6317C53.7391 25.6317 53.7117 25.6211 53.6915 25.6023C53.6713 25.5835 53.66 25.5579 53.66 25.5313C53.66 25.5046 53.6713 25.4791 53.6915 25.4602C53.7117 25.4414 53.7391 25.4308 53.7676 25.4308ZM52.9785 25.4308C53.007 25.4308 53.0344 25.4414 53.0546 25.4602C53.0748 25.4791 53.0861 25.5046 53.0861 25.5313C53.0861 25.5579 53.0748 25.5835 53.0546 25.6023C53.0344 25.6211 53.007 25.6317 52.9785 25.6317C52.95 25.6317 52.9226 25.6211 52.9024 25.6023C52.8822 25.5835 52.8709 25.5579 52.8709 25.5313C52.8709 25.5046 52.8822 25.4791 52.9024 25.4602C52.9226 25.4414 52.95 25.4308 52.9785 25.4308ZM52.1894 25.4308C52.2179 25.4308 52.2453 25.4414 52.2655 25.4602C52.2857 25.4791 52.297 25.5046 52.297 25.5313C52.297 25.5579 52.2857 25.5835 52.2655 25.6023C52.2453 25.6211 52.2179 25.6317 52.1894 25.6317C52.1609 25.6317 52.1335 25.6211 52.1133 25.6023C52.0931 25.5835 52.0818 25.5579 52.0818 25.5313C52.0818 25.5046 52.0931 25.4791 52.1133 25.4602C52.1335 25.4414 52.1609 25.4308 52.1894 25.4308ZM51.4003 25.4308C51.4288 25.4308 51.4562 25.4414 51.4764 25.4602C51.4966 25.4791 51.5079 25.5046 51.5079 25.5313C51.5079 25.5579 51.4966 25.5835 51.4764 25.6023C51.4562 25.6211 51.4288 25.6317 51.4003 25.6317C51.3718 25.6317 51.3444 25.6211 51.3242 25.6023C51.304 25.5835 51.2927 25.5579 51.2927 25.5313C51.2927 25.5046 51.304 25.4791 51.3242 25.4602C51.3444 25.4414 51.3718 25.4308 51.4003 25.4308ZM50.6112 25.4308C50.6397 25.4308 50.6671 25.4414 50.6873 25.4602C50.7075 25.4791 50.7188 25.5046 50.7188 25.5313C50.7188 25.5579 50.7075 25.5835 50.6873 25.6023C50.6671 25.6211 50.6397 25.6317 50.6112 25.6317C50.5827 25.6317 50.5553 25.6211 50.5351 25.6023C50.5149 25.5835 50.5036 25.5579 50.5036 25.5313C50.5036 25.5046 50.5149 25.4791 50.5351 25.4602C50.5553 25.4414 50.5827 25.4308 50.6112 25.4308ZM50.6112 24.6941C50.6397 24.6941 50.6671 24.7047 50.6873 24.7236C50.7075 24.7424 50.7188 24.7679 50.7188 24.7946C50.7188 24.8212 50.7075 24.8468 50.6873 24.8656C50.6671 24.8845 50.6397 24.895 50.6112 24.895C50.5827 24.895 50.5553 24.8845 50.5351 24.8656C50.5149 24.8468 50.5036 24.8212 50.5036 24.7946C50.5036 24.7679 50.5149 24.7424 50.5351 24.7236C50.5553 24.7047 50.5827 24.6941 50.6112 24.6941ZM56.924 24.6941C56.9525 24.6941 56.9799 24.7047 57.0001 24.7236C57.0202 24.7424 57.0316 24.7679 57.0316 24.7946C57.0316 24.8212 57.0202 24.8468 57.0001 24.8656C56.9799 24.8845 56.9525 24.895 56.924 24.895C56.8954 24.895 56.8681 24.8845 56.8479 24.8656C56.8277 24.8468 56.8164 24.8212 56.8164 24.7946C56.8164 24.7679 56.8277 24.7424 56.8479 24.7236C56.8681 24.7047 56.8954 24.6941 56.924 24.6941ZM56.1349 24.6941C56.1634 24.6941 56.1908 24.7047 56.211 24.7236C56.2311 24.7424 56.2425 24.7679 56.2425 24.7946C56.2425 24.8212 56.2311 24.8468 56.211 24.8656C56.1908 24.8845 56.1634 24.895 56.1349 24.895C56.1063 24.895 56.079 24.8845 56.0588 24.8656C56.0386 24.8468 56.0273 24.8212 56.0273 24.7946C56.0273 24.7679 56.0386 24.7424 56.0588 24.7236C56.079 24.7047 56.1063 24.6941 56.1349 24.6941ZM55.3458 24.6941C55.3743 24.6941 55.4017 24.7047 55.4219 24.7236C55.442 24.7424 55.4534 24.7679 55.4534 24.7946C55.4534 24.8212 55.442 24.8468 55.4219 24.8656C55.4017 24.8845 55.3743 24.895 55.3458 24.895C55.3172 24.895 55.2899 24.8845 55.2697 24.8656C55.2495 24.8468 55.2382 24.8212 55.2382 24.7946C55.2382 24.7679 55.2495 24.7424 55.2697 24.7236C55.2899 24.7047 55.3172 24.6941 55.3458 24.6941ZM54.5567 24.6941C54.5852 24.6941 54.6126 24.7047 54.6328 24.7236C54.653 24.7424 54.6643 24.7679 54.6643 24.7946C54.6643 24.8212 54.653 24.8468 54.6328 24.8656C54.6126 24.8845 54.5852 24.895 54.5567 24.895C54.5281 24.895 54.5008 24.8845 54.4806 24.8656C54.4604 24.8468 54.4491 24.8212 54.4491 24.7946C54.4491 24.7679 54.4604 24.7424 54.4806 24.7236C54.5008 24.7047 54.5281 24.6941 54.5567 24.6941ZM53.7676 24.6941C53.7961 24.6941 53.8235 24.7047 53.8437 24.7236C53.8639 24.7424 53.8752 24.7679 53.8752 24.7946C53.8752 24.8212 53.8639 24.8468 53.8437 24.8656C53.8235 24.8845 53.7961 24.895 53.7676 24.895C53.7391 24.895 53.7117 24.8845 53.6915 24.8656C53.6713 24.8468 53.66 24.8212 53.66 24.7946C53.66 24.7679 53.6713 24.7424 53.6915 24.7236C53.7117 24.7047 53.7391 24.6941 53.7676 24.6941ZM52.9785 24.6941C53.007 24.6941 53.0344 24.7047 53.0546 24.7236C53.0748 24.7424 53.0861 24.7679 53.0861 24.7946C53.0861 24.8212 53.0748 24.8468 53.0546 24.8656C53.0344 24.8845 53.007 24.895 52.9785 24.895C52.95 24.895 52.9226 24.8845 52.9024 24.8656C52.8822 24.8468 52.8709 24.8212 52.8709 24.7946C52.8709 24.7679 52.8822 24.7424 52.9024 24.7236C52.9226 24.7047 52.95 24.6941 52.9785 24.6941ZM52.1894 24.6941C52.2179 24.6941 52.2453 24.7047 52.2655 24.7236C52.2857 24.7424 52.297 24.7679 52.297 24.7946C52.297 24.8212 52.2857 24.8468 52.2655 24.8656C52.2453 24.8845 52.2179 24.895 52.1894 24.895C52.1609 24.895 52.1335 24.8845 52.1133 24.8656C52.0931 24.8468 52.0818 24.8212 52.0818 24.7946C52.0818 24.7679 52.0931 24.7424 52.1133 24.7236C52.1335 24.7047 52.1609 24.6941 52.1894 24.6941ZM51.4003 24.6941C51.4288 24.6941 51.4562 24.7047 51.4764 24.7236C51.4966 24.7424 51.5079 24.7679 51.5079 24.7946C51.5079 24.8212 51.4966 24.8468 51.4764 24.8656C51.4562 24.8845 51.4288 24.895 51.4003 24.895C51.3718 24.895 51.3444 24.8845 51.3242 24.8656C51.304 24.8468 51.2927 24.8212 51.2927 24.7946C51.2927 24.7679 51.304 24.7424 51.3242 24.7236C51.3444 24.7047 51.3718 24.6941 51.4003 24.6941ZM51.4003 23.9574C51.4288 23.9574 51.4562 23.968 51.4764 23.9869C51.4966 24.0057 51.5079 24.0313 51.5079 24.0579C51.5079 24.0845 51.4966 24.1101 51.4764 24.1289C51.4562 24.1478 51.4288 24.1584 51.4003 24.1584C51.3718 24.1584 51.3444 24.1478 51.3242 24.1289C51.304 24.1101 51.2927 24.0845 51.2927 24.0579C51.2927 24.0313 51.304 24.0057 51.3242 23.9869C51.3444 23.968 51.3718 23.9574 51.4003 23.9574ZM52.1894 23.9574C52.2179 23.9574 52.2453 23.968 52.2655 23.9869C52.2857 24.0057 52.297 24.0313 52.297 24.0579C52.297 24.0845 52.2857 24.1101 52.2655 24.1289C52.2453 24.1478 52.2179 24.1584 52.1894 24.1584C52.1609 24.1584 52.1335 24.1478 52.1133 24.1289C52.0931 24.1101 52.0818 24.0845 52.0818 24.0579C52.0818 24.0313 52.0931 24.0057 52.1133 23.9869C52.1335 23.968 52.1609 23.9574 52.1894 23.9574ZM52.9785 23.9574C53.007 23.9574 53.0344 23.968 53.0546 23.9869C53.0748 24.0057 53.0861 24.0313 53.0861 24.0579C53.0861 24.0845 53.0748 24.1101 53.0546 24.1289C53.0344 24.1478 53.007 24.1584 52.9785 24.1584C52.95 24.1584 52.9226 24.1478 52.9024 24.1289C52.8822 24.1101 52.8709 24.0845 52.8709 24.0579C52.8709 24.0313 52.8822 24.0057 52.9024 23.9869C52.9226 23.968 52.95 23.9574 52.9785 23.9574ZM53.7676 23.9574C53.7961 23.9574 53.8235 23.968 53.8437 23.9869C53.8639 24.0057 53.8752 24.0313 53.8752 24.0579C53.8752 24.0845 53.8639 24.1101 53.8437 24.1289C53.8235 24.1478 53.7961 24.1584 53.7676 24.1584C53.7391 24.1584 53.7117 24.1478 53.6915 24.1289C53.6713 24.1101 53.66 24.0845 53.66 24.0579C53.66 24.0313 53.6713 24.0057 53.6915 23.9869C53.7117 23.968 53.7391 23.9574 53.7676 23.9574ZM54.5567 23.9574C54.5852 23.9574 54.6126 23.968 54.6328 23.9869C54.653 24.0057 54.6643 24.0313 54.6643 24.0579C54.6643 24.0845 54.653 24.1101 54.6328 24.1289C54.6126 24.1478 54.5852 24.1584 54.5567 24.1584C54.5281 24.1584 54.5008 24.1478 54.4806 24.1289C54.4604 24.1101 54.4491 24.0845 54.4491 24.0579C54.4491 24.0313 54.4604 24.0057 54.4806 23.9869C54.5008 23.968 54.5281 23.9574 54.5567 23.9574ZM55.3458 23.9574C55.3743 23.9574 55.4017 23.968 55.4219 23.9869C55.442 24.0057 55.4534 24.0313 55.4534 24.0579C55.4534 24.0845 55.442 24.1101 55.4219 24.1289C55.4017 24.1478 55.3743 24.1584 55.3458 24.1584C55.3172 24.1584 55.2899 24.1478 55.2697 24.1289C55.2495 24.1101 55.2382 24.0845 55.2382 24.0579C55.2382 24.0313 55.2495 24.0057 55.2697 23.9869C55.2899 23.968 55.3172 23.9574 55.3458 23.9574ZM56.1349 23.9574C56.1634 23.9574 56.1908 23.968 56.211 23.9869C56.2311 24.0057 56.2425 24.0313 56.2425 24.0579C56.2425 24.0845 56.2311 24.1101 56.211 24.1289C56.1908 24.1478 56.1634 24.1584 56.1349 24.1584C56.1063 24.1584 56.079 24.1478 56.0588 24.1289C56.0386 24.1101 56.0273 24.0845 56.0273 24.0579C56.0273 24.0313 56.0386 24.0057 56.0588 23.9869C56.079 23.968 56.1063 23.9574 56.1349 23.9574ZM56.924 23.9574C56.9525 23.9574 56.9799 23.968 57.0001 23.9869C57.0202 24.0057 57.0316 24.0313 57.0316 24.0579C57.0316 24.0845 57.0202 24.1101 57.0001 24.1289C56.9799 24.1478 56.9525 24.1584 56.924 24.1584C56.8954 24.1584 56.8681 24.1478 56.8479 24.1289C56.8277 24.1101 56.8164 24.0845 56.8164 24.0579C56.8164 24.0313 56.8277 24.0057 56.8479 23.9869C56.8681 23.968 56.8954 23.9574 56.924 23.9574ZM50.6112 23.9574C50.6397 23.9574 50.6671 23.968 50.6873 23.9869C50.7075 24.0057 50.7188 24.0313 50.7188 24.0579C50.7188 24.0845 50.7075 24.1101 50.6873 24.1289C50.6671 24.1478 50.6397 24.1584 50.6112 24.1584C50.5827 24.1584 50.5553 24.1478 50.5351 24.1289C50.5149 24.1101 50.5036 24.0845 50.5036 24.0579C50.5036 24.0313 50.5149 24.0057 50.5351 23.9869C50.5553 23.968 50.5827 23.9574 50.6112 23.9574ZM51.4003 23.2208C51.4288 23.2208 51.4562 23.2313 51.4764 23.2502C51.4966 23.269 51.5079 23.2946 51.5079 23.3212C51.5079 23.3479 51.4966 23.3734 51.4764 23.3923C51.4562 23.4111 51.4288 23.4217 51.4003 23.4217C51.3718 23.4217 51.3444 23.4111 51.3242 23.3923C51.304 23.3734 51.2927 23.3479 51.2927 23.3212C51.2927 23.2946 51.304 23.269 51.3242 23.2502C51.3444 23.2313 51.3718 23.2208 51.4003 23.2208ZM52.1894 23.2208C52.2179 23.2208 52.2453 23.2313 52.2655 23.2502C52.2857 23.269 52.297 23.2946 52.297 23.3212C52.297 23.3479 52.2857 23.3734 52.2655 23.3923C52.2453 23.4111 52.2179 23.4217 52.1894 23.4217C52.1609 23.4217 52.1335 23.4111 52.1133 23.3923C52.0931 23.3734 52.0818 23.3479 52.0818 23.3212C52.0818 23.2946 52.0931 23.269 52.1133 23.2502C52.1335 23.2313 52.1609 23.2208 52.1894 23.2208ZM52.9785 23.2208C53.007 23.2208 53.0344 23.2313 53.0546 23.2502C53.0748 23.269 53.0861 23.2946 53.0861 23.3212C53.0861 23.3479 53.0748 23.3734 53.0546 23.3923C53.0344 23.4111 53.007 23.4217 52.9785 23.4217C52.95 23.4217 52.9226 23.4111 52.9024 23.3923C52.8822 23.3734 52.8709 23.3479 52.8709 23.3212C52.8709 23.2946 52.8822 23.269 52.9024 23.2502C52.9226 23.2313 52.95 23.2208 52.9785 23.2208ZM53.7676 23.2208C53.7961 23.2208 53.8235 23.2313 53.8437 23.2502C53.8639 23.269 53.8752 23.2946 53.8752 23.3212C53.8752 23.3479 53.8639 23.3734 53.8437 23.3923C53.8235 23.4111 53.7961 23.4217 53.7676 23.4217C53.7391 23.4217 53.7117 23.4111 53.6915 23.3923C53.6713 23.3734 53.66 23.3479 53.66 23.3212C53.66 23.2946 53.6713 23.269 53.6915 23.2502C53.7117 23.2313 53.7391 23.2208 53.7676 23.2208ZM54.5567 23.2208C54.5852 23.2208 54.6126 23.2313 54.6328 23.2502C54.653 23.269 54.6643 23.2946 54.6643 23.3212C54.6643 23.3479 54.653 23.3734 54.6328 23.3923C54.6126 23.4111 54.5852 23.4217 54.5567 23.4217C54.5281 23.4217 54.5008 23.4111 54.4806 23.3923C54.4604 23.3734 54.4491 23.3479 54.4491 23.3212C54.4491 23.2946 54.4604 23.269 54.4806 23.2502C54.5008 23.2313 54.5281 23.2208 54.5567 23.2208ZM55.3458 23.2208C55.3743 23.2208 55.4017 23.2313 55.4219 23.2502C55.442 23.269 55.4534 23.2946 55.4534 23.3212C55.4534 23.3479 55.442 23.3734 55.4219 23.3923C55.4017 23.4111 55.3743 23.4217 55.3458 23.4217C55.3172 23.4217 55.2899 23.4111 55.2697 23.3923C55.2495 23.3734 55.2382 23.3479 55.2382 23.3212C55.2382 23.2946 55.2495 23.269 55.2697 23.2502C55.2899 23.2313 55.3172 23.2208 55.3458 23.2208ZM56.1349 23.2208C56.1634 23.2208 56.1908 23.2313 56.211 23.2502C56.2311 23.269 56.2425 23.2946 56.2425 23.3212C56.2425 23.3479 56.2311 23.3734 56.211 23.3923C56.1908 23.4111 56.1634 23.4217 56.1349 23.4217C56.1063 23.4217 56.079 23.4111 56.0588 23.3923C56.0386 23.3734 56.0273 23.3479 56.0273 23.3212C56.0273 23.2946 56.0386 23.269 56.0588 23.2502C56.079 23.2313 56.1063 23.2208 56.1349 23.2208ZM56.924 23.2208C56.9525 23.2208 56.9799 23.2313 57.0001 23.2502C57.0202 23.269 57.0316 23.2946 57.0316 23.3212C57.0316 23.3479 57.0202 23.3734 57.0001 23.3923C56.9799 23.4111 56.9525 23.4217 56.924 23.4217C56.8954 23.4217 56.8681 23.4111 56.8479 23.3923C56.8277 23.3734 56.8164 23.3479 56.8164 23.3212C56.8164 23.2946 56.8277 23.269 56.8479 23.2502C56.8681 23.2313 56.8954 23.2208 56.924 23.2208ZM50.6112 23.2208C50.6397 23.2208 50.6671 23.2313 50.6873 23.2502C50.7075 23.269 50.7188 23.2946 50.7188 23.3212C50.7188 23.3479 50.7075 23.3734 50.6873 23.3923C50.6671 23.4111 50.6397 23.4217 50.6112 23.4217C50.5827 23.4217 50.5553 23.4111 50.5351 23.3923C50.5149 23.3734 50.5036 23.3479 50.5036 23.3212C50.5036 23.2946 50.5149 23.269 50.5351 23.2502C50.5553 23.2313 50.5827 23.2208 50.6112 23.2208Z" fill="#CF6BCB"/>
</g>
<path opacity="0.15" fill-rule="evenodd" clip-rule="evenodd" d="M20.3154 9L19.6215 12H19V9H20.3154ZM22 9L21.3061 12H20.6846V9H22Z" fill="url(#paint1_linear)"/>
<g clip-path="url(#clip1)">
<path fill-rule="evenodd" clip-rule="evenodd" d="M33 33C25.3988 31.4114 19.3906 29.4721 14.9754 27.1818C10.5602 24.8916 5.56834 24.4068 0 25.7273V33H33Z" fill="#F4F4FC"/>
</g>
<defs>
<linearGradient id="paint0_linear" x1="53.5132" y1="13.6359" x2="44.5115" y2="24.5638" gradientUnits="userSpaceOnUse">
<stop stop-color="#9975D0"/>
<stop offset="1" stop-color="#4A3FDB"/>
</linearGradient>
<linearGradient id="paint1_linear" x1="19.941" y1="11.1875" x2="22" y2="9.58671" gradientUnits="userSpaceOnUse">
<stop stop-color="#9975D0"/>
<stop offset="1" stop-color="#4A3FDB"/>
</linearGradient>
<clipPath id="clip0">
<rect width="25" height="22" fill="white" transform="translate(33 4)"/>
</clipPath>
<clipPath id="clip1">
<rect width="33" height="8" fill="white" transform="translate(0 25)"/>
</clipPath>
</defs>
</svg>
