<svg width="33" height="45" viewBox="0 0 33 45" fill="none" xmlns="http://www.w3.org/2000/svg">
<rect width="33" height="45" fill="white"/>
<g clip-path="url(#clip0)">
<path fill-rule="evenodd" clip-rule="evenodd" d="M15.3555 6.17044C17.2611 4.26134 20.7015 7.65434 23.5519 11.5303C26.4024 15.4062 28.3459 17.2479 25.8563 19.7422C23.3667 22.2365 18.0528 23.2283 15.3555 19.7422C12.6583 16.2561 13.4501 8.07952 15.3555 6.17044V6.17044Z" fill="url(#paint0_linear)"/>
<path fill-rule="evenodd" clip-rule="evenodd" d="M5.46995 11.2704C3.83265 9.75342 6.7426 7.0144 10.0667 4.74514C13.3908 2.47586 14.9704 0.928614 17.1096 2.91062C19.2488 4.8926 20.0994 9.1231 17.1096 11.2704C14.1198 13.4177 7.10726 12.7874 5.46995 11.2704V11.2704Z" fill="#F4F4FC"/>
<path d="M15.858 3.37258L16.492 2.76111L17.126 3.37258L17.7601 2.76111L18.3941 3.37258L19.0281 2.76111" stroke="#D3629D" stroke-width="0.2"/>
<path d="M15.858 3.92056L16.492 3.30908L17.126 3.92056L17.7601 3.30908L18.3941 3.92056L19.0281 3.30908" stroke="#D3629D" stroke-width="0.2"/>
<path d="M15.858 4.46847L16.492 3.85699L17.126 4.46847L17.7601 3.85699L18.3941 4.46847L19.0281 3.85699" stroke="#D3629D" stroke-width="0.2"/>
<path d="M15.858 5.01644L16.492 4.40497L17.126 5.01644L17.7601 4.40497L18.3941 5.01644L19.0281 4.40497" stroke="#D3629D" stroke-width="0.2"/>
<path fill-rule="evenodd" clip-rule="evenodd" d="M26.0531 21.4826C26.0782 21.4826 26.1023 21.4922 26.12 21.5093C26.1378 21.5265 26.1478 21.5497 26.1478 21.5739C26.1478 21.5981 26.1378 21.6214 26.12 21.6385C26.1023 21.6556 26.0782 21.6652 26.0531 21.6652C26.028 21.6652 26.0039 21.6556 25.9861 21.6385C25.9683 21.6214 25.9584 21.5981 25.9584 21.5739C25.9584 21.5497 25.9683 21.5265 25.9861 21.5093C26.0039 21.4922 26.028 21.4826 26.0531 21.4826ZM25.3587 21.4826C25.3838 21.4826 25.4079 21.4922 25.4256 21.5093C25.4434 21.5265 25.4534 21.5497 25.4534 21.5739C25.4534 21.5981 25.4434 21.6214 25.4256 21.6385C25.4079 21.6556 25.3838 21.6652 25.3587 21.6652C25.3335 21.6652 25.3095 21.6556 25.2917 21.6385C25.2739 21.6214 25.264 21.5981 25.264 21.5739C25.264 21.5497 25.2739 21.5265 25.2917 21.5093C25.3095 21.4922 25.3335 21.4826 25.3587 21.4826ZM24.6643 21.4826C24.6894 21.4826 24.7135 21.4922 24.7312 21.5093C24.749 21.5265 24.7589 21.5497 24.7589 21.5739C24.7589 21.5981 24.749 21.6214 24.7312 21.6385C24.7135 21.6556 24.6894 21.6652 24.6643 21.6652C24.6391 21.6652 24.6151 21.6556 24.5973 21.6385C24.5795 21.6214 24.5696 21.5981 24.5696 21.5739C24.5696 21.5497 24.5795 21.5265 24.5973 21.5093C24.6151 21.4922 24.6391 21.4826 24.6643 21.4826ZM23.9699 21.4826C23.995 21.4826 24.0191 21.4922 24.0368 21.5093C24.0546 21.5265 24.0645 21.5497 24.0645 21.5739C24.0645 21.5981 24.0546 21.6214 24.0368 21.6385C24.0191 21.6556 23.995 21.6652 23.9699 21.6652C23.9447 21.6652 23.9207 21.6556 23.9029 21.6385C23.8851 21.6214 23.8752 21.5981 23.8752 21.5739C23.8752 21.5497 23.8851 21.5265 23.9029 21.5093C23.9207 21.4922 23.9447 21.4826 23.9699 21.4826ZM23.2754 21.4826C23.3006 21.4826 23.3246 21.4922 23.3424 21.5093C23.3602 21.5265 23.3701 21.5497 23.3701 21.5739C23.3701 21.5981 23.3602 21.6214 23.3424 21.6385C23.3246 21.6556 23.3006 21.6652 23.2754 21.6652C23.2503 21.6652 23.2262 21.6556 23.2085 21.6385C23.1907 21.6214 23.1808 21.5981 23.1808 21.5739C23.1808 21.5497 23.1907 21.5265 23.2085 21.5093C23.2262 21.4922 23.2503 21.4826 23.2754 21.4826ZM22.581 21.4826C22.6062 21.4826 22.6302 21.4922 22.648 21.5093C22.6658 21.5265 22.6757 21.5497 22.6757 21.5739C22.6757 21.5981 22.6658 21.6214 22.648 21.6385C22.6302 21.6556 22.6062 21.6652 22.581 21.6652C22.5559 21.6652 22.5318 21.6556 22.5141 21.6385C22.4963 21.6214 22.4864 21.5981 22.4864 21.5739C22.4864 21.5497 22.4963 21.5265 22.5141 21.5093C22.5318 21.4922 22.5559 21.4826 22.581 21.4826ZM21.8866 21.4826C21.9118 21.4826 21.9358 21.4922 21.9536 21.5093C21.9714 21.5265 21.9813 21.5497 21.9813 21.5739C21.9813 21.5981 21.9714 21.6214 21.9536 21.6385C21.9358 21.6556 21.9118 21.6652 21.8866 21.6652C21.8615 21.6652 21.8374 21.6556 21.8197 21.6385C21.8019 21.6214 21.7919 21.5981 21.7919 21.5739C21.7919 21.5497 21.8019 21.5265 21.8197 21.5093C21.8374 21.4922 21.8615 21.4826 21.8866 21.4826ZM21.1922 21.4826C21.2173 21.4826 21.2414 21.4922 21.2592 21.5093C21.2769 21.5265 21.2869 21.5497 21.2869 21.5739C21.2869 21.5981 21.2769 21.6214 21.2592 21.6385C21.2414 21.6556 21.2173 21.6652 21.1922 21.6652C21.1671 21.6652 21.143 21.6556 21.1253 21.6385C21.1075 21.6214 21.0975 21.5981 21.0975 21.5739C21.0975 21.5497 21.1075 21.5265 21.1253 21.5093C21.143 21.4922 21.1671 21.4826 21.1922 21.4826ZM20.4978 21.4826C20.5229 21.4826 20.547 21.4922 20.5648 21.5093C20.5825 21.5265 20.5925 21.5497 20.5925 21.5739C20.5925 21.5981 20.5825 21.6214 20.5648 21.6385C20.547 21.6556 20.5229 21.6652 20.4978 21.6652C20.4727 21.6652 20.4486 21.6556 20.4309 21.6385C20.4131 21.6214 20.4031 21.5981 20.4031 21.5739C20.4031 21.5497 20.4131 21.5265 20.4309 21.5093C20.4486 21.4922 20.4727 21.4826 20.4978 21.4826ZM20.4978 20.8129C20.5229 20.8129 20.547 20.8225 20.5648 20.8396C20.5825 20.8567 20.5925 20.88 20.5925 20.9042C20.5925 20.9284 20.5825 20.9516 20.5648 20.9688C20.547 20.9859 20.5229 20.9955 20.4978 20.9955C20.4727 20.9955 20.4486 20.9859 20.4309 20.9688C20.4131 20.9516 20.4031 20.9284 20.4031 20.9042C20.4031 20.88 20.4131 20.8567 20.4309 20.8396C20.4486 20.8225 20.4727 20.8129 20.4978 20.8129ZM26.0531 20.8129C26.0782 20.8129 26.1023 20.8225 26.12 20.8396C26.1378 20.8567 26.1478 20.88 26.1478 20.9042C26.1478 20.9284 26.1378 20.9516 26.12 20.9688C26.1023 20.9859 26.0782 20.9955 26.0531 20.9955C26.028 20.9955 26.0039 20.9859 25.9861 20.9688C25.9683 20.9516 25.9584 20.9284 25.9584 20.9042C25.9584 20.88 25.9683 20.8567 25.9861 20.8396C26.0039 20.8225 26.028 20.8129 26.0531 20.8129ZM25.3587 20.8129C25.3838 20.8129 25.4079 20.8225 25.4256 20.8396C25.4434 20.8567 25.4534 20.88 25.4534 20.9042C25.4534 20.9284 25.4434 20.9516 25.4256 20.9688C25.4079 20.9859 25.3838 20.9955 25.3587 20.9955C25.3335 20.9955 25.3095 20.9859 25.2917 20.9688C25.2739 20.9516 25.264 20.9284 25.264 20.9042C25.264 20.88 25.2739 20.8567 25.2917 20.8396C25.3095 20.8225 25.3335 20.8129 25.3587 20.8129ZM24.6643 20.8129C24.6894 20.8129 24.7135 20.8225 24.7312 20.8396C24.749 20.8567 24.7589 20.88 24.7589 20.9042C24.7589 20.9284 24.749 20.9516 24.7312 20.9688C24.7135 20.9859 24.6894 20.9955 24.6643 20.9955C24.6391 20.9955 24.6151 20.9859 24.5973 20.9688C24.5795 20.9516 24.5696 20.9284 24.5696 20.9042C24.5696 20.88 24.5795 20.8567 24.5973 20.8396C24.6151 20.8225 24.6391 20.8129 24.6643 20.8129ZM23.9699 20.8129C23.995 20.8129 24.0191 20.8225 24.0368 20.8396C24.0546 20.8567 24.0645 20.88 24.0645 20.9042C24.0645 20.9284 24.0546 20.9516 24.0368 20.9688C24.0191 20.9859 23.995 20.9955 23.9699 20.9955C23.9447 20.9955 23.9207 20.9859 23.9029 20.9688C23.8851 20.9516 23.8752 20.9284 23.8752 20.9042C23.8752 20.88 23.8851 20.8567 23.9029 20.8396C23.9207 20.8225 23.9447 20.8129 23.9699 20.8129ZM23.2754 20.8129C23.3006 20.8129 23.3246 20.8225 23.3424 20.8396C23.3602 20.8567 23.3701 20.88 23.3701 20.9042C23.3701 20.9284 23.3602 20.9516 23.3424 20.9688C23.3246 20.9859 23.3006 20.9955 23.2754 20.9955C23.2503 20.9955 23.2262 20.9859 23.2085 20.9688C23.1907 20.9516 23.1808 20.9284 23.1808 20.9042C23.1808 20.88 23.1907 20.8567 23.2085 20.8396C23.2262 20.8225 23.2503 20.8129 23.2754 20.8129ZM22.581 20.8129C22.6062 20.8129 22.6302 20.8225 22.648 20.8396C22.6658 20.8567 22.6757 20.88 22.6757 20.9042C22.6757 20.9284 22.6658 20.9516 22.648 20.9688C22.6302 20.9859 22.6062 20.9955 22.581 20.9955C22.5559 20.9955 22.5318 20.9859 22.5141 20.9688C22.4963 20.9516 22.4864 20.9284 22.4864 20.9042C22.4864 20.88 22.4963 20.8567 22.5141 20.8396C22.5318 20.8225 22.5559 20.8129 22.581 20.8129ZM21.8866 20.8129C21.9118 20.8129 21.9358 20.8225 21.9536 20.8396C21.9714 20.8567 21.9813 20.88 21.9813 20.9042C21.9813 20.9284 21.9714 20.9516 21.9536 20.9688C21.9358 20.9859 21.9118 20.9955 21.8866 20.9955C21.8615 20.9955 21.8374 20.9859 21.8197 20.9688C21.8019 20.9516 21.7919 20.9284 21.7919 20.9042C21.7919 20.88 21.8019 20.8567 21.8197 20.8396C21.8374 20.8225 21.8615 20.8129 21.8866 20.8129ZM21.1922 20.8129C21.2173 20.8129 21.2414 20.8225 21.2592 20.8396C21.2769 20.8567 21.2869 20.88 21.2869 20.9042C21.2869 20.9284 21.2769 20.9516 21.2592 20.9688C21.2414 20.9859 21.2173 20.9955 21.1922 20.9955C21.1671 20.9955 21.143 20.9859 21.1253 20.9688C21.1075 20.9516 21.0975 20.9284 21.0975 20.9042C21.0975 20.88 21.1075 20.8567 21.1253 20.8396C21.143 20.8225 21.1671 20.8129 21.1922 20.8129ZM21.1922 20.1432C21.2173 20.1432 21.2414 20.1528 21.2592 20.1699C21.2769 20.187 21.2869 20.2103 21.2869 20.2345C21.2869 20.2587 21.2769 20.2819 21.2592 20.2991C21.2414 20.3162 21.2173 20.3258 21.1922 20.3258C21.1671 20.3258 21.143 20.3162 21.1253 20.2991C21.1075 20.2819 21.0975 20.2587 21.0975 20.2345C21.0975 20.2103 21.1075 20.187 21.1253 20.1699C21.143 20.1528 21.1671 20.1432 21.1922 20.1432ZM21.8866 20.1432C21.9118 20.1432 21.9358 20.1528 21.9536 20.1699C21.9714 20.187 21.9813 20.2103 21.9813 20.2345C21.9813 20.2587 21.9714 20.2819 21.9536 20.2991C21.9358 20.3162 21.9118 20.3258 21.8866 20.3258C21.8615 20.3258 21.8374 20.3162 21.8197 20.2991C21.8019 20.2819 21.7919 20.2587 21.7919 20.2345C21.7919 20.2103 21.8019 20.187 21.8197 20.1699C21.8374 20.1528 21.8615 20.1432 21.8866 20.1432ZM22.581 20.1432C22.6062 20.1432 22.6302 20.1528 22.648 20.1699C22.6658 20.187 22.6757 20.2103 22.6757 20.2345C22.6757 20.2587 22.6658 20.2819 22.648 20.2991C22.6302 20.3162 22.6062 20.3258 22.581 20.3258C22.5559 20.3258 22.5318 20.3162 22.5141 20.2991C22.4963 20.2819 22.4864 20.2587 22.4864 20.2345C22.4864 20.2103 22.4963 20.187 22.5141 20.1699C22.5318 20.1528 22.5559 20.1432 22.581 20.1432ZM23.2754 20.1432C23.3006 20.1432 23.3246 20.1528 23.3424 20.1699C23.3602 20.187 23.3701 20.2103 23.3701 20.2345C23.3701 20.2587 23.3602 20.2819 23.3424 20.2991C23.3246 20.3162 23.3006 20.3258 23.2754 20.3258C23.2503 20.3258 23.2262 20.3162 23.2085 20.2991C23.1907 20.2819 23.1808 20.2587 23.1808 20.2345C23.1808 20.2103 23.1907 20.187 23.2085 20.1699C23.2262 20.1528 23.2503 20.1432 23.2754 20.1432ZM23.9699 20.1432C23.995 20.1432 24.0191 20.1528 24.0368 20.1699C24.0546 20.187 24.0645 20.2103 24.0645 20.2345C24.0645 20.2587 24.0546 20.2819 24.0368 20.2991C24.0191 20.3162 23.995 20.3258 23.9699 20.3258C23.9447 20.3258 23.9207 20.3162 23.9029 20.2991C23.8851 20.2819 23.8752 20.2587 23.8752 20.2345C23.8752 20.2103 23.8851 20.187 23.9029 20.1699C23.9207 20.1528 23.9447 20.1432 23.9699 20.1432ZM24.6643 20.1432C24.6894 20.1432 24.7135 20.1528 24.7312 20.1699C24.749 20.187 24.7589 20.2103 24.7589 20.2345C24.7589 20.2587 24.749 20.2819 24.7312 20.2991C24.7135 20.3162 24.6894 20.3258 24.6643 20.3258C24.6391 20.3258 24.6151 20.3162 24.5973 20.2991C24.5795 20.2819 24.5696 20.2587 24.5696 20.2345C24.5696 20.2103 24.5795 20.187 24.5973 20.1699C24.6151 20.1528 24.6391 20.1432 24.6643 20.1432ZM25.3587 20.1432C25.3838 20.1432 25.4079 20.1528 25.4256 20.1699C25.4434 20.187 25.4534 20.2103 25.4534 20.2345C25.4534 20.2587 25.4434 20.2819 25.4256 20.2991C25.4079 20.3162 25.3838 20.3258 25.3587 20.3258C25.3335 20.3258 25.3095 20.3162 25.2917 20.2991C25.2739 20.2819 25.264 20.2587 25.264 20.2345C25.264 20.2103 25.2739 20.187 25.2917 20.1699C25.3095 20.1528 25.3335 20.1432 25.3587 20.1432ZM26.0531 20.1432C26.0782 20.1432 26.1023 20.1528 26.12 20.1699C26.1378 20.187 26.1478 20.2103 26.1478 20.2345C26.1478 20.2587 26.1378 20.2819 26.12 20.2991C26.1023 20.3162 26.0782 20.3258 26.0531 20.3258C26.028 20.3258 26.0039 20.3162 25.9861 20.2991C25.9683 20.2819 25.9584 20.2587 25.9584 20.2345C25.9584 20.2103 25.9683 20.187 25.9861 20.1699C26.0039 20.1528 26.028 20.1432 26.0531 20.1432ZM20.4978 20.1432C20.5229 20.1432 20.547 20.1528 20.5648 20.1699C20.5825 20.187 20.5925 20.2103 20.5925 20.2345C20.5925 20.2587 20.5825 20.2819 20.5648 20.2991C20.547 20.3162 20.5229 20.3258 20.4978 20.3258C20.4727 20.3258 20.4486 20.3162 20.4309 20.2991C20.4131 20.2819 20.4031 20.2587 20.4031 20.2345C20.4031 20.2103 20.4131 20.187 20.4309 20.1699C20.4486 20.1528 20.4727 20.1432 20.4978 20.1432ZM21.1922 19.4734C21.2173 19.4734 21.2414 19.4831 21.2592 19.5002C21.2769 19.5173 21.2869 19.5406 21.2869 19.5648C21.2869 19.589 21.2769 19.6122 21.2592 19.6294C21.2414 19.6465 21.2173 19.6561 21.1922 19.6561C21.1671 19.6561 21.143 19.6465 21.1253 19.6294C21.1075 19.6122 21.0975 19.589 21.0975 19.5648C21.0975 19.5406 21.1075 19.5173 21.1253 19.5002C21.143 19.4831 21.1671 19.4734 21.1922 19.4734ZM21.8866 19.4734C21.9118 19.4734 21.9358 19.4831 21.9536 19.5002C21.9714 19.5173 21.9813 19.5406 21.9813 19.5648C21.9813 19.589 21.9714 19.6122 21.9536 19.6294C21.9358 19.6465 21.9118 19.6561 21.8866 19.6561C21.8615 19.6561 21.8374 19.6465 21.8197 19.6294C21.8019 19.6122 21.7919 19.589 21.7919 19.5648C21.7919 19.5406 21.8019 19.5173 21.8197 19.5002C21.8374 19.4831 21.8615 19.4734 21.8866 19.4734ZM22.581 19.4734C22.6062 19.4734 22.6302 19.4831 22.648 19.5002C22.6658 19.5173 22.6757 19.5406 22.6757 19.5648C22.6757 19.589 22.6658 19.6122 22.648 19.6294C22.6302 19.6465 22.6062 19.6561 22.581 19.6561C22.5559 19.6561 22.5318 19.6465 22.5141 19.6294C22.4963 19.6122 22.4864 19.589 22.4864 19.5648C22.4864 19.5406 22.4963 19.5173 22.5141 19.5002C22.5318 19.4831 22.5559 19.4734 22.581 19.4734ZM23.2754 19.4734C23.3006 19.4734 23.3246 19.4831 23.3424 19.5002C23.3602 19.5173 23.3701 19.5406 23.3701 19.5648C23.3701 19.589 23.3602 19.6122 23.3424 19.6294C23.3246 19.6465 23.3006 19.6561 23.2754 19.6561C23.2503 19.6561 23.2262 19.6465 23.2085 19.6294C23.1907 19.6122 23.1808 19.589 23.1808 19.5648C23.1808 19.5406 23.1907 19.5173 23.2085 19.5002C23.2262 19.4831 23.2503 19.4734 23.2754 19.4734ZM23.9699 19.4734C23.995 19.4734 24.0191 19.4831 24.0368 19.5002C24.0546 19.5173 24.0645 19.5406 24.0645 19.5648C24.0645 19.589 24.0546 19.6122 24.0368 19.6294C24.0191 19.6465 23.995 19.6561 23.9699 19.6561C23.9447 19.6561 23.9207 19.6465 23.9029 19.6294C23.8851 19.6122 23.8752 19.589 23.8752 19.5648C23.8752 19.5406 23.8851 19.5173 23.9029 19.5002C23.9207 19.4831 23.9447 19.4734 23.9699 19.4734ZM24.6643 19.4734C24.6894 19.4734 24.7135 19.4831 24.7312 19.5002C24.749 19.5173 24.7589 19.5406 24.7589 19.5648C24.7589 19.589 24.749 19.6122 24.7312 19.6294C24.7135 19.6465 24.6894 19.6561 24.6643 19.6561C24.6391 19.6561 24.6151 19.6465 24.5973 19.6294C24.5795 19.6122 24.5696 19.589 24.5696 19.5648C24.5696 19.5406 24.5795 19.5173 24.5973 19.5002C24.6151 19.4831 24.6391 19.4734 24.6643 19.4734ZM25.3587 19.4734C25.3838 19.4734 25.4079 19.4831 25.4256 19.5002C25.4434 19.5173 25.4534 19.5406 25.4534 19.5648C25.4534 19.589 25.4434 19.6122 25.4256 19.6294C25.4079 19.6465 25.3838 19.6561 25.3587 19.6561C25.3335 19.6561 25.3095 19.6465 25.2917 19.6294C25.2739 19.6122 25.264 19.589 25.264 19.5648C25.264 19.5406 25.2739 19.5173 25.2917 19.5002C25.3095 19.4831 25.3335 19.4734 25.3587 19.4734ZM26.0531 19.4734C26.0782 19.4734 26.1023 19.4831 26.12 19.5002C26.1378 19.5173 26.1478 19.5406 26.1478 19.5648C26.1478 19.589 26.1378 19.6122 26.12 19.6294C26.1023 19.6465 26.0782 19.6561 26.0531 19.6561C26.028 19.6561 26.0039 19.6465 25.9861 19.6294C25.9683 19.6122 25.9584 19.589 25.9584 19.5648C25.9584 19.5406 25.9683 19.5173 25.9861 19.5002C26.0039 19.4831 26.028 19.4734 26.0531 19.4734ZM20.4978 19.4734C20.5229 19.4734 20.547 19.4831 20.5648 19.5002C20.5825 19.5173 20.5925 19.5406 20.5925 19.5648C20.5925 19.589 20.5825 19.6122 20.5648 19.6294C20.547 19.6465 20.5229 19.6561 20.4978 19.6561C20.4727 19.6561 20.4486 19.6465 20.4309 19.6294C20.4131 19.6122 20.4031 19.589 20.4031 19.5648C20.4031 19.5406 20.4131 19.5173 20.4309 19.5002C20.4486 19.4831 20.4727 19.4734 20.4978 19.4734Z" fill="#CF6BCB"/>
</g>
<path opacity="0.15" fill-rule="evenodd" clip-rule="evenodd" d="M15.3154 24L14.6215 27H14V24H15.3154ZM17 24L16.3061 27H15.6846V24H17Z" fill="url(#paint1_linear)"/>
<g clip-path="url(#clip1)">
<path fill-rule="evenodd" clip-rule="evenodd" d="M23 43C17.7022 41.8086 13.5146 40.354 10.4374 38.6364C7.36015 36.9187 3.88097 36.5551 0 37.5454V43H23Z" fill="#F4F4FC"/>
</g>
<defs>
<linearGradient id="paint0_linear" x1="23.0516" y1="10.7599" x2="14.8214" y2="20.4316" gradientUnits="userSpaceOnUse">
<stop stop-color="#9975D0"/>
<stop offset="1" stop-color="#4A3FDB"/>
</linearGradient>
<linearGradient id="paint1_linear" x1="14.941" y1="26.1875" x2="17" y2="24.5867" gradientUnits="userSpaceOnUse">
<stop stop-color="#9975D0"/>
<stop offset="1" stop-color="#4A3FDB"/>
</linearGradient>
<clipPath id="clip0">
<rect width="22" height="20" fill="white" transform="translate(5 2)"/>
</clipPath>
<clipPath id="clip1">
<rect width="23" height="6" fill="white" transform="translate(0 37)"/>
</clipPath>
</defs>
</svg>
