<svg width="24" height="23" viewBox="0 0 24 23" fill="none" xmlns="http://www.w3.org/2000/svg">
<path d="M6.85437 10.5417H8.8127V12.4584H6.85437V10.5417ZM6.85437 14.375H8.8127V16.2917H6.85437V14.375ZM10.771 10.5417H12.7294V12.4584H10.771V10.5417ZM10.771 14.375H12.7294V16.2917H10.771V14.375ZM14.6877 10.5417H16.646V12.4584H14.6877V10.5417ZM14.6877 14.375H16.646V16.2917H14.6877V14.375Z" fill="#2267A0"/>
<path d="M4.89596 21.0834H18.6043C19.6843 21.0834 20.5626 20.2237 20.5626 19.1667V5.75002C20.5626 4.69298 19.6843 3.83335 18.6043 3.83335H16.646V1.91669H14.6876V3.83335H8.81262V1.91669H6.85429V3.83335H4.89596C3.81593 3.83335 2.93762 4.69298 2.93762 5.75002V19.1667C2.93762 20.2237 3.81593 21.0834 4.89596 21.0834ZM18.6043 7.66669L18.6053 19.1667H4.89596V7.66669H18.6043Z" fill="#2267A0"/>
</svg>
