<svg width="10" height="4" viewBox="0 0 10 4" fill="none" xmlns="http://www.w3.org/2000/svg">
<path d="M0.157555 0.570178L4.22477 3.10193C4.27459 3.13301 4.33377 3.15768 4.39892 3.17451C4.46408 3.19134 4.53392 3.2 4.60446 3.2C4.675 3.2 4.74485 3.19134 4.81 3.17451C4.87516 3.15768 4.93434 3.13301 4.98416 3.10193L9.05244 0.570178C9.12764 0.523489 9.17887 0.463953 9.19964 0.399119C9.22042 0.334284 9.20979 0.267069 9.16912 0.205997C9.12845 0.144924 9.05957 0.0927433 8.9712 0.0560699C8.88283 0.0193966 8.77896 -0.000117751 8.67275 5.34562e-07H0.536175C0.430059 1.45653e-05 0.326335 0.0196247 0.238131 0.0563488C0.149927 0.093073 0.0812076 0.14526 0.0406712 0.206305C0.000134722 0.267351 -0.0103964 0.33451 0.01041 0.399282C0.0312164 0.464055 0.0824252 0.523529 0.157555 0.570178Z" fill="#2267A0"/>
</svg>
