<svg width="18" height="17" viewBox="0 0 18 17" fill="none" xmlns="http://www.w3.org/2000/svg">
<path d="M3.75 14.875V3.54167C3.75 3.16594 3.90804 2.80561 4.18934 2.53993C4.47064 2.27426 4.85218 2.125 5.25 2.125H12.75C13.1478 2.125 13.5294 2.27426 13.8107 2.53993C14.092 2.80561 14.25 3.16594 14.25 3.54167V14.875L12 13.4583L10.5 14.875L9 13.4583L7.5 14.875L6 13.4583L3.75 14.875Z" stroke="#2267A0" stroke-width="1.2" stroke-linecap="round" stroke-linejoin="round"/>
<path d="M10.5 5.66663H8.625C8.32663 5.66663 8.04048 5.77857 7.8295 5.97782C7.61853 6.17708 7.5 6.44733 7.5 6.72913C7.5 7.01092 7.61853 7.28117 7.8295 7.48043C8.04048 7.67968 8.32663 7.79163 8.625 7.79163H9.375C9.67337 7.79163 9.95952 7.90357 10.1705 8.10282C10.3815 8.30208 10.5 8.57233 10.5 8.85413C10.5 9.13592 10.3815 9.40617 10.1705 9.60543C9.95952 9.80468 9.67337 9.91662 9.375 9.91662H7.5M9 9.91662V10.9791M9 4.60413V5.66663" stroke="#2267A0" stroke-width="1.2" stroke-linecap="round" stroke-linejoin="round"/>
</svg>
