<svg width="20" height="20" viewBox="0 0 20 20" fill="none" xmlns="http://www.w3.org/2000/svg">
<path d="M10.0001 1.25C12.3209 1.25 14.5467 2.17194 16.1878 3.813C17.8288 5.45406 18.7508 7.67981 18.7508 10.0006C18.7508 12.3214 17.8288 14.5472 16.1878 16.1883C14.5467 17.8293 12.3209 18.7513 10.0001 18.7513C7.67933 18.7513 5.45357 17.8293 3.81251 16.1883C2.17145 14.5472 1.24951 12.3214 1.24951 10.0006C1.24951 7.67981 2.17145 5.45406 3.81251 3.813C5.45357 2.17194 7.67933 1.25 10.0001 1.25ZM11.3126 6.6225C11.9626 6.6225 12.4901 6.17125 12.4901 5.5025C12.4901 4.83375 11.9614 4.3825 11.3126 4.3825C10.6626 4.3825 10.1376 4.83375 10.1376 5.5025C10.1376 6.17125 10.6626 6.6225 11.3126 6.6225ZM11.5414 13.6562C11.5414 13.5225 11.5876 13.175 11.5614 12.9775L10.5339 14.16C10.3214 14.3837 10.0551 14.5387 9.93013 14.4975C9.87343 14.4766 9.82603 14.4362 9.79647 14.3835C9.76691 14.3308 9.75713 14.2693 9.76889 14.21L11.4814 8.8C11.6214 8.11375 11.2364 7.4875 10.4201 7.4075C9.55889 7.4075 8.29139 8.28125 7.52014 9.39C7.52014 9.5225 7.49514 9.8525 7.52139 10.05L8.54764 8.86625C8.76014 8.645 9.00764 8.48875 9.13264 8.53125C9.19422 8.55335 9.24468 8.59872 9.2732 8.65762C9.30171 8.71651 9.30599 8.78423 9.28514 8.84625L7.58764 14.23C7.39139 14.86 7.76264 15.4775 8.66264 15.6175C9.98763 15.6175 10.7701 14.765 11.5426 13.6562H11.5414Z" fill="white"/>
</svg>
